<?xml version="1.0" encoding="utf-8" standalone="no"?>
<!DOCTYPE svg PUBLIC "-//W3C//DTD SVG 1.1//EN"
  "http://www.w3.org/Graphics/SVG/1.1/DTD/svg11.dtd">
<!-- Created with matplotlib (http://matplotlib.sourceforge.net/) -->
<svg height="432pt" version="1.1" viewBox="0 0 576 432" width="576pt" xmlns="http://www.w3.org/2000/svg" xmlns:xlink="http://www.w3.org/1999/xlink">
 <defs>
  <style type="text/css">
*{stroke-linecap:square;stroke-linejoin:round;}
  </style>
 </defs>
 <g id="figure_1">
  <g id="patch_1">
   <path d="
M0 432
L576 432
L576 0
L0 0
z
" style="fill:#ffffff;"/>
  </g>
  <g id="axes_1">
   <g id="patch_2">
    <path d="
M72 144.847
L518.4 144.847
L518.4 43.2
L72 43.2
z
" style="fill:#ffffff;"/>
   </g>
   <g id="line2d_1">
    <path clip-path="url(#pfd6a83a59a)" d="
M72 96.9011
L72.4418 96.9277
L72.8835 97.2075
L73.3231 98.3798
L73.7641 98.3798
L74.6454 99.8319
L75.964 99.8319
L76.4058 100.245
L76.8446 101.284
L77.2834 101.64
L77.7237 102.736
L81.6812 102.736
L82.1222 103.792
L82.561 104.188
L85.2035 104.188
L85.643 104.809
L86.0848 104.624
L86.5273 105.361
L86.8936 104.188
L89.2371 104.188
L89.6781 105.467
L90.1199 105.64
L96.7212 105.64
L97.1623 105.92
L97.6026 105.627
L98.0428 105.64
L98.4839 105.121
L98.9234 104.927
L99.3652 104.188
L99.8055 104.097
L100.246 102.736
L101.126 102.736
L102.008 102.123
L102.447 101.284
L102.887 101.284
L103.328 100.005
L103.77 99.8185
L104.65 99.8319
L105.531 97.2741
L105.972 96.9277
L106.412 96.3949
L106.854 96.6746
L107.295 95.4756
L107.735 95.2925
L108.179 93.2447
L109.501 92.5322
L109.942 92.5714
L110.827 91.8982
L111.267 92.5714
L111.707 92.5714
L112.147 91.7398
L112.594 90.5121
L113.034 89.6672
L113.473 88.3092
L114.353 88.2151
L114.794 88.2151
L115.234 90.2877
L115.676 89.6672
L116.117 88.375
L116.561 89.1392
L117.44 88.2151
L118.32 88.2151
L120.96 88.2151
L121.401 89.3108
L121.84 89.6541
L122.281 88.6947
L122.722 89.4187
L123.607 88.242
L124.048 89.3636
L124.486 89.6672
L126.249 89.6672
L126.691 90.0897
L127.13 89.7588
L127.571 91.1193
L128.012 91.1193
L128.452 90.5332
L128.891 91.1193
L129.332 91.9642
L129.773 91.1193
L130.215 91.3058
L130.655 92.2414
L131.094 91.6256
L131.535 92.2414
L131.976 92.4406
L132.414 92.2414
L132.855 91.1193
L133.735 91.1193
L134.176 92.4799
L135.058 92.6892
L135.939 95.4756
L136.379 96.0961
L136.823 95.6719
L137.264 95.4495
L139.026 95.4756
L139.466 96.0169
L139.91 98.1574
L140.35 98.3798
L140.789 98.8287
L141.232 98.7495
L141.671 99.5788
L142.113 99.8319
L142.554 100.272
L142.994 101.284
L143.436 101.546
L143.877 102.682
L145.197 102.736
L146.518 102.817
L146.959 104.188
L148.721 104.11
L149.162 102.75
L150.483 102.736
L151.366 101.363
L151.808 102.563
L152.25 102.736
L152.69 102.736
L153.132 103.056
L153.572 104.188
L154.454 104.188
L154.893 104.597
L155.335 105.64
L156.216 105.64
L156.657 106.08
L157.098 107.014
L157.538 105.947
L157.98 105.708
L158.86 105.64
L160.181 105.64
L160.624 104.424
L161.065 104.188
L161.947 104.123
L162.387 103.256
L162.827 102.79
L164.148 102.736
L165.909 102.736
L166.226 103
L166.797 103.871
L167.24 103.953
L167.68 104.769
L168.122 107.092
L169.445 107.092
L169.886 107.171
L170.327 107.066
L171.209 107.092
L171.649 108.291
L172.094 107.713
L172.533 107.779
L172.976 108.545
L173.416 108.504
L173.856 108.038
L174.297 107.092
L175.619 107.092
L176.06 105.654
L177.381 105.64
L177.823 105.201
L178.262 104.188
L178.702 104.677
L179.144 104.188
L179.585 104.188
L180.026 102.844
L180.466 102.723
L180.906 102.736
L181.348 101.428
L181.789 101.284
L182.23 101.284
L182.669 102.615
L183.11 102.736
L185.312 102.736
L185.754 102.05
L186.195 102.736
L187.517 102.736
L187.959 102.456
L188.4 101.284
L190.605 101.284
L191.41 100.039
L194.747 98.3798
L195.63 99.8319
L197.392 99.8319
L198.274 101.284
L198.73 101.284
L199.158 101.128
L200.041 101.454
L200.482 101.467
L200.924 101.284
L202.247 101.284
L203.572 104.188
L204.455 103.176
L204.895 104.188
L207.101 104.188
L207.542 105.427
L207.985 104.306
L208.425 105.134
L208.867 105.64
L209.306 105.64
L209.748 104.293
L210.63 104.188
L211.512 104.188
L211.952 105.201
L212.395 104.306
L212.836 104.188
L213.277 104.188
L213.718 104.031
L214.16 102.736
L215.481 102.736
L215.921 102.857
L216.361 104.188
L217.683 104.188
L218.123 103.792
L218.564 104.188
L223.856 104.188
L224.297 104.018
L224.739 102.736
L225.18 103.162
L225.619 102.83
L226.499 102.736
L227.382 101.284
L227.821 100.888
L228.262 99.8319
L228.702 99.8319
L229.143 99.2324
L229.582 98.3798
L230.905 98.3798
L231.345 97.8122
L231.788 96.3949
L232.228 95.4756
L232.669 95.4756
L233.109 94.3566
L233.551 94.0235
L233.992 93.1259
L234.433 92.5714
L236.197 92.5453
L236.637 93.6772
L237.08 94.0235
L237.521 93.8503
L238.403 91.1731
L238.748 91.0003
L241.092 89.6672
L241.532 89.6149
L241.974 88.6814
L242.414 88.2151
L242.855 87.9487
L243.295 87.9487
L243.737 88.2151
L246.38 88.2151
L247.263 89.6672
L249.026 89.6672
L249.467 89.8111
L249.908 91.0521
L250.789 89.6672
L251.23 89.6672
L251.671 89.9419
L252.115 91.0128
L252.995 91.1193
L254.754 91.1193
L255.197 91.8322
L255.636 92.0434
L256.078 91.1193
L257.838 91.1193
L258.723 92.5714
L259.163 92.5714
L259.603 93.9563
L260.043 94.0235
L260.484 94.5298
L260.922 95.4756
L261.364 95.4756
L262.687 99.0003
L263.13 100.928
L263.569 101.206
L264.012 100.466
L264.454 101.284
L264.893 101.68
L265.336 102.336
L265.775 101.284
L267.98 101.284
L268.421 101.035
L268.863 101.284
L270.626 101.284
L271.954 103.357
L272.398 103.304
L272.84 102.736
L274.606 102.736
L275.05 103.317
L275.489 103.216
L275.932 102.736
L277.696 102.736
L278.137 103.016
L278.576 104.188
L279.457 104.162
L280.341 105.627
L281.224 105.64
L281.667 105.92
L282.107 107.092
L283.428 107.092
L283.869 106.818
L284.31 105.64
L284.75 105.64
L285.19 105.174
L285.63 104.188
L286.069 104.188
L286.951 102.736
L287.39 102.736
L287.833 102.221
L288.274 101.284
L289.154 101.284
L289.595 101.062
L290.038 99.8319
L290.477 99.8319
L290.937 98.9475
L291.376 98.3798
L291.816 98.3798
L292.256 97.1675
L292.697 96.9277
L293.139 96.9277
L293.581 95.5803
L294.463 94.0235
L294.903 92.6238
L295.342 91.9642
L295.786 90.9728
L296.227 89.3402
L296.671 88.2151
L297.113 87.7222
L297.552 86.763
L297.993 86.606
L298.874 83.8588
L299.756 82.4067
L300.197 82.4067
L301.077 80.5322
L301.518 80.2946
L301.959 80.3474
L302.4 79.5025
L302.84 79.4891
L303.722 78.0504
L304.161 78.2859
L304.603 78.0504
L305.482 78.0504
L305.923 77.8149
L306.366 76.5983
L307.695 76.5983
L308.136 76.8648
L308.548 76.5983
L309.032 76.8887
L309.483 76.5983
L309.933 76.5983
L310.835 79.5025
L311.285 79.5025
L311.736 78.4861
L312.185 78.0504
L313.084 78.0504
L313.534 78.6313
L313.985 79.5025
L314.435 78.4861
L314.885 78.1956
L315.336 79.5025
L317.139 79.5025
L317.589 80.2286
L318.039 80.3738
L318.489 79.7929
L318.939 80.9546
L319.839 80.9546
L320.289 81.245
L320.739 82.4067
L321.658 82.4067
L322.181 83.8588
L323.979 83.8588
L324.43 85.1657
L324.881 85.3109
L325.332 85.3109
L325.782 86.4726
L326.231 86.763
L327.131 86.763
L327.581 87.7795
L328.032 88.2151
L330.286 88.2151
L330.736 88.5055
L331.186 89.6672
L332.535 89.6672
L332.985 90.1029
L333.436 91.1193
L335.689 91.1193
L336.14 92.281
L336.589 92.5714
L343.334 92.5714
L343.785 93.8783
L344.236 94.0235
L346.038 94.0235
L346.939 92.7166
L347.388 92.5714
L348.287 92.5714
L348.737 93.5879
L349.188 92.7166
L349.638 92.5714
L351.886 92.5714
L352.336 91.9906
L353.237 90.2481
L353.687 89.6672
L354.586 89.6672
L355.035 89.2316
L355.486 88.2151
L355.936 88.2151
L356.387 88.5055
L356.838 88.2151
L359.091 88.2151
L359.541 86.763
L359.991 86.3274
L360.441 85.3109
L360.892 85.3109
L361.342 84.2945
L361.792 83.8588
L362.242 82.8424
L362.692 82.4067
L363.594 82.4067
L364.044 81.3903
L364.495 79.9382
L364.945 79.5025
L366.748 79.5025
L367.648 77.9052
L368.098 76.5983
L371.253 76.5983
L371.704 76.4531
L372.154 75.1462
L372.604 76.1627
L373.054 76.0175
L373.505 76.5983
L373.955 75.4366
L374.405 75.1462
L375.754 75.1462
L376.204 75.2914
L376.653 76.0175
L377.104 75.1462
L378.003 75.1462
L378.453 76.0175
L378.903 76.5983
L381.157 76.5983
L381.608 76.7435
L382.058 78.0504
L383.856 78.0504
L384.306 78.9217
L384.757 78.1956
L385.206 78.3408
L385.656 79.5025
L387.009 79.5025
L387.459 79.6477
L387.909 81.5355
L388.359 81.8259
L388.81 81.245
L389.26 82.2615
L389.71 82.4067
L390.162 82.4067
L390.611 83.4232
L391.061 84.004
L391.512 85.3109
L391.962 85.3109
L392.413 84.1492
L392.863 85.1657
L393.313 85.7466
L393.763 86.763
L394.213 86.763
L394.663 87.6343
L395.112 86.9082
L395.562 86.763
L397.811 86.763
L398.26 87.0534
L398.711 88.0699
L399.161 88.2151
L399.612 88.6508
L400.063 88.6508
L400.512 89.6672
L402.312 89.6672
L402.761 90.9741
L403.212 89.6672
L407.709 89.6672
L408.158 89.3768
L408.608 89.6672
L409.508 89.6672
L409.957 89.522
L410.407 88.6508
L410.857 89.6672
L411.308 88.2151
L413.561 88.2151
L414.012 87.3439
L414.462 86.763
L414.911 86.4726
L415.36 86.763
L415.81 86.763
L416.261 85.4561
L416.711 85.3109
L417.612 85.3109
L418.063 84.4397
L418.513 83.8588
L418.963 82.8424
L419.391 82.4067
L419.953 80.9546
L420.403 80.6642
L421.304 78.4861
L421.754 78.0504
L422.204 76.5983
L422.654 75.5818
L423.104 75.1462
L423.555 73.9845
L424.005 73.6941
L425.355 71.516
L425.805 69.7734
L426.255 69.3378
L426.705 67.8857
L427.606 66.4336
L428.056 67.5953
L428.507 67.8857
L428.957 67.5953
L429.407 66.4336
L430.307 66.4336
L430.756 65.8528
L431.657 64.1103
L432.557 62.9486
L433.007 62.0773
L435.711 62.0773
L436.162 61.7869
L436.612 60.9156
L437.062 60.6252
L437.512 61.6417
L437.962 62.0773
L441.117 62.0773
L441.568 62.3677
L442.018 63.5294
L443.367 63.5294
L443.816 63.6746
L444.267 64.9815
L444.718 64.9815
L445.167 66.2884
L445.617 66.4336
L446.067 67.0145
L446.518 67.8857
L446.961 67.8857
L447.419 69.0474
L447.868 69.3378
L448.318 69.3378
L448.768 70.2091
L449.218 69.3378
L451.466 69.3378
L451.924 70.6286
L452.367 70.7899
L452.818 70.7899
L453.268 72.0968
L453.718 72.3872
L454.619 75.1462
L455.068 75.1462
L455.518 76.5983
L456.871 76.5983
L457.32 77.9052
L457.77 78.0504
L458.22 78.0504
L458.67 76.5983
L459.12 77.9052
L459.57 78.0504
L460.02 78.0504
L460.92 79.5025
L461.371 79.5025
L461.821 79.3573
L462.272 78.9217
L462.722 79.5025
L465.426 79.5025
L466.327 80.9546
L468.575 80.9546
L469.475 82.4067
L469.926 83.7136
L470.376 83.8588
L472.174 83.8588
L472.624 84.1492
L473.075 85.3109
L474.877 85.3109
L475.327 86.6178
L475.777 86.763
L476.227 87.9247
L476.678 88.2151
L477.129 88.2151
L477.579 86.763
L478.927 86.763
L479.378 85.6013
L479.828 85.3109
L485.236 85.3109
L485.687 86.1822
L486.137 86.763
L487.487 90.5385
L487.937 90.8289
L488.387 89.6672
L488.837 89.6672
L489.287 88.6508
L489.737 87.3439
L490.188 88.2151
L490.639 88.2151
L491.54 88.796
L491.989 87.9247
L492.439 86.763
L492.889 86.037
L493.34 86.3274
L494.241 85.3109
L494.691 85.4561
L495.142 85.3109
L495.592 86.1822
L496.042 88.0699
L496.493 88.2151
L497.394 88.2151
L498.295 89.6672
L499.194 89.6672
L499.644 90.6837
L500.095 91.1193
L500.545 91.1193
L500.996 89.9576
L501.446 89.6672
L504.594 89.6672
L505.043 89.2316
L505.494 88.2151
L512.254 88.2151
L512.705 88.796
L513.155 89.6672
L513.604 89.6672
L514.505 88.2151
L514.955 88.2151
L515.406 88.3603
L515.856 89.6672
L516.306 89.9576
L516.757 91.1193
L517.207 91.1193
L517.658 91.4097
L518.108 92.5714
L518.4 92.5714
L518.4 92.5714" style="fill:none;stroke:#ff0000;stroke-width:0.5;"/>
   </g>
   <g id="matplotlib.axis_1">
    <g id="xtick_1">
     <g id="line2d_2">
      <path clip-path="url(#pfd6a83a59a)" d="
M82.3288 144.847
L82.3288 43.2" style="fill:none;stroke:#000000;stroke-dasharray:1.000000,3.000000;stroke-dashoffset:0.0;stroke-linecap:butt;stroke-width:0.5;"/>
     </g>
     <g id="line2d_3">
      <defs>
       <path d="
M0 0
L0 -4" id="me72ca7849d"/>
      </defs>
      <g>
       <use style="stroke:#000000;stroke-linecap:butt;stroke-width:0.5;" x="82.3287851736" xlink:href="#me72ca7849d" y="144.847058824"/>
      </g>
     </g>
     <g id="line2d_4">
      <defs>
       <path d="
M0 0
L0 4" id="mc306f472c1"/>
      </defs>
      <g>
       <use style="stroke:#000000;stroke-linecap:butt;stroke-width:0.5;" x="82.3287851736" xlink:href="#mc306f472c1" y="43.2"/>
      </g>
     </g>
    </g>
    <g id="xtick_2">
     <g id="line2d_5">
      <path clip-path="url(#pfd6a83a59a)" d="
M145.625 144.847
L145.625 43.2" style="fill:none;stroke:#000000;stroke-dasharray:1.000000,3.000000;stroke-dashoffset:0.0;stroke-linecap:butt;stroke-width:0.5;"/>
     </g>
     <g id="line2d_6">
      <defs>
       <path d="
M0 0
L0 -4" id="me72ca7849d"/>
      </defs>
      <g>
       <use style="stroke:#000000;stroke-linecap:butt;stroke-width:0.5;" x="145.624553584" xlink:href="#me72ca7849d" y="144.847058824"/>
      </g>
     </g>
     <g id="line2d_7">
      <defs>
       <path d="
M0 0
L0 4" id="mc306f472c1"/>
      </defs>
      <g>
       <use style="stroke:#000000;stroke-linecap:butt;stroke-width:0.5;" x="145.624553584" xlink:href="#mc306f472c1" y="43.2"/>
      </g>
     </g>
    </g>
    <g id="xtick_3">
     <g id="line2d_8">
      <path clip-path="url(#pfd6a83a59a)" d="
M208.92 144.847
L208.92 43.2" style="fill:none;stroke:#000000;stroke-dasharray:1.000000,3.000000;stroke-dashoffset:0.0;stroke-linecap:butt;stroke-width:0.5;"/>
     </g>
     <g id="line2d_9">
      <defs>
       <path d="
M0 0
L0 -4" id="me72ca7849d"/>
      </defs>
      <g>
       <use style="stroke:#000000;stroke-linecap:butt;stroke-width:0.5;" x="208.920321986" xlink:href="#me72ca7849d" y="144.847058824"/>
      </g>
     </g>
     <g id="line2d_10">
      <defs>
       <path d="
M0 0
L0 4" id="mc306f472c1"/>
      </defs>
      <g>
       <use style="stroke:#000000;stroke-linecap:butt;stroke-width:0.5;" x="208.920321986" xlink:href="#mc306f472c1" y="43.2"/>
      </g>
     </g>
    </g>
    <g id="xtick_4">
     <g id="line2d_11">
      <path clip-path="url(#pfd6a83a59a)" d="
M272.216 144.847
L272.216 43.2" style="fill:none;stroke:#000000;stroke-dasharray:1.000000,3.000000;stroke-dashoffset:0.0;stroke-linecap:butt;stroke-width:0.5;"/>
     </g>
     <g id="line2d_12">
      <defs>
       <path d="
M0 0
L0 -4" id="me72ca7849d"/>
      </defs>
      <g>
       <use style="stroke:#000000;stroke-linecap:butt;stroke-width:0.5;" x="272.216090396" xlink:href="#me72ca7849d" y="144.847058824"/>
      </g>
     </g>
     <g id="line2d_13">
      <defs>
       <path d="
M0 0
L0 4" id="mc306f472c1"/>
      </defs>
      <g>
       <use style="stroke:#000000;stroke-linecap:butt;stroke-width:0.5;" x="272.216090396" xlink:href="#mc306f472c1" y="43.2"/>
      </g>
     </g>
    </g>
    <g id="xtick_5">
     <g id="line2d_14">
      <path clip-path="url(#pfd6a83a59a)" d="
M335.512 144.847
L335.512 43.2" style="fill:none;stroke:#000000;stroke-dasharray:1.000000,3.000000;stroke-dashoffset:0.0;stroke-linecap:butt;stroke-width:0.5;"/>
     </g>
     <g id="line2d_15">
      <defs>
       <path d="
M0 0
L0 -4" id="me72ca7849d"/>
      </defs>
      <g>
       <use style="stroke:#000000;stroke-linecap:butt;stroke-width:0.5;" x="335.511858799" xlink:href="#me72ca7849d" y="144.847058824"/>
      </g>
     </g>
     <g id="line2d_16">
      <defs>
       <path d="
M0 0
L0 4" id="mc306f472c1"/>
      </defs>
      <g>
       <use style="stroke:#000000;stroke-linecap:butt;stroke-width:0.5;" x="335.511858799" xlink:href="#mc306f472c1" y="43.2"/>
      </g>
     </g>
    </g>
    <g id="xtick_6">
     <g id="line2d_17">
      <path clip-path="url(#pfd6a83a59a)" d="
M398.808 144.847
L398.808 43.2" style="fill:none;stroke:#000000;stroke-dasharray:1.000000,3.000000;stroke-dashoffset:0.0;stroke-linecap:butt;stroke-width:0.5;"/>
     </g>
     <g id="line2d_18">
      <defs>
       <path d="
M0 0
L0 -4" id="me72ca7849d"/>
      </defs>
      <g>
       <use style="stroke:#000000;stroke-linecap:butt;stroke-width:0.5;" x="398.807627209" xlink:href="#me72ca7849d" y="144.847058824"/>
      </g>
     </g>
     <g id="line2d_19">
      <defs>
       <path d="
M0 0
L0 4" id="mc306f472c1"/>
      </defs>
      <g>
       <use style="stroke:#000000;stroke-linecap:butt;stroke-width:0.5;" x="398.807627209" xlink:href="#mc306f472c1" y="43.2"/>
      </g>
     </g>
    </g>
    <g id="xtick_7">
     <g id="line2d_20">
      <path clip-path="url(#pfd6a83a59a)" d="
M462.103 144.847
L462.103 43.2" style="fill:none;stroke:#000000;stroke-dasharray:1.000000,3.000000;stroke-dashoffset:0.0;stroke-linecap:butt;stroke-width:0.5;"/>
     </g>
     <g id="line2d_21">
      <defs>
       <path d="
M0 0
L0 -4" id="me72ca7849d"/>
      </defs>
      <g>
       <use style="stroke:#000000;stroke-linecap:butt;stroke-width:0.5;" x="462.103395618" xlink:href="#me72ca7849d" y="144.847058824"/>
      </g>
     </g>
     <g id="line2d_22">
      <defs>
       <path d="
M0 0
L0 4" id="mc306f472c1"/>
      </defs>
      <g>
       <use style="stroke:#000000;stroke-linecap:butt;stroke-width:0.5;" x="462.103395618" xlink:href="#mc306f472c1" y="43.2"/>
      </g>
     </g>
    </g>
   </g>
   <g id="matplotlib.axis_2">
    <g id="ytick_1">
     <g id="line2d_23">
      <path clip-path="url(#pfd6a83a59a)" d="
M72 144.847
L518.4 144.847" style="fill:none;stroke:#000000;stroke-dasharray:1.000000,3.000000;stroke-dashoffset:0.0;stroke-linecap:butt;stroke-width:0.5;"/>
     </g>
     <g id="line2d_24">
      <defs>
       <path d="
M0 0
L4 0" id="mbe61ed5c84"/>
      </defs>
      <g>
       <use style="stroke:#000000;stroke-linecap:butt;stroke-width:0.5;" x="72.0" xlink:href="#mbe61ed5c84" y="144.847058824"/>
      </g>
     </g>
     <g id="line2d_25">
      <defs>
       <path d="
M0 0
L-4 0" id="me8bd49bbf9"/>
      </defs>
      <g>
       <use style="stroke:#000000;stroke-linecap:butt;stroke-width:0.5;" x="518.4" xlink:href="#me8bd49bbf9" y="144.847058824"/>
      </g>
     </g>
     <g id="text_1">
      <!-- 0 -->
      <defs>
       <path d="
M31.7812 66.4062
Q24.1719 66.4062 20.3281 58.9062
Q16.5 51.4219 16.5 36.375
Q16.5 21.3906 20.3281 13.8906
Q24.1719 6.39062 31.7812 6.39062
Q39.4531 6.39062 43.2812 13.8906
Q47.125 21.3906 47.125 36.375
Q47.125 51.4219 43.2812 58.9062
Q39.4531 66.4062 31.7812 66.4062
M31.7812 74.2188
Q44.0469 74.2188 50.5156 64.5156
Q56.9844 54.8281 56.9844 36.375
Q56.9844 17.9688 50.5156 8.26562
Q44.0469 -1.42188 31.7812 -1.42188
Q19.5312 -1.42188 13.0625 8.26562
Q6.59375 17.9688 6.59375 36.375
Q6.59375 54.8281 13.0625 64.5156
Q19.5312 74.2188 31.7812 74.2188" id="BitstreamVeraSans-Roman-30"/>
      </defs>
      <g transform="translate(61.953125 149.214871324)scale(0.12 -0.12)">
       <use xlink:href="#BitstreamVeraSans-Roman-30"/>
      </g>
     </g>
    </g>
    <g id="ytick_2">
     <g id="line2d_26">
      <path clip-path="url(#pfd6a83a59a)" d="
M72 130.326
L518.4 130.326" style="fill:none;stroke:#000000;stroke-dasharray:1.000000,3.000000;stroke-dashoffset:0.0;stroke-linecap:butt;stroke-width:0.5;"/>
     </g>
     <g id="line2d_27">
      <defs>
       <path d="
M0 0
L4 0" id="mbe61ed5c84"/>
      </defs>
      <g>
       <use style="stroke:#000000;stroke-linecap:butt;stroke-width:0.5;" x="72.0" xlink:href="#mbe61ed5c84" y="130.32605042"/>
      </g>
     </g>
     <g id="line2d_28">
      <defs>
       <path d="
M0 0
L-4 0" id="me8bd49bbf9"/>
      </defs>
      <g>
       <use style="stroke:#000000;stroke-linecap:butt;stroke-width:0.5;" x="518.4" xlink:href="#me8bd49bbf9" y="130.32605042"/>
      </g>
     </g>
     <g id="text_2">
      <!-- 5 -->
      <defs>
       <path d="
M10.7969 72.9062
L49.5156 72.9062
L49.5156 64.5938
L19.8281 64.5938
L19.8281 46.7344
Q21.9688 47.4688 24.1094 47.8281
Q26.2656 48.1875 28.4219 48.1875
Q40.625 48.1875 47.75 41.5
Q54.8906 34.8125 54.8906 23.3906
Q54.8906 11.625 47.5625 5.09375
Q40.2344 -1.42188 26.9062 -1.42188
Q22.3125 -1.42188 17.5469 -0.640625
Q12.7969 0.140625 7.71875 1.70312
L7.71875 11.625
Q12.1094 9.23438 16.7969 8.0625
Q21.4844 6.89062 26.7031 6.89062
Q35.1562 6.89062 40.0781 11.3281
Q45.0156 15.7656 45.0156 23.3906
Q45.0156 31 40.0781 35.4375
Q35.1562 39.8906 26.7031 39.8906
Q22.75 39.8906 18.8125 39.0156
Q14.8906 38.1406 10.7969 36.2812
z
" id="BitstreamVeraSans-Roman-35"/>
      </defs>
      <g transform="translate(62.339375 134.61511292)scale(0.12 -0.12)">
       <use xlink:href="#BitstreamVeraSans-Roman-35"/>
      </g>
     </g>
    </g>
    <g id="ytick_3">
     <g id="line2d_29">
      <path clip-path="url(#pfd6a83a59a)" d="
M72 115.805
L518.4 115.805" style="fill:none;stroke:#000000;stroke-dasharray:1.000000,3.000000;stroke-dashoffset:0.0;stroke-linecap:butt;stroke-width:0.5;"/>
     </g>
     <g id="line2d_30">
      <defs>
       <path d="
M0 0
L4 0" id="mbe61ed5c84"/>
      </defs>
      <g>
       <use style="stroke:#000000;stroke-linecap:butt;stroke-width:0.5;" x="72.0" xlink:href="#mbe61ed5c84" y="115.805042017"/>
      </g>
     </g>
     <g id="line2d_31">
      <defs>
       <path d="
M0 0
L-4 0" id="me8bd49bbf9"/>
      </defs>
      <g>
       <use style="stroke:#000000;stroke-linecap:butt;stroke-width:0.5;" x="518.4" xlink:href="#me8bd49bbf9" y="115.805042017"/>
      </g>
     </g>
     <g id="text_3">
      <!-- 10 -->
      <defs>
       <path d="
M12.4062 8.29688
L28.5156 8.29688
L28.5156 63.9219
L10.9844 60.4062
L10.9844 69.3906
L28.4219 72.9062
L38.2812 72.9062
L38.2812 8.29688
L54.3906 8.29688
L54.3906 0
L12.4062 0
z
" id="BitstreamVeraSans-Roman-31"/>
      </defs>
      <g transform="translate(54.845 120.172854517)scale(0.12 -0.12)">
       <use xlink:href="#BitstreamVeraSans-Roman-31"/>
       <use x="63.623046875" xlink:href="#BitstreamVeraSans-Roman-30"/>
      </g>
     </g>
    </g>
    <g id="ytick_4">
     <g id="line2d_32">
      <path clip-path="url(#pfd6a83a59a)" d="
M72 101.284
L518.4 101.284" style="fill:none;stroke:#000000;stroke-dasharray:1.000000,3.000000;stroke-dashoffset:0.0;stroke-linecap:butt;stroke-width:0.5;"/>
     </g>
     <g id="line2d_33">
      <defs>
       <path d="
M0 0
L4 0" id="mbe61ed5c84"/>
      </defs>
      <g>
       <use style="stroke:#000000;stroke-linecap:butt;stroke-width:0.5;" x="72.0" xlink:href="#mbe61ed5c84" y="101.284033613"/>
      </g>
     </g>
     <g id="line2d_34">
      <defs>
       <path d="
M0 0
L-4 0" id="me8bd49bbf9"/>
      </defs>
      <g>
       <use style="stroke:#000000;stroke-linecap:butt;stroke-width:0.5;" x="518.4" xlink:href="#me8bd49bbf9" y="101.284033613"/>
      </g>
     </g>
     <g id="text_4">
      <!-- 15 -->
      <g transform="translate(55.09625 105.573096113)scale(0.12 -0.12)">
       <use xlink:href="#BitstreamVeraSans-Roman-31"/>
       <use x="63.623046875" xlink:href="#BitstreamVeraSans-Roman-35"/>
      </g>
     </g>
    </g>
    <g id="ytick_5">
     <g id="line2d_35">
      <path clip-path="url(#pfd6a83a59a)" d="
M72 86.763
L518.4 86.763" style="fill:none;stroke:#000000;stroke-dasharray:1.000000,3.000000;stroke-dashoffset:0.0;stroke-linecap:butt;stroke-width:0.5;"/>
     </g>
     <g id="line2d_36">
      <defs>
       <path d="
M0 0
L4 0" id="mbe61ed5c84"/>
      </defs>
      <g>
       <use style="stroke:#000000;stroke-linecap:butt;stroke-width:0.5;" x="72.0" xlink:href="#mbe61ed5c84" y="86.7630252101"/>
      </g>
     </g>
     <g id="line2d_37">
      <defs>
       <path d="
M0 0
L-4 0" id="me8bd49bbf9"/>
      </defs>
      <g>
       <use style="stroke:#000000;stroke-linecap:butt;stroke-width:0.5;" x="518.4" xlink:href="#me8bd49bbf9" y="86.7630252101"/>
      </g>
     </g>
     <g id="text_5">
      <!-- 20 -->
      <defs>
       <path d="
M19.1875 8.29688
L53.6094 8.29688
L53.6094 0
L7.32812 0
L7.32812 8.29688
Q12.9375 14.1094 22.625 23.8906
Q32.3281 33.6875 34.8125 36.5312
Q39.5469 41.8438 41.4219 45.5312
Q43.3125 49.2188 43.3125 52.7812
Q43.3125 58.5938 39.2344 62.25
Q35.1562 65.9219 28.6094 65.9219
Q23.9688 65.9219 18.8125 64.3125
Q13.6719 62.7031 7.8125 59.4219
L7.8125 69.3906
Q13.7656 71.7812 18.9375 73
Q24.125 74.2188 28.4219 74.2188
Q39.75 74.2188 46.4844 68.5469
Q53.2188 62.8906 53.2188 53.4219
Q53.2188 48.9219 51.5312 44.8906
Q49.8594 40.875 45.4062 35.4062
Q44.1875 33.9844 37.6406 27.2188
Q31.1094 20.4531 19.1875 8.29688" id="BitstreamVeraSans-Roman-32"/>
      </defs>
      <g transform="translate(54.40625 91.1308377101)scale(0.12 -0.12)">
       <use xlink:href="#BitstreamVeraSans-Roman-32"/>
       <use x="63.623046875" xlink:href="#BitstreamVeraSans-Roman-30"/>
      </g>
     </g>
    </g>
    <g id="ytick_6">
     <g id="line2d_38">
      <path clip-path="url(#pfd6a83a59a)" d="
M72 72.242
L518.4 72.242" style="fill:none;stroke:#000000;stroke-dasharray:1.000000,3.000000;stroke-dashoffset:0.0;stroke-linecap:butt;stroke-width:0.5;"/>
     </g>
     <g id="line2d_39">
      <defs>
       <path d="
M0 0
L4 0" id="mbe61ed5c84"/>
      </defs>
      <g>
       <use style="stroke:#000000;stroke-linecap:butt;stroke-width:0.5;" x="72.0" xlink:href="#mbe61ed5c84" y="72.2420168067"/>
      </g>
     </g>
     <g id="line2d_40">
      <defs>
       <path d="
M0 0
L-4 0" id="me8bd49bbf9"/>
      </defs>
      <g>
       <use style="stroke:#000000;stroke-linecap:butt;stroke-width:0.5;" x="518.4" xlink:href="#me8bd49bbf9" y="72.2420168067"/>
      </g>
     </g>
     <g id="text_6">
      <!-- 25 -->
      <g transform="translate(54.6575 76.6098293067)scale(0.12 -0.12)">
       <use xlink:href="#BitstreamVeraSans-Roman-32"/>
       <use x="63.623046875" xlink:href="#BitstreamVeraSans-Roman-35"/>
      </g>
     </g>
    </g>
    <g id="ytick_7">
     <g id="line2d_41">
      <path clip-path="url(#pfd6a83a59a)" d="
M72 57.721
L518.4 57.721" style="fill:none;stroke:#000000;stroke-dasharray:1.000000,3.000000;stroke-dashoffset:0.0;stroke-linecap:butt;stroke-width:0.5;"/>
     </g>
     <g id="line2d_42">
      <defs>
       <path d="
M0 0
L4 0" id="mbe61ed5c84"/>
      </defs>
      <g>
       <use style="stroke:#000000;stroke-linecap:butt;stroke-width:0.5;" x="72.0" xlink:href="#mbe61ed5c84" y="57.7210084034"/>
      </g>
     </g>
     <g id="line2d_43">
      <defs>
       <path d="
M0 0
L-4 0" id="me8bd49bbf9"/>
      </defs>
      <g>
       <use style="stroke:#000000;stroke-linecap:butt;stroke-width:0.5;" x="518.4" xlink:href="#me8bd49bbf9" y="57.7210084034"/>
      </g>
     </g>
     <g id="text_7">
      <!-- 30 -->
      <defs>
       <path d="
M40.5781 39.3125
Q47.6562 37.7969 51.625 33
Q55.6094 28.2188 55.6094 21.1875
Q55.6094 10.4062 48.1875 4.48438
Q40.7656 -1.42188 27.0938 -1.42188
Q22.5156 -1.42188 17.6562 -0.515625
Q12.7969 0.390625 7.625 2.20312
L7.625 11.7188
Q11.7188 9.32812 16.5938 8.10938
Q21.4844 6.89062 26.8125 6.89062
Q36.0781 6.89062 40.9375 10.5469
Q45.7969 14.2031 45.7969 21.1875
Q45.7969 27.6406 41.2812 31.2656
Q36.7656 34.9062 28.7188 34.9062
L20.2188 34.9062
L20.2188 43.0156
L29.1094 43.0156
Q36.375 43.0156 40.2344 45.9219
Q44.0938 48.8281 44.0938 54.2969
Q44.0938 59.9062 40.1094 62.9062
Q36.1406 65.9219 28.7188 65.9219
Q24.6562 65.9219 20.0156 65.0312
Q15.375 64.1562 9.8125 62.3125
L9.8125 71.0938
Q15.4375 72.6562 20.3438 73.4375
Q25.25 74.2188 29.5938 74.2188
Q40.8281 74.2188 47.3594 69.1094
Q53.9062 64.0156 53.9062 55.3281
Q53.9062 49.2656 50.4375 45.0938
Q46.9688 40.9219 40.5781 39.3125" id="BitstreamVeraSans-Roman-33"/>
      </defs>
      <g transform="translate(54.441875 62.0888209034)scale(0.12 -0.12)">
       <use xlink:href="#BitstreamVeraSans-Roman-33"/>
       <use x="63.623046875" xlink:href="#BitstreamVeraSans-Roman-30"/>
      </g>
     </g>
    </g>
    <g id="ytick_8">
     <g id="line2d_44">
      <path clip-path="url(#pfd6a83a59a)" d="
M72 43.2
L518.4 43.2" style="fill:none;stroke:#000000;stroke-dasharray:1.000000,3.000000;stroke-dashoffset:0.0;stroke-linecap:butt;stroke-width:0.5;"/>
     </g>
     <g id="line2d_45">
      <defs>
       <path d="
M0 0
L4 0" id="mbe61ed5c84"/>
      </defs>
      <g>
       <use style="stroke:#000000;stroke-linecap:butt;stroke-width:0.5;" x="72.0" xlink:href="#mbe61ed5c84" y="43.2"/>
      </g>
     </g>
     <g id="line2d_46">
      <defs>
       <path d="
M0 0
L-4 0" id="me8bd49bbf9"/>
      </defs>
      <g>
       <use style="stroke:#000000;stroke-linecap:butt;stroke-width:0.5;" x="518.4" xlink:href="#me8bd49bbf9" y="43.2"/>
      </g>
     </g>
     <g id="text_8">
      <!-- 35 -->
      <g transform="translate(54.693125 47.5678125)scale(0.12 -0.12)">
       <use xlink:href="#BitstreamVeraSans-Roman-33"/>
       <use x="63.623046875" xlink:href="#BitstreamVeraSans-Roman-35"/>
      </g>
     </g>
    </g>
    <g id="text_9">
     <!-- Temperature (C) -->
     <defs>
      <path id="BitstreamVeraSans-Roman-20"/>
      <path d="
M41.1094 46.2969
Q39.5938 47.1719 37.8125 47.5781
Q36.0312 48 33.8906 48
Q26.2656 48 22.1875 43.0469
Q18.1094 38.0938 18.1094 28.8125
L18.1094 0
L9.07812 0
L9.07812 54.6875
L18.1094 54.6875
L18.1094 46.1875
Q20.9531 51.1719 25.4844 53.5781
Q30.0312 56 36.5312 56
Q37.4531 56 38.5781 55.875
Q39.7031 55.7656 41.0625 55.5156
z
" id="BitstreamVeraSans-Roman-72"/>
      <path d="
M52 44.1875
Q55.375 50.25 60.0625 53.125
Q64.75 56 71.0938 56
Q79.6406 56 84.2812 50.0156
Q88.9219 44.0469 88.9219 33.0156
L88.9219 0
L79.8906 0
L79.8906 32.7188
Q79.8906 40.5781 77.0938 44.375
Q74.3125 48.1875 68.6094 48.1875
Q61.625 48.1875 57.5625 43.5469
Q53.5156 38.9219 53.5156 30.9062
L53.5156 0
L44.4844 0
L44.4844 32.7188
Q44.4844 40.625 41.7031 44.4062
Q38.9219 48.1875 33.1094 48.1875
Q26.2188 48.1875 22.1562 43.5312
Q18.1094 38.875 18.1094 30.9062
L18.1094 0
L9.07812 0
L9.07812 54.6875
L18.1094 54.6875
L18.1094 46.1875
Q21.1875 51.2188 25.4844 53.6094
Q29.7812 56 35.6875 56
Q41.6562 56 45.8281 52.9688
Q50 49.9531 52 44.1875" id="BitstreamVeraSans-Roman-6d"/>
      <path d="
M8.01562 75.875
L15.8281 75.875
Q23.1406 64.3594 26.7812 53.3125
Q30.4219 42.2812 30.4219 31.3906
Q30.4219 20.4531 26.7812 9.375
Q23.1406 -1.70312 15.8281 -13.1875
L8.01562 -13.1875
Q14.5 -2 17.7031 9.0625
Q20.9062 20.125 20.9062 31.3906
Q20.9062 42.6719 17.7031 53.6562
Q14.5 64.6562 8.01562 75.875" id="BitstreamVeraSans-Roman-29"/>
      <path d="
M-0.296875 72.9062
L61.375 72.9062
L61.375 64.5938
L35.5 64.5938
L35.5 0
L25.5938 0
L25.5938 64.5938
L-0.296875 64.5938
z
" id="BitstreamVeraSans-Roman-54"/>
      <path d="
M31 75.875
Q24.4688 64.6562 21.2812 53.6562
Q18.1094 42.6719 18.1094 31.3906
Q18.1094 20.125 21.3125 9.0625
Q24.5156 -2 31 -13.1875
L23.1875 -13.1875
Q15.875 -1.70312 12.2344 9.375
Q8.59375 20.4531 8.59375 31.3906
Q8.59375 42.2812 12.2031 53.3125
Q15.8281 64.3594 23.1875 75.875
z
" id="BitstreamVeraSans-Roman-28"/>
      <path d="
M56.2031 29.5938
L56.2031 25.2031
L14.8906 25.2031
Q15.4844 15.9219 20.4844 11.0625
Q25.4844 6.20312 34.4219 6.20312
Q39.5938 6.20312 44.4531 7.46875
Q49.3125 8.73438 54.1094 11.2812
L54.1094 2.78125
Q49.2656 0.734375 44.1875 -0.34375
Q39.1094 -1.42188 33.8906 -1.42188
Q20.7969 -1.42188 13.1562 6.1875
Q5.51562 13.8125 5.51562 26.8125
Q5.51562 40.2344 12.7656 48.1094
Q20.0156 56 32.3281 56
Q43.3594 56 49.7812 48.8906
Q56.2031 41.7969 56.2031 29.5938
M47.2188 32.2344
Q47.125 39.5938 43.0938 43.9844
Q39.0625 48.3906 32.4219 48.3906
Q24.9062 48.3906 20.3906 44.1406
Q15.875 39.8906 15.1875 32.1719
z
" id="BitstreamVeraSans-Roman-65"/>
      <path d="
M64.4062 67.2812
L64.4062 56.8906
Q59.4219 61.5312 53.7812 63.8125
Q48.1406 66.1094 41.7969 66.1094
Q29.2969 66.1094 22.6562 58.4688
Q16.0156 50.8281 16.0156 36.375
Q16.0156 21.9688 22.6562 14.3281
Q29.2969 6.6875 41.7969 6.6875
Q48.1406 6.6875 53.7812 8.98438
Q59.4219 11.2812 64.4062 15.9219
L64.4062 5.60938
Q59.2344 2.09375 53.4375 0.328125
Q47.6562 -1.42188 41.2188 -1.42188
Q24.6562 -1.42188 15.125 8.70312
Q5.60938 18.8438 5.60938 36.375
Q5.60938 53.9531 15.125 64.0781
Q24.6562 74.2188 41.2188 74.2188
Q47.75 74.2188 53.5312 72.4844
Q59.3281 70.75 64.4062 67.2812" id="BitstreamVeraSans-Roman-43"/>
      <path d="
M18.3125 70.2188
L18.3125 54.6875
L36.8125 54.6875
L36.8125 47.7031
L18.3125 47.7031
L18.3125 18.0156
Q18.3125 11.3281 20.1406 9.42188
Q21.9688 7.51562 27.5938 7.51562
L36.8125 7.51562
L36.8125 0
L27.5938 0
Q17.1875 0 13.2344 3.875
Q9.28125 7.76562 9.28125 18.0156
L9.28125 47.7031
L2.6875 47.7031
L2.6875 54.6875
L9.28125 54.6875
L9.28125 70.2188
z
" id="BitstreamVeraSans-Roman-74"/>
      <path d="
M8.5 21.5781
L8.5 54.6875
L17.4844 54.6875
L17.4844 21.9219
Q17.4844 14.1562 20.5 10.2656
Q23.5312 6.39062 29.5938 6.39062
Q36.8594 6.39062 41.0781 11.0312
Q45.3125 15.6719 45.3125 23.6875
L45.3125 54.6875
L54.2969 54.6875
L54.2969 0
L45.3125 0
L45.3125 8.40625
Q42.0469 3.42188 37.7188 1
Q33.4062 -1.42188 27.6875 -1.42188
Q18.2656 -1.42188 13.375 4.4375
Q8.5 10.2969 8.5 21.5781" id="BitstreamVeraSans-Roman-75"/>
      <path d="
M34.2812 27.4844
Q23.3906 27.4844 19.1875 25
Q14.9844 22.5156 14.9844 16.5
Q14.9844 11.7188 18.1406 8.90625
Q21.2969 6.10938 26.7031 6.10938
Q34.1875 6.10938 38.7031 11.4062
Q43.2188 16.7031 43.2188 25.4844
L43.2188 27.4844
z

M52.2031 31.2031
L52.2031 0
L43.2188 0
L43.2188 8.29688
Q40.1406 3.32812 35.5469 0.953125
Q30.9531 -1.42188 24.3125 -1.42188
Q15.9219 -1.42188 10.9531 3.29688
Q6 8.01562 6 15.9219
Q6 25.1406 12.1719 29.8281
Q18.3594 34.5156 30.6094 34.5156
L43.2188 34.5156
L43.2188 35.4062
Q43.2188 41.6094 39.1406 45
Q35.0625 48.3906 27.6875 48.3906
Q23 48.3906 18.5469 47.2656
Q14.1094 46.1406 10.0156 43.8906
L10.0156 52.2031
Q14.9375 54.1094 19.5781 55.0469
Q24.2188 56 28.6094 56
Q40.4844 56 46.3438 49.8438
Q52.2031 43.7031 52.2031 31.2031" id="BitstreamVeraSans-Roman-61"/>
      <path d="
M18.1094 8.20312
L18.1094 -20.7969
L9.07812 -20.7969
L9.07812 54.6875
L18.1094 54.6875
L18.1094 46.3906
Q20.9531 51.2656 25.2656 53.625
Q29.5938 56 35.5938 56
Q45.5625 56 51.7812 48.0938
Q58.0156 40.1875 58.0156 27.2969
Q58.0156 14.4062 51.7812 6.48438
Q45.5625 -1.42188 35.5938 -1.42188
Q29.5938 -1.42188 25.2656 0.953125
Q20.9531 3.32812 18.1094 8.20312
M48.6875 27.2969
Q48.6875 37.2031 44.6094 42.8438
Q40.5312 48.4844 33.4062 48.4844
Q26.2656 48.4844 22.1875 42.8438
Q18.1094 37.2031 18.1094 27.2969
Q18.1094 17.3906 22.1875 11.75
Q26.2656 6.10938 33.4062 6.10938
Q40.5312 6.10938 44.6094 11.75
Q48.6875 17.3906 48.6875 27.2969" id="BitstreamVeraSans-Roman-70"/>
     </defs>
     <g transform="translate(49.40625 139.811966912)rotate(-90.0)scale(0.12 -0.12)">
      <use xlink:href="#BitstreamVeraSans-Roman-54"/>
      <use x="44.083984375" xlink:href="#BitstreamVeraSans-Roman-65"/>
      <use x="105.607421875" xlink:href="#BitstreamVeraSans-Roman-6d"/>
      <use x="203.01953125" xlink:href="#BitstreamVeraSans-Roman-70"/>
      <use x="266.49609375" xlink:href="#BitstreamVeraSans-Roman-65"/>
      <use x="328.01953125" xlink:href="#BitstreamVeraSans-Roman-72"/>
      <use x="369.1328125" xlink:href="#BitstreamVeraSans-Roman-61"/>
      <use x="430.412109375" xlink:href="#BitstreamVeraSans-Roman-74"/>
      <use x="469.62109375" xlink:href="#BitstreamVeraSans-Roman-75"/>
      <use x="533.0" xlink:href="#BitstreamVeraSans-Roman-72"/>
      <use x="571.86328125" xlink:href="#BitstreamVeraSans-Roman-65"/>
      <use x="633.38671875" xlink:href="#BitstreamVeraSans-Roman-20"/>
      <use x="665.173828125" xlink:href="#BitstreamVeraSans-Roman-28"/>
      <use x="704.1875" xlink:href="#BitstreamVeraSans-Roman-43"/>
      <use x="774.01171875" xlink:href="#BitstreamVeraSans-Roman-29"/>
     </g>
    </g>
   </g>
   <g id="patch_3">
    <path d="
M72 43.2
L518.4 43.2" style="fill:none;stroke:#000000;"/>
   </g>
   <g id="patch_4">
    <path d="
M518.4 144.847
L518.4 43.2" style="fill:none;stroke:#000000;"/>
   </g>
   <g id="patch_5">
    <path d="
M72 144.847
L518.4 144.847" style="fill:none;stroke:#000000;"/>
   </g>
   <g id="patch_6">
    <path d="
M72 144.847
L72 43.2" style="fill:none;stroke:#000000;"/>
   </g>
  </g>
  <g id="axes_2">
   <g id="patch_7">
    <path d="
M72 388.8
L518.4 388.8
L518.4 165.176
L72 165.176
z
" style="fill:#ffffff;"/>
   </g>
   <g id="line2d_47">
    <path clip-path="url(#p97f0b5ab72)" d="
M72 362.14
L72.4418 362.213
L72.8835 362.182
L75.5245 362.113
L76.8446 362.117
L77.7237 362.032
L79.4827 362.152
L80.3625 362.213
L81.2416 362.342
L83.0013 362.375
L84.7632 362.526
L86.5273 362.578
L86.8936 362.702
L89.6781 362.806
L90.5616 362.966
L91.4429 362.962
L92.3228 363.079
L92.7631 363.024
L94.0825 363.263
L98.9234 363.61
L99.8055 363.783
L101.126 363.928
L102.008 364.287
L102.887 364.632
L103.328 364.985
L103.77 365.162
L104.21 365.088
L104.65 365.498
L105.531 365.801
L106.854 364.88
L107.295 364.858
L107.735 364.673
L108.179 364.361
L108.617 364.311
L109.061 363.654
L109.501 364.148
L110.383 364.28
L110.827 364.618
L111.267 364.396
L111.707 363.158
L112.147 363.058
L112.594 363.54
L113.473 364.18
L114.353 364.041
L114.794 363.941
L115.234 363.521
L115.676 363.425
L116.117 363.686
L116.561 363.261
L116.999 362.3
L117.44 362.248
L119.201 362.565
L119.64 362.4
L120.081 362.006
L120.521 361.173
L120.96 361.202
L121.401 361.104
L121.84 360.716
L122.722 360.424
L123.607 359.399
L124.048 359.246
L125.368 357.444
L125.809 357.142
L126.691 355.998
L127.571 354.99
L128.012 354.528
L128.891 354.27
L129.332 353.667
L130.215 353.255
L131.535 353.081
L131.976 352.95
L135.499 353.278
L135.939 353.487
L136.379 353.372
L138.145 353.522
L141.671 353.435
L142.113 353.521
L142.554 353.358
L143.436 353.481
L144.757 353.388
L146.078 353.524
L146.959 353.497
L150.043 353.592
L150.924 353.734
L166.226 355.041
L166.797 354.993
L168.122 355.232
L168.563 355.21
L169.004 355.348
L169.445 355.298
L169.886 355.408
L170.768 355.364
L171.649 355.461
L173.856 355.288
L175.619 355.42
L179.585 355.725
L180.466 355.872
L180.906 355.824
L182.669 356.034
L184.872 356.169
L185.312 356.26
L185.754 356.182
L186.636 356.211
L188.4 356.388
L188.841 356.464
L191.41 356.152
L194.747 355.716
L195.187 355.805
L195.63 355.643
L196.952 355.536
L198.274 355.215
L200.482 355.386
L201.365 355.423
L206.219 355.47
L207.101 355.577
L207.985 355.54
L208.425 355.614
L208.867 355.497
L211.952 355.707
L213.277 355.719
L215.921 355.869
L216.361 355.992
L217.243 355.876
L219.446 356.055
L220.328 356.093
L221.651 356.165
L222.092 356.064
L222.974 356.149
L223.856 356.049
L224.739 356.195
L225.18 356.081
L225.619 356.253
L227.382 356.181
L227.821 356.347
L228.262 356.263
L230.023 356.583
L230.905 356.165
L231.788 356.923
L233.109 357.493
L233.551 357.377
L233.992 357.432
L234.874 356.97
L236.197 356.294
L236.637 355.349
L237.08 354.971
L237.521 355.726
L238.403 358.13
L238.748 358.627
L241.092 356.922
L241.974 357.55
L242.855 357.134
L243.295 356.664
L243.737 355.591
L244.177 355.029
L244.616 353.653
L245.058 352.647
L245.5 353.74
L245.94 353.201
L246.38 353.062
L246.822 352.789
L247.263 352.016
L247.704 351.73
L248.145 350.241
L248.585 349.304
L249.026 349.025
L249.467 349.153
L250.35 349.154
L250.789 349.681
L251.23 350.03
L252.115 348.97
L252.556 348.895
L252.995 348.533
L254.315 346.075
L255.197 345.111
L255.636 344.274
L256.078 343.824
L256.517 343.007
L256.957 342.732
L257.397 342.755
L257.838 342.534
L259.163 341.23
L261.364 341.196
L263.13 341.194
L264.012 341.251
L264.893 341.226
L265.336 341.266
L265.775 341.164
L266.657 341.205
L267.539 341.152
L268.863 341.325
L269.744 341.334
L270.185 341.472
L270.626 341.403
L271.066 341.521
L272.84 341.558
L277.254 341.961
L277.696 341.873
L279.017 342.041
L279.457 342.003
L281.224 342.239
L286.951 342.648
L287.39 342.868
L288.274 342.902
L290.477 343.655
L291.816 343.82
L292.256 343.926
L292.697 343.859
L294.463 342.952
L294.903 342.491
L295.342 342.266
L295.786 341.714
L296.671 340.94
L297.113 340.498
L297.993 340.278
L298.874 339.602
L299.314 339.564
L299.756 339.838
L301.077 341.264
L301.518 341.232
L301.959 341.343
L302.84 340.82
L303.722 340.718
L304.161 340.322
L304.603 340.124
L305.043 339.756
L306.366 339.551
L307.695 339.013
L308.548 338.161
L309.032 337.519
L309.483 337.274
L309.933 337.309
L310.384 336.367
L310.835 335.809
L311.285 335.007
L311.736 334.449
L312.185 334.1
L312.635 333.577
L313.084 332.495
L313.534 330.995
L314.435 329.181
L315.336 327.193
L316.688 325.344
L317.139 324.297
L318.489 322.239
L318.939 322.169
L319.839 321.157
L320.289 321.053
L320.739 320.669
L321.167 320.502
L321.658 320.037
L322.631 319.902
L323.116 319.528
L323.53 319.657
L324.43 319.623
L324.881 319.657
L325.332 319.413
L325.782 319.692
L326.231 320.111
L326.681 320.32
L327.131 320.041
L327.581 320.285
L328.032 320.355
L328.483 320.111
L328.933 320.53
L329.384 320.25
L329.835 320.355
L330.286 320.599
L331.186 320.495
L331.636 320.704
L332.086 320.599
L332.535 320.669
L332.985 321.018
L333.886 320.878
L334.338 321.157
L334.788 321.227
L335.239 321.157
L335.689 321.402
L336.14 321.053
L336.589 321.367
L337.488 321.716
L337.938 321.437
L339.288 322.134
L339.737 321.89
L340.636 322.378
L341.086 322.169
L342.436 322.658
L342.885 322.378
L343.334 322.797
L343.785 322.588
L344.236 322.902
L345.137 322.727
L345.587 323.041
L346.038 323.181
L346.939 323.285
L347.388 323.425
L347.838 323.285
L348.287 323.565
L349.188 323.39
L349.638 323.634
L350.986 323.669
L351.436 323.844
L351.886 324.227
L352.336 323.948
L353.237 323.913
L355.936 324.541
L356.387 325.03
L356.838 324.786
L357.739 324.96
L358.19 325.518
L358.64 325.483
L359.091 325.658
L359.541 325.588
L359.991 325.379
L360.441 325.902
L360.892 326.634
L361.342 326.983
L361.792 326.844
L362.692 327.262
L363.594 327.751
L364.044 327.716
L364.495 327.89
L364.945 327.751
L365.396 327.89
L365.846 327.018
L366.297 326.565
L366.748 326.565
L367.648 327.611
L368.098 327.855
L368.549 327.262
L369 327.053
L369.901 325.832
L370.352 325.483
L370.803 324.96
L371.253 324.646
L371.704 324.123
L372.154 323.844
L372.604 323.739
L373.054 324.262
L373.505 323.111
L373.955 322.448
L374.405 322.971
L374.854 322.448
L375.304 321.471
L376.204 321.262
L376.653 320.843
L377.104 321.681
L377.553 321.227
L378.003 320.076
L378.453 317.983
L379.354 315.227
L379.805 314.739
L382.058 311.006
L382.508 310.552
L382.957 310.483
L383.406 309.959
L383.856 309.227
L384.306 309.052
L384.757 308.355
L385.206 308.006
L385.656 308.11
L386.107 307.343
L386.558 307.238
L387.009 306.715
L387.459 306.61
L387.909 306.122
L388.359 306.052
L389.71 306.541
L390.162 306.017
L390.611 306.436
L391.962 306.575
L392.413 306.924
L393.313 306.994
L393.763 306.854
L394.213 307.064
L395.112 306.959
L395.562 307.099
L396.012 307.064
L396.462 307.343
L397.361 307.029
L397.811 307.273
L398.26 307.238
L398.711 307.692
L399.161 307.413
L399.612 307.552
L400.063 307.517
L400.512 307.762
L400.962 307.727
L401.412 307.866
L401.862 307.692
L403.212 308.215
L403.661 308.041
L405.01 308.145
L405.46 308.529
L406.359 308.25
L406.809 308.634
L407.259 308.738
L407.709 308.564
L408.158 308.738
L408.608 309.052
L409.058 308.913
L409.508 309.436
L409.957 309.017
L411.758 309.68
L412.659 309.471
L413.111 309.82
L414.012 309.785
L414.462 309.959
L414.911 309.855
L417.612 310.622
L418.063 310.971
L418.513 311.041
L418.963 311.39
L419.391 311.975
L419.953 312.401
L420.403 312.192
L421.304 312.785
L421.754 312.785
L422.204 313.204
L422.654 312.471
L423.104 312.541
L423.555 312.959
L424.005 312.925
L424.456 313.169
L424.905 313.273
L425.355 312.611
L425.805 312.925
L426.255 311.773
L426.705 312.576
L428.056 312.297
L428.507 311.424
L429.407 310.587
L430.307 309.017
L430.756 309.192
L431.657 308.738
L432.107 309.087
L433.007 311.285
L433.458 310.308
L433.909 309.645
L434.359 309.436
L434.81 308.599
L435.261 308.459
L435.711 308.041
L436.162 306.924
L436.612 306.401
L438.413 303.575
L438.864 302.982
L439.315 301.343
L439.765 300.645
L440.666 297.505
L442.018 293.354
L442.917 291.331
L443.367 289.83
L443.816 289.551
L444.718 287.737
L445.167 287.284
L446.067 285.574
L446.518 284.842
L447.419 284.702
L447.868 284.074
L448.318 282.923
L448.768 282.47
L449.218 282.295
L449.668 282.784
L450.117 281.807
L450.567 281.772
L451.016 282.156
L451.466 281.946
L451.924 281.896
L452.367 282.26
L452.818 282.121
L453.268 282.156
L453.718 282.714
L454.169 282.33
L454.619 282.644
L455.068 282.295
L455.518 282.888
L455.969 282.749
L456.42 282.749
L457.32 282.4
L457.77 282.644
L458.22 282.4
L458.67 282.47
L459.12 282.4
L459.57 282.121
L460.92 282.051
L461.821 281.842
L462.272 281.772
L462.722 282.225
L464.075 282.121
L464.976 282.226
L465.426 282.156
L465.877 282.26
L466.327 281.981
L466.777 281.912
L467.226 282.156
L467.676 282.086
L468.125 281.772
L468.575 281.946
L469.025 281.912
L469.926 282.156
L470.376 281.632
L470.825 281.563
L471.275 281.702
L471.724 281.493
L472.174 281.563
L472.624 281.807
L473.976 281.598
L474.426 281.353
L474.877 281.458
L475.327 281.877
L475.777 281.632
L476.227 282.26
L477.129 282.191
L478.028 282.295
L478.478 282.191
L478.927 282.26
L479.828 282.819
L480.279 282.958
L480.729 283.237
L481.631 283.516
L482.082 283.412
L482.983 283.76
L483.885 283.656
L484.335 283.97
L485.236 284.144
L485.687 283.621
L486.137 283.586
L486.587 283.9
L487.487 283.935
L487.937 284.353
L488.387 284.249
L489.287 285.261
L490.188 285.505
L490.639 285.714
L491.089 285.47
L491.54 285.54
L492.889 286.97
L493.34 287.319
L493.79 287.458
L494.241 288.086
L494.691 287.668
L495.142 288.016
L495.592 287.807
L496.042 286.9
L496.493 286.377
L496.944 286.237
L497.394 285.784
L497.845 286.028
L498.295 285.47
L498.745 285.679
L499.194 285.295
L499.644 285.958
L500.095 285.644
L500.545 285.644
L500.996 286.272
L501.446 285.923
L502.345 286.586
L502.795 286.9
L503.244 286.726
L503.694 287.075
L504.594 286.098
L505.043 285.819
L505.494 285.749
L505.945 285.226
L506.846 284.598
L507.297 283.795
L508.198 282.819
L509.1 282.016
L509.55 282.016
L510.001 280.9
L510.451 280.377
L510.902 280.237
L512.705 278.283
L513.155 277.969
L513.604 277.9
L514.054 278.004
L514.505 277.83
L514.955 278.388
L515.406 278.004
L516.306 278.179
L516.757 278.039
L517.207 278.353
L517.658 278.423
L518.108 278.318
L518.4 277.981
L518.4 277.981" style="fill:none;stroke:#008000;stroke-width:0.5;"/>
   </g>
   <g id="line2d_48">
    <path clip-path="url(#p97f0b5ab72)" d="
M72 300.407
L72.4418 300.442
L72.8835 300.593
L73.7641 300.702
L74.2036 300.786
L74.6454 300.726
L75.5245 300.829
L76.8446 300.89
L78.1633 301.123
L79.0431 301.065
L79.4827 301.252
L80.3625 301.365
L81.6812 301.611
L82.1222 301.699
L82.561 301.669
L85.643 302.321
L86.0848 302.279
L86.5273 302.398
L86.8936 302.342
L88.3558 302.612
L88.7968 302.631
L89.2371 302.861
L89.6781 302.859
L90.1199 302.98
L90.5616 302.955
L91.8832 303.207
L92.3228 303.168
L92.7631 303.391
L93.2026 303.307
L94.9623 303.675
L95.4019 303.633
L97.6026 304.47
L98.0428 304.896
L99.3652 305.353
L100.246 305.72
L100.686 305.432
L101.126 305.523
L102.008 306.248
L102.447 306.406
L103.77 307.205
L104.21 307.37
L104.65 308.068
L105.531 307.736
L105.972 307.742
L106.854 306.773
L107.295 306.711
L108.617 305.397
L109.061 304.592
L109.501 305.221
L110.383 305.18
L110.827 305.498
L111.267 305.13
L111.707 304.523
L112.594 304.249
L113.473 304.922
L114.353 304.728
L115.234 303.691
L116.117 303.672
L116.561 302.666
L117.88 302.712
L118.32 302.515
L118.76 302.651
L119.201 302.612
L122.722 299.278
L123.607 297.993
L124.048 297.751
L124.927 296.506
L125.809 295.811
L127.571 292.466
L128.891 290.687
L129.332 289.15
L130.215 287.583
L131.535 286.426
L132.855 286.123
L135.058 286.465
L142.113 287.786
L144.317 287.857
L144.757 288.009
L145.197 287.967
L146.518 288.296
L146.959 288.259
L151.366 289.287
L151.808 289.237
L152.69 289.527
L155.775 290.086
L156.216 290.289
L157.098 290.368
L157.98 290.554
L158.42 290.8
L160.181 291.081
L160.624 291.339
L163.268 292.095
L163.708 291.678
L164.148 291.475
L164.588 291.975
L165.028 292.105
L165.909 291.672
L167.24 292.106
L168.122 292.084
L169.004 292.276
L170.327 292.304
L171.209 292.433
L172.533 292.366
L173.416 292.244
L173.856 292.172
L179.585 293.118
L180.466 293.413
L180.906 293.397
L181.789 293.721
L182.23 293.765
L182.669 293.962
L183.11 293.936
L185.754 294.481
L186.636 294.537
L187.959 295.069
L188.841 295.692
L189.282 296.122
L189.723 295.516
L190.605 295.422
L191.41 295.28
L194.747 294.281
L197.392 292.392
L198.274 292.156
L199.598 292.037
L200.482 292.228
L202.247 292.386
L210.189 292.998
L211.952 293.196
L213.718 293.354
L214.16 293.49
L215.04 293.494
L215.481 293.729
L215.921 293.61
L217.243 293.844
L217.683 293.768
L219.005 293.97
L221.21 294.3
L222.533 294.234
L225.18 294.291
L225.619 294.24
L226.059 294.505
L226.941 294.3
L227.821 294.18
L228.702 293.739
L229.582 294.762
L230.023 294.711
L230.464 293.963
L231.345 294.865
L231.788 295.715
L232.669 296.242
L233.109 296.119
L234.433 295.17
L235.756 293.567
L236.197 292.505
L236.637 290.892
L237.08 290.658
L237.521 292.063
L237.963 293.96
L238.403 295.167
L238.748 295.41
L241.092 293.426
L241.532 293.734
L241.974 293.421
L242.414 293.381
L242.855 292.688
L243.295 291.324
L243.737 290.722
L244.177 290.503
L244.616 288.862
L245.058 287.746
L245.5 289.046
L246.38 288.316
L247.263 285.773
L247.704 285.952
L248.145 284.117
L248.585 283.724
L249.026 282.721
L249.467 282.866
L250.35 282.706
L250.789 283.617
L251.23 284.129
L251.671 283.724
L253.875 280.625
L254.754 279.223
L255.197 278.595
L255.636 277.457
L256.078 276.797
L256.517 275.751
L256.957 275.208
L257.397 275.105
L257.838 274.576
L258.723 272.913
L259.163 272.407
L259.603 272.159
L260.043 272.301
L260.484 272.211
L261.364 272.407
L262.248 272.598
L266.216 272.976
L267.097 272.998
L267.539 273.139
L268.421 273.221
L269.303 273.412
L278.137 275.127
L279.457 275.562
L279.897 275.538
L280.341 275.728
L280.783 275.628
L282.548 276.068
L286.069 276.769
L286.951 277.266
L287.39 277.579
L288.274 277.929
L289.154 278.337
L290.937 278.874
L292.697 279.187
L293.139 279.194
L294.463 278.732
L295.786 277.767
L296.227 277.099
L296.671 277.05
L298.434 275.143
L299.314 274.533
L300.639 273.283
L301.077 273.22
L302.4 272.688
L303.282 271.764
L304.603 270.376
L305.923 269.474
L306.366 268.815
L306.809 268.617
L307.695 267.41
L308.136 267.071
L309.032 266.056
L309.483 264.87
L310.384 264.032
L311.285 262.323
L311.736 262.009
L312.635 260.404
L313.534 258.276
L313.985 257.16
L314.435 256.916
L314.885 255.765
L315.786 254.509
L316.237 253.462
L316.688 252.102
L317.589 251.055
L318.039 250.671
L319.839 247.078
L320.289 245.787
L320.739 245.125
L321.167 243.659
L321.658 242.652
L323.116 240.819
L323.53 240.694
L323.979 240.415
L324.43 240.555
L325.332 240.624
L325.782 240.345
L326.231 240.694
L326.681 240.624
L327.131 240.973
L327.581 240.764
L328.032 241.392
L328.483 241.636
L328.933 241.287
L329.384 241.845
L329.835 241.985
L330.286 241.81
L330.736 242.194
L331.186 242.334
L331.636 242.124
L332.086 242.229
L332.535 242.648
L332.985 242.578
L333.436 242.683
L333.886 243.031
L334.338 243.066
L334.788 242.927
L335.239 243.311
L336.14 243.38
L336.589 243.799
L337.039 243.799
L337.488 243.59
L337.938 244.392
L338.388 243.869
L338.838 244.427
L339.288 244.357
L339.737 244.741
L340.187 244.532
L340.636 244.636
L341.536 245.369
L341.986 245.299
L346.939 246.799
L347.388 246.799
L347.838 247.113
L348.287 247.287
L348.737 247.287
L349.188 247.776
L349.638 247.671
L350.537 248.125
L350.986 248.055
L351.436 247.636
L351.886 248.09
L352.336 247.88
L353.237 248.16
L353.687 248.055
L354.136 248.16
L354.586 247.881
L355.486 248.194
L356.387 247.88
L356.838 248.229
L357.288 248.788
L357.739 248.613
L358.19 248.997
L358.64 249.101
L359.091 249.415
L359.541 249.59
L359.991 249.904
L360.441 250.392
L360.892 250.288
L361.342 251.369
L361.792 251.299
L362.242 250.846
L363.594 250.322
L364.044 251.055
L364.495 251.195
L364.945 250.392
L365.396 250.776
L365.846 250.288
L366.748 248.404
L367.199 249.904
L367.648 250.183
L368.549 249.799
L369.451 248.543
L369.901 248.822
L370.352 247.462
L370.803 247.148
L371.704 245.752
L372.154 245.718
L373.054 243.869
L373.505 243.171
L373.955 242.787
L374.405 241.776
L374.854 241.113
L375.304 240.031
L375.754 239.752
L376.204 238.566
L377.104 237.206
L377.553 237.136
L378.453 234.554
L378.903 233.822
L379.805 231.345
L380.706 230.438
L381.608 227.996
L382.058 226.74
L382.508 226.88
L382.957 226.252
L383.406 225.205
L383.856 225.066
L384.306 223.984
L386.558 220.461
L387.009 220.077
L387.459 219.03
L387.909 219.205
L388.359 218.751
L388.81 218.682
L390.611 219.03
L391.061 219.205
L391.512 219.135
L391.962 219.205
L392.413 218.996
L392.863 219.379
L393.313 219.519
L393.763 219.414
L395.112 219.833
L396.012 219.658
L396.462 220.077
L396.912 220.042
L397.361 220.461
L397.811 220.356
L398.26 220.565
L398.711 220.53
L399.612 220.775
L400.063 220.984
L400.512 220.74
L400.962 220.914
L401.862 221.472
L402.312 221.403
L403.212 221.612
L403.661 221.961
L404.111 221.961
L404.561 222.554
L405.46 222.31
L406.359 222.693
L406.809 222.589
L408.158 223.286
L408.608 223.042
L409.058 223.565
L409.508 223.426
L409.957 223.74
L410.407 223.67
L410.857 224.159
L411.308 224.124
L412.209 224.647
L412.659 224.926
L413.561 224.961
L414.012 225.554
L414.462 225.798
L415.36 225.938
L415.81 226.252
L416.261 226.705
L416.711 226.81
L417.162 227.403
L417.612 227.787
L418.063 227.996
L418.513 228.589
L418.963 228.345
L419.391 228.542
L419.953 229.356
L420.853 229.67
L421.304 229.74
L421.754 229.461
L422.204 229.322
L422.654 229.74
L423.104 229.74
L423.555 229.566
L424.005 229.88
L424.905 228.903
L425.355 228.624
L425.805 227.333
L426.255 227.368
L426.705 227.089
L427.156 226.182
L427.606 225.868
L428.056 225.205
L429.407 222.1
L429.857 221.821
L430.756 219.798
L431.207 219.065
L431.657 219.205
L432.107 218.751
L432.557 217.321
L433.007 217.565
L433.458 217.112
L434.359 214.774
L434.81 214.565
L435.261 213.553
L435.711 213.065
L436.162 212.367
L436.612 211.216
L437.512 210.1
L437.962 208.879
L438.864 207.518
L439.315 207.134
L439.765 205.914
L440.216 205.39
L440.666 204.309
L441.117 202.809
L441.568 202.146
L442.467 200.332
L442.917 199.39
L443.367 198.832
L443.816 197.402
L444.267 196.704
L444.718 195.657
L445.617 194.82
L446.961 192.572
L447.419 190.738
L448.318 189.064
L448.768 188.192
L449.218 187.773
L449.668 187.11
L450.117 187.703
L450.567 187.285
L451.016 187.18
L451.466 186.866
L451.924 186.835
L452.367 186.378
L453.268 187.006
L453.718 186.413
L454.169 186.517
L454.619 186.796
L455.068 186.936
L455.518 186.622
L455.969 186.971
L456.42 186.866
L456.871 187.11
L457.32 187.529
L457.77 187.041
L458.67 187.355
L459.57 187.738
L460.02 187.459
L460.92 188.087
L461.371 188.017
L461.821 188.401
L462.272 188.401
L462.722 188.052
L463.624 188.89
L464.075 188.924
L464.525 189.134
L464.976 188.924
L465.426 189.169
L465.877 188.924
L466.327 189.134
L466.777 189.552
L469.025 189.901
L469.475 190.11
L470.376 190.215
L472.174 191.227
L473.075 191.122
L473.976 191.541
L474.426 192.029
L474.877 192.238
L475.327 192.204
L475.777 192.692
L476.227 192.483
L476.678 192.762
L477.579 193.808
L478.028 193.704
L478.478 194.192
L478.927 194.122
L479.378 193.739
L479.828 194.053
L480.279 194.192
L480.729 194.471
L481.181 194.611
L481.631 194.436
L482.532 194.68
L482.983 194.82
L483.433 195.099
L483.885 194.82
L484.335 194.401
L484.786 194.785
L485.236 194.646
L485.687 194.227
L486.137 194.576
L487.037 194.366
L487.487 194.89
L487.937 194.82
L489.737 196.181
L490.188 196.215
L490.639 196.739
L491.089 196.425
L491.54 196.25
L492.439 197.646
L493.34 198.622
L493.79 198.727
L494.241 199.25
L494.691 198.936
L495.142 198.832
L496.944 196.494
L497.845 196.041
L498.295 196.285
L498.745 195.587
L499.194 195.936
L499.644 195.029
L500.095 195.622
L500.545 195.553
L500.996 195.692
L501.446 196.39
L501.895 195.762
L502.345 196.425
L502.795 196.669
L503.244 197.088
L503.694 197.297
L504.594 197.297
L505.043 197.122
L505.494 195.692
L505.945 195.832
L506.395 195.657
L506.846 195.797
L507.297 195.413
L507.747 194.541
L508.648 193.355
L509.1 192.448
L510.001 191.541
L510.902 189.831
L511.352 189.343
L511.804 188.471
L512.254 187.913
L512.705 187.075
L513.155 187.389
L513.604 186.587
L514.054 186.308
L514.505 186.308
L514.955 186.064
L515.406 186.657
L515.856 186.831
L516.306 186.692
L516.757 186.971
L518.108 187.215
L518.4 186.913
L518.4 186.913" style="fill:none;stroke:#0000ff;stroke-width:0.5;"/>
   </g>
   <g id="line2d_49">
    <path clip-path="url(#p97f0b5ab72)" d="
M72 341.295
L72.4418 341.441
L73.3231 341.353
L73.7641 341.428
L74.6454 341.23
L75.0849 341.348
L75.964 341.165
L77.2834 341.223
L78.1633 341.145
L78.6036 341.352
L80.8021 341.587
L81.2416 341.551
L81.6812 341.672
L82.1222 341.581
L83.0013 341.8
L84.3229 341.879
L85.2035 341.973
L85.643 341.952
L86.0848 342.083
L86.8936 342.161
L87.9155 342.404
L89.2371 342.562
L90.5616 342.758
L91.0034 342.703
L93.6429 343.113
L96.2817 343.316
L96.7212 343.503
L97.1623 343.466
L98.4839 344.005
L99.3652 344.445
L100.246 344.651
L100.686 344.761
L101.126 345.122
L101.568 345.288
L103.328 346.973
L104.21 348.227
L105.091 348.745
L105.531 349.051
L106.412 349.092
L106.854 348.549
L107.295 349.326
L107.735 348.994
L108.617 349.021
L109.061 348.114
L109.501 349.306
L109.942 349.484
L110.383 349.922
L110.827 350.582
L111.267 350.566
L111.707 349.693
L112.147 349.774
L112.594 349.993
L113.034 350.487
L113.473 350.601
L113.913 351.136
L114.794 350.97
L115.234 350.108
L116.117 350.399
L116.561 348.754
L116.999 349.361
L117.44 349.326
L117.88 349.615
L118.32 349.525
L118.76 349.984
L119.64 349.156
L120.521 347.679
L120.96 347.646
L121.401 346.745
L121.84 346.175
L122.281 345.991
L122.722 345.353
L123.165 344.51
L123.607 344.278
L125.368 341.547
L125.809 341.022
L128.012 336.949
L128.891 335.808
L129.332 334.525
L130.215 333.184
L130.655 332.951
L131.094 332.879
L131.535 332.417
L132.855 331.969
L133.295 331.908
L134.176 331.964
L135.058 331.967
L135.499 332.107
L135.939 331.857
L137.264 332.279
L138.586 332.414
L139.026 332.422
L139.91 332.662
L143.877 332.545
L146.518 331.794
L147.399 331.813
L147.84 331.592
L148.281 331.229
L149.162 331.084
L159.301 332.598
L160.181 333.028
L160.624 333.049
L161.506 333.464
L163.708 334.164
L164.148 334.075
L165.028 334.753
L165.909 334.371
L166.226 334.602
L166.797 334.792
L167.24 334.767
L168.122 334.85
L169.004 334.641
L169.445 334.716
L170.327 334.676
L170.768 334.775
L172.976 334.741
L173.856 334.748
L174.297 334.629
L175.179 334.889
L175.619 334.905
L176.06 335.074
L177.823 335.287
L178.702 335.521
L179.144 335.509
L180.026 335.918
L180.466 335.995
L180.906 336.413
L181.348 336.591
L181.789 336.895
L182.669 337.111
L186.636 337.675
L187.076 337.833
L187.517 337.797
L189.282 338.597
L189.723 338.424
L191.41 338.543
L195.187 338.529
L196.071 338.239
L196.952 337.691
L197.392 337.752
L198.274 337.521
L199.158 337.425
L200.041 337.582
L202.247 337.705
L202.687 337.825
L204.895 337.819
L206.219 337.831
L206.66 337.701
L207.542 337.656
L211.512 337.839
L212.836 338.033
L214.6 338.142
L215.04 338.284
L215.481 338.215
L215.921 338.373
L216.361 338.321
L216.802 338.506
L217.243 338.392
L218.123 338.517
L219.446 338.613
L220.328 338.803
L220.769 338.751
L222.533 338.98
L222.974 338.913
L223.856 339.103
L224.297 339.091
L225.619 339.347
L226.059 339.294
L226.941 339.501
L227.382 339.411
L228.262 339.465
L228.702 339.371
L229.582 340.11
L230.023 340.027
L230.464 339.81
L230.905 340.035
L231.788 340.941
L232.228 341.673
L233.992 343.366
L234.433 342.972
L234.874 342.83
L235.756 342.732
L236.197 342.554
L236.637 340.792
L237.08 340.325
L237.521 342.075
L237.963 344.662
L238.403 346.453
L238.748 347.374
L241.092 346.522
L241.532 347.541
L242.414 347.431
L242.855 347.99
L243.295 347.198
L243.737 346.835
L244.177 346.624
L244.616 344.757
L245.058 343.776
L245.5 345.455
L245.94 344.907
L246.38 344.866
L246.822 342.661
L247.263 341.373
L247.704 342.005
L248.145 339.738
L248.585 339.138
L249.026 338.333
L249.467 338.581
L249.908 337.959
L250.35 338.222
L250.789 339.727
L251.23 340.433
L251.671 340.232
L252.115 339.666
L252.556 339.432
L252.995 338.767
L253.875 336.689
L254.315 336.263
L254.754 335.573
L256.517 331.587
L256.957 331.035
L257.397 331.007
L258.282 329.934
L259.163 328.741
L260.043 328.256
L260.922 328.208
L261.804 328.226
L262.248 328.09
L263.13 328.03
L266.216 327.375
L266.657 327.249
L267.097 327.363
L267.539 327.241
L271.066 327.667
L271.954 327.548
L273.725 327.472
L274.165 327.61
L274.606 327.542
L275.05 327.647
L275.932 327.575
L276.813 327.728
L277.696 327.773
L278.137 327.868
L279.457 327.553
L279.897 327.643
L280.341 327.406
L280.783 327.598
L281.667 327.458
L282.107 327.632
L284.31 327.241
L285.19 327.41
L285.63 327.426
L287.39 328.097
L290.038 329.863
L290.937 330.421
L291.376 330.889
L291.816 330.905
L292.256 331.077
L292.697 331.401
L293.139 331.564
L293.581 331.944
L294.021 332.473
L294.463 332.797
L295.342 333.616
L296.227 334.333
L296.671 334.29
L297.113 334.817
L297.552 335.687
L299.314 337.262
L299.756 337.675
L300.197 337.636
L301.077 337.896
L301.518 337.832
L302.4 336.522
L302.84 336.713
L304.161 335.533
L304.603 335.351
L305.043 334.933
L305.482 334.289
L305.923 334.273
L306.366 334.547
L306.809 334.624
L307.252 333.976
L308.548 331.274
L309.032 329.608
L309.483 328.906
L309.933 327.723
L310.835 324.567
L311.736 322.42
L312.635 320.842
L314.435 314.968
L315.336 313.478
L318.039 306.071
L318.489 305.545
L318.939 303.836
L319.389 303.397
L320.739 299.233
L321.167 298.508
L321.658 297.193
L322.181 296.516
L322.631 296.209
L323.116 296.497
L323.979 295.727
L324.43 295.289
L324.881 295.464
L325.332 295.289
L325.782 295.902
L326.231 295.464
L327.581 295.99
L328.032 295.464
L328.483 295.595
L328.933 295.552
L329.384 295.771
L330.286 295.99
L330.736 295.902
L331.186 296.209
L331.636 296.165
L332.086 296.384
L332.535 296.078
L332.985 295.99
L333.436 296.078
L333.886 295.508
L334.338 295.376
L334.788 295.595
L335.689 295.508
L336.14 295.902
L336.589 295.552
L337.039 295.639
L337.488 296.034
L337.938 296.034
L338.388 296.384
L338.838 296.253
L339.737 296.516
L340.636 296.998
L341.086 297.042
L341.986 297.436
L342.436 297.48
L342.885 297.919
L343.334 297.962
L343.785 298.225
L345.137 298.444
L345.587 298.62
L346.038 298.444
L346.488 298.839
L348.287 299.277
L348.737 299.891
L349.188 299.716
L349.638 299.935
L350.087 299.979
L350.537 300.154
L350.986 300.592
L351.436 300.636
L351.886 300.373
L352.786 301.118
L353.237 301.118
L353.687 301.25
L354.136 301.206
L354.586 301.556
L355.035 301.688
L355.486 301.425
L355.936 301.688
L356.838 302.433
L360.441 305.457
L360.892 306.509
L361.342 306.948
L361.792 307.167
L362.242 307.211
L362.692 307.473
L363.143 308.832
L363.594 309.139
L364.044 309.796
L364.495 309.84
L364.945 310.805
L365.396 310.498
L365.846 310.892
L366.297 309.577
L366.748 309.621
L368.098 311.988
L368.549 311.55
L369 310.059
L369.451 310.235
L369.901 309.577
L370.352 310.498
L370.803 310.103
L371.253 308.745
L371.704 308.657
L372.154 308.306
L372.604 308.175
L373.054 307.254
L373.505 307.912
L374.405 305.852
L375.304 303.047
L376.204 300.592
L377.104 298.795
L377.553 297.831
L378.003 296.56
L378.903 293.448
L379.805 291.344
L381.608 285.734
L382.058 285.339
L383.856 280.956
L385.206 278.458
L385.656 277.713
L386.107 276.617
L386.558 276.266
L387.009 275.258
L387.909 273.768
L388.359 273.637
L388.81 273.768
L389.26 273.68
L390.162 274.075
L390.611 274.075
L391.061 274.294
L391.512 274.163
L391.962 274.206
L392.413 274.645
L392.863 274.382
L393.313 274.382
L393.763 274.601
L394.213 274.338
L395.562 274.426
L396.012 274.557
L396.462 274.426
L396.912 274.689
L397.361 274.557
L397.811 274.557
L398.26 274.688
L398.711 274.469
L399.161 274.951
L399.612 274.82
L400.063 274.513
L400.512 275.083
L400.962 275.258
L401.412 274.688
L401.862 274.995
L403.212 275.171
L403.661 275.214
L404.111 275.477
L404.561 275.346
L405.01 275.346
L405.46 275.872
L407.259 276.091
L408.158 276.529
L408.608 276.529
L409.058 276.705
L409.508 276.661
L409.957 277.187
L410.407 277.318
L410.857 277.143
L411.308 277.8
L411.758 277.713
L412.209 277.932
L412.659 277.976
L413.111 278.239
L413.561 278.809
L414.012 279.159
L414.462 279.334
L415.36 280.43
L415.81 280.562
L416.261 281.219
L416.711 281.395
L418.063 283.586
L418.963 285.383
L419.391 286.333
L419.953 286.61
L420.403 287.662
L420.853 288.32
L421.304 288.758
L421.754 289.591
L422.204 289.985
L422.654 290.774
L423.104 291.169
L423.555 292.44
L424.905 289.898
L425.355 290.424
L425.805 291.695
L426.705 288.276
L427.156 288.495
L427.606 288.144
L428.056 286.873
L428.507 286.216
L428.957 284.857
L429.407 284.2
L429.857 282.797
L430.307 282.622
L432.107 276.442
L433.007 273.154
L433.458 272.409
L433.909 272.365
L434.359 271.883
L435.261 268.684
L435.711 267.895
L436.162 266.229
L436.612 265.046
L437.512 262.241
L438.413 259.918
L441.117 250.67
L442.018 246.725
L444.718 236.732
L445.167 234.102
L445.617 233.006
L446.067 231.516
L446.518 230.595
L446.961 228.818
L447.419 227.571
L449.218 220.821
L449.668 220.339
L450.117 219.682
L450.567 219.857
L451.016 219.199
L451.466 218.936
L451.924 218.396
L452.367 218.235
L453.268 217.534
L453.718 217.271
L454.169 217.315
L454.619 217.096
L455.068 217.052
L455.969 215.956
L456.871 214.729
L457.32 213.94
L457.77 213.852
L458.22 213.94
L458.67 214.203
L459.12 213.764
L459.57 213.721
L460.47 213.896
L460.92 215.167
L461.371 216.833
L461.821 216
L462.272 216.833
L462.722 216.57
L463.173 217.052
L463.624 216.876
L464.075 216.526
L464.525 216.482
L465.426 216.964
L466.327 217.622
L466.777 217.315
L467.226 217.359
L467.676 217.753
L468.125 217.402
L469.025 217.534
L469.475 217.139
L470.376 216.745
L470.825 216.131
L471.275 214.773
L471.724 214.816
L472.174 214.247
L472.624 214.86
L473.976 214.553
L474.426 215.386
L474.877 215.649
L475.327 215.518
L475.777 215.868
L477.129 216.219
L477.579 215.868
L478.028 216.394
L478.478 216.087
L478.927 216.92
L479.378 216.92
L479.828 217.096
L480.279 217.446
L480.729 217.402
L481.181 217.841
L481.631 217.709
L482.082 217.928
L482.983 218.805
L483.433 218.893
L484.335 219.462
L484.786 219.375
L485.236 219.024
L485.687 219.506
L486.137 218.936
L486.587 219.55
L487.037 219.901
L487.487 219.55
L488.387 220.514
L488.837 220.558
L489.737 222.005
L490.188 221.654
L490.639 222.092
L491.54 222.18
L491.989 222.925
L492.439 224.328
L492.889 224.854
L493.34 225.16
L493.79 226.037
L494.241 226.081
L494.691 226.475
L495.592 226.563
L496.493 225.905
L497.394 224.722
L497.845 224.722
L499.194 224.24
L499.644 224.634
L500.095 224.415
L500.545 225.029
L500.996 225.292
L501.446 226.081
L501.895 226.388
L502.345 226.081
L502.795 226.519
L503.244 226.037
L503.694 226.037
L504.144 226.519
L504.594 226.081
L505.043 225.467
L505.494 225.423
L505.945 224.81
L506.395 224.634
L506.846 223.539
L507.747 222.531
L508.198 221.698
L508.648 221.172
L509.1 220.865
L509.55 219.462
L510.001 219.594
L510.902 218.235
L511.804 216.131
L512.254 215.211
L512.705 214.729
L513.155 213.808
L514.505 213.502
L514.955 213.282
L515.406 213.414
L515.856 213.37
L516.306 213.589
L517.207 213.458
L517.658 213.019
L518.108 212.888
L518.4 213.282
L518.4 213.282" style="fill:none;stroke:#bf00bf;stroke-width:0.5;"/>
   </g>
   <g id="matplotlib.axis_3">
    <g id="xtick_8">
     <g id="line2d_50">
      <path clip-path="url(#p97f0b5ab72)" d="
M82.3288 388.8
L82.3288 165.176" style="fill:none;stroke:#000000;stroke-dasharray:1.000000,3.000000;stroke-dashoffset:0.0;stroke-linecap:butt;stroke-width:0.5;"/>
     </g>
     <g id="line2d_51">
      <defs>
       <path d="
M0 0
L0 -4" id="me72ca7849d"/>
      </defs>
      <g>
       <use style="stroke:#000000;stroke-linecap:butt;stroke-width:0.5;" x="82.3287851736" xlink:href="#me72ca7849d" y="388.8"/>
      </g>
     </g>
     <g id="line2d_52">
      <defs>
       <path d="
M0 0
L0 4" id="mc306f472c1"/>
      </defs>
      <g>
       <use style="stroke:#000000;stroke-linecap:butt;stroke-width:0.5;" x="82.3287851736" xlink:href="#mc306f472c1" y="165.176470588"/>
      </g>
     </g>
     <g id="text_10">
      <!-- 23 Jun 2012 -->
      <defs>
       <path d="
M54.8906 33.0156
L54.8906 0
L45.9062 0
L45.9062 32.7188
Q45.9062 40.4844 42.875 44.3281
Q39.8438 48.1875 33.7969 48.1875
Q26.5156 48.1875 22.3125 43.5469
Q18.1094 38.9219 18.1094 30.9062
L18.1094 0
L9.07812 0
L9.07812 54.6875
L18.1094 54.6875
L18.1094 46.1875
Q21.3438 51.125 25.7031 53.5625
Q30.0781 56 35.7969 56
Q45.2188 56 50.0469 50.1719
Q54.8906 44.3438 54.8906 33.0156" id="BitstreamVeraSans-Roman-6e"/>
       <path d="
M9.8125 72.9062
L19.6719 72.9062
L19.6719 5.07812
Q19.6719 -8.10938 14.6719 -14.0625
Q9.67188 -20.0156 -1.42188 -20.0156
L-5.17188 -20.0156
L-5.17188 -11.7188
L-2.09375 -11.7188
Q4.4375 -11.7188 7.125 -8.04688
Q9.8125 -4.39062 9.8125 5.07812
z
" id="BitstreamVeraSans-Roman-4a"/>
      </defs>
      <g transform="translate(61.3958006535 424.963045764)rotate(-30.0)scale(0.09 -0.09)">
       <use xlink:href="#BitstreamVeraSans-Roman-32"/>
       <use x="63.623046875" xlink:href="#BitstreamVeraSans-Roman-33"/>
       <use x="127.24609375" xlink:href="#BitstreamVeraSans-Roman-20"/>
       <use x="159.033203125" xlink:href="#BitstreamVeraSans-Roman-4a"/>
       <use x="188.525390625" xlink:href="#BitstreamVeraSans-Roman-75"/>
       <use x="251.904296875" xlink:href="#BitstreamVeraSans-Roman-6e"/>
       <use x="315.283203125" xlink:href="#BitstreamVeraSans-Roman-20"/>
       <use x="347.0703125" xlink:href="#BitstreamVeraSans-Roman-32"/>
       <use x="410.693359375" xlink:href="#BitstreamVeraSans-Roman-30"/>
       <use x="474.31640625" xlink:href="#BitstreamVeraSans-Roman-31"/>
       <use x="537.939453125" xlink:href="#BitstreamVeraSans-Roman-32"/>
      </g>
     </g>
    </g>
    <g id="xtick_9">
     <g id="line2d_53">
      <path clip-path="url(#p97f0b5ab72)" d="
M145.625 388.8
L145.625 165.176" style="fill:none;stroke:#000000;stroke-dasharray:1.000000,3.000000;stroke-dashoffset:0.0;stroke-linecap:butt;stroke-width:0.5;"/>
     </g>
     <g id="line2d_54">
      <defs>
       <path d="
M0 0
L0 -4" id="me72ca7849d"/>
      </defs>
      <g>
       <use style="stroke:#000000;stroke-linecap:butt;stroke-width:0.5;" x="145.624553584" xlink:href="#me72ca7849d" y="388.8"/>
      </g>
     </g>
     <g id="line2d_55">
      <defs>
       <path d="
M0 0
L0 4" id="mc306f472c1"/>
      </defs>
      <g>
       <use style="stroke:#000000;stroke-linecap:butt;stroke-width:0.5;" x="145.624553584" xlink:href="#mc306f472c1" y="165.176470588"/>
      </g>
     </g>
     <g id="text_11">
      <!-- 24 Jun 2012 -->
      <defs>
       <path d="
M37.7969 64.3125
L12.8906 25.3906
L37.7969 25.3906
z

M35.2031 72.9062
L47.6094 72.9062
L47.6094 25.3906
L58.0156 25.3906
L58.0156 17.1875
L47.6094 17.1875
L47.6094 0
L37.7969 0
L37.7969 17.1875
L4.89062 17.1875
L4.89062 26.7031
z
" id="BitstreamVeraSans-Roman-34"/>
      </defs>
      <g transform="translate(124.691569063 424.963045764)rotate(-30.0)scale(0.09 -0.09)">
       <use xlink:href="#BitstreamVeraSans-Roman-32"/>
       <use x="63.623046875" xlink:href="#BitstreamVeraSans-Roman-34"/>
       <use x="127.24609375" xlink:href="#BitstreamVeraSans-Roman-20"/>
       <use x="159.033203125" xlink:href="#BitstreamVeraSans-Roman-4a"/>
       <use x="188.525390625" xlink:href="#BitstreamVeraSans-Roman-75"/>
       <use x="251.904296875" xlink:href="#BitstreamVeraSans-Roman-6e"/>
       <use x="315.283203125" xlink:href="#BitstreamVeraSans-Roman-20"/>
       <use x="347.0703125" xlink:href="#BitstreamVeraSans-Roman-32"/>
       <use x="410.693359375" xlink:href="#BitstreamVeraSans-Roman-30"/>
       <use x="474.31640625" xlink:href="#BitstreamVeraSans-Roman-31"/>
       <use x="537.939453125" xlink:href="#BitstreamVeraSans-Roman-32"/>
      </g>
     </g>
    </g>
    <g id="xtick_10">
     <g id="line2d_56">
      <path clip-path="url(#p97f0b5ab72)" d="
M208.92 388.8
L208.92 165.176" style="fill:none;stroke:#000000;stroke-dasharray:1.000000,3.000000;stroke-dashoffset:0.0;stroke-linecap:butt;stroke-width:0.5;"/>
     </g>
     <g id="line2d_57">
      <defs>
       <path d="
M0 0
L0 -4" id="me72ca7849d"/>
      </defs>
      <g>
       <use style="stroke:#000000;stroke-linecap:butt;stroke-width:0.5;" x="208.920321986" xlink:href="#me72ca7849d" y="388.8"/>
      </g>
     </g>
     <g id="line2d_58">
      <defs>
       <path d="
M0 0
L0 4" id="mc306f472c1"/>
      </defs>
      <g>
       <use style="stroke:#000000;stroke-linecap:butt;stroke-width:0.5;" x="208.920321986" xlink:href="#mc306f472c1" y="165.176470588"/>
      </g>
     </g>
     <g id="text_12">
      <!-- 25 Jun 2012 -->
      <g transform="translate(187.987337466 424.963045764)rotate(-30.0)scale(0.09 -0.09)">
       <use xlink:href="#BitstreamVeraSans-Roman-32"/>
       <use x="63.623046875" xlink:href="#BitstreamVeraSans-Roman-35"/>
       <use x="127.24609375" xlink:href="#BitstreamVeraSans-Roman-20"/>
       <use x="159.033203125" xlink:href="#BitstreamVeraSans-Roman-4a"/>
       <use x="188.525390625" xlink:href="#BitstreamVeraSans-Roman-75"/>
       <use x="251.904296875" xlink:href="#BitstreamVeraSans-Roman-6e"/>
       <use x="315.283203125" xlink:href="#BitstreamVeraSans-Roman-20"/>
       <use x="347.0703125" xlink:href="#BitstreamVeraSans-Roman-32"/>
       <use x="410.693359375" xlink:href="#BitstreamVeraSans-Roman-30"/>
       <use x="474.31640625" xlink:href="#BitstreamVeraSans-Roman-31"/>
       <use x="537.939453125" xlink:href="#BitstreamVeraSans-Roman-32"/>
      </g>
     </g>
    </g>
    <g id="xtick_11">
     <g id="line2d_59">
      <path clip-path="url(#p97f0b5ab72)" d="
M272.216 388.8
L272.216 165.176" style="fill:none;stroke:#000000;stroke-dasharray:1.000000,3.000000;stroke-dashoffset:0.0;stroke-linecap:butt;stroke-width:0.5;"/>
     </g>
     <g id="line2d_60">
      <defs>
       <path d="
M0 0
L0 -4" id="me72ca7849d"/>
      </defs>
      <g>
       <use style="stroke:#000000;stroke-linecap:butt;stroke-width:0.5;" x="272.216090396" xlink:href="#me72ca7849d" y="388.8"/>
      </g>
     </g>
     <g id="line2d_61">
      <defs>
       <path d="
M0 0
L0 4" id="mc306f472c1"/>
      </defs>
      <g>
       <use style="stroke:#000000;stroke-linecap:butt;stroke-width:0.5;" x="272.216090396" xlink:href="#mc306f472c1" y="165.176470588"/>
      </g>
     </g>
     <g id="text_13">
      <!-- 26 Jun 2012 -->
      <defs>
       <path d="
M33.0156 40.375
Q26.375 40.375 22.4844 35.8281
Q18.6094 31.2969 18.6094 23.3906
Q18.6094 15.5312 22.4844 10.9531
Q26.375 6.39062 33.0156 6.39062
Q39.6562 6.39062 43.5312 10.9531
Q47.4062 15.5312 47.4062 23.3906
Q47.4062 31.2969 43.5312 35.8281
Q39.6562 40.375 33.0156 40.375
M52.5938 71.2969
L52.5938 62.3125
Q48.875 64.0625 45.0938 64.9844
Q41.3125 65.9219 37.5938 65.9219
Q27.8281 65.9219 22.6719 59.3281
Q17.5312 52.7344 16.7969 39.4062
Q19.6719 43.6562 24.0156 45.9219
Q28.375 48.1875 33.5938 48.1875
Q44.5781 48.1875 50.9531 41.5156
Q57.3281 34.8594 57.3281 23.3906
Q57.3281 12.1562 50.6875 5.35938
Q44.0469 -1.42188 33.0156 -1.42188
Q20.3594 -1.42188 13.6719 8.26562
Q6.98438 17.9688 6.98438 36.375
Q6.98438 53.6562 15.1875 63.9375
Q23.3906 74.2188 37.2031 74.2188
Q40.9219 74.2188 44.7031 73.4844
Q48.4844 72.75 52.5938 71.2969" id="BitstreamVeraSans-Roman-36"/>
      </defs>
      <g transform="translate(251.283105876 424.963045764)rotate(-30.0)scale(0.09 -0.09)">
       <use xlink:href="#BitstreamVeraSans-Roman-32"/>
       <use x="63.623046875" xlink:href="#BitstreamVeraSans-Roman-36"/>
       <use x="127.24609375" xlink:href="#BitstreamVeraSans-Roman-20"/>
       <use x="159.033203125" xlink:href="#BitstreamVeraSans-Roman-4a"/>
       <use x="188.525390625" xlink:href="#BitstreamVeraSans-Roman-75"/>
       <use x="251.904296875" xlink:href="#BitstreamVeraSans-Roman-6e"/>
       <use x="315.283203125" xlink:href="#BitstreamVeraSans-Roman-20"/>
       <use x="347.0703125" xlink:href="#BitstreamVeraSans-Roman-32"/>
       <use x="410.693359375" xlink:href="#BitstreamVeraSans-Roman-30"/>
       <use x="474.31640625" xlink:href="#BitstreamVeraSans-Roman-31"/>
       <use x="537.939453125" xlink:href="#BitstreamVeraSans-Roman-32"/>
      </g>
     </g>
    </g>
    <g id="xtick_12">
     <g id="line2d_62">
      <path clip-path="url(#p97f0b5ab72)" d="
M335.512 388.8
L335.512 165.176" style="fill:none;stroke:#000000;stroke-dasharray:1.000000,3.000000;stroke-dashoffset:0.0;stroke-linecap:butt;stroke-width:0.5;"/>
     </g>
     <g id="line2d_63">
      <defs>
       <path d="
M0 0
L0 -4" id="me72ca7849d"/>
      </defs>
      <g>
       <use style="stroke:#000000;stroke-linecap:butt;stroke-width:0.5;" x="335.511858799" xlink:href="#me72ca7849d" y="388.8"/>
      </g>
     </g>
     <g id="line2d_64">
      <defs>
       <path d="
M0 0
L0 4" id="mc306f472c1"/>
      </defs>
      <g>
       <use style="stroke:#000000;stroke-linecap:butt;stroke-width:0.5;" x="335.511858799" xlink:href="#mc306f472c1" y="165.176470588"/>
      </g>
     </g>
     <g id="text_14">
      <!-- 27 Jun 2012 -->
      <defs>
       <path d="
M8.20312 72.9062
L55.0781 72.9062
L55.0781 68.7031
L28.6094 0
L18.3125 0
L43.2188 64.5938
L8.20312 64.5938
z
" id="BitstreamVeraSans-Roman-37"/>
      </defs>
      <g transform="translate(314.578874278 424.963045764)rotate(-30.0)scale(0.09 -0.09)">
       <use xlink:href="#BitstreamVeraSans-Roman-32"/>
       <use x="63.623046875" xlink:href="#BitstreamVeraSans-Roman-37"/>
       <use x="127.24609375" xlink:href="#BitstreamVeraSans-Roman-20"/>
       <use x="159.033203125" xlink:href="#BitstreamVeraSans-Roman-4a"/>
       <use x="188.525390625" xlink:href="#BitstreamVeraSans-Roman-75"/>
       <use x="251.904296875" xlink:href="#BitstreamVeraSans-Roman-6e"/>
       <use x="315.283203125" xlink:href="#BitstreamVeraSans-Roman-20"/>
       <use x="347.0703125" xlink:href="#BitstreamVeraSans-Roman-32"/>
       <use x="410.693359375" xlink:href="#BitstreamVeraSans-Roman-30"/>
       <use x="474.31640625" xlink:href="#BitstreamVeraSans-Roman-31"/>
       <use x="537.939453125" xlink:href="#BitstreamVeraSans-Roman-32"/>
      </g>
     </g>
    </g>
    <g id="xtick_13">
     <g id="line2d_65">
      <path clip-path="url(#p97f0b5ab72)" d="
M398.808 388.8
L398.808 165.176" style="fill:none;stroke:#000000;stroke-dasharray:1.000000,3.000000;stroke-dashoffset:0.0;stroke-linecap:butt;stroke-width:0.5;"/>
     </g>
     <g id="line2d_66">
      <defs>
       <path d="
M0 0
L0 -4" id="me72ca7849d"/>
      </defs>
      <g>
       <use style="stroke:#000000;stroke-linecap:butt;stroke-width:0.5;" x="398.807627209" xlink:href="#me72ca7849d" y="388.8"/>
      </g>
     </g>
     <g id="line2d_67">
      <defs>
       <path d="
M0 0
L0 4" id="mc306f472c1"/>
      </defs>
      <g>
       <use style="stroke:#000000;stroke-linecap:butt;stroke-width:0.5;" x="398.807627209" xlink:href="#mc306f472c1" y="165.176470588"/>
      </g>
     </g>
     <g id="text_15">
      <!-- 28 Jun 2012 -->
      <defs>
       <path d="
M31.7812 34.625
Q24.75 34.625 20.7188 30.8594
Q16.7031 27.0938 16.7031 20.5156
Q16.7031 13.9219 20.7188 10.1562
Q24.75 6.39062 31.7812 6.39062
Q38.8125 6.39062 42.8594 10.1719
Q46.9219 13.9688 46.9219 20.5156
Q46.9219 27.0938 42.8906 30.8594
Q38.875 34.625 31.7812 34.625
M21.9219 38.8125
Q15.5781 40.375 12.0312 44.7188
Q8.5 49.0781 8.5 55.3281
Q8.5 64.0625 14.7188 69.1406
Q20.9531 74.2188 31.7812 74.2188
Q42.6719 74.2188 48.875 69.1406
Q55.0781 64.0625 55.0781 55.3281
Q55.0781 49.0781 51.5312 44.7188
Q48 40.375 41.7031 38.8125
Q48.8281 37.1562 52.7969 32.3125
Q56.7812 27.4844 56.7812 20.5156
Q56.7812 9.90625 50.3125 4.23438
Q43.8438 -1.42188 31.7812 -1.42188
Q19.7344 -1.42188 13.25 4.23438
Q6.78125 9.90625 6.78125 20.5156
Q6.78125 27.4844 10.7812 32.3125
Q14.7969 37.1562 21.9219 38.8125
M18.3125 54.3906
Q18.3125 48.7344 21.8438 45.5625
Q25.3906 42.3906 31.7812 42.3906
Q38.1406 42.3906 41.7188 45.5625
Q45.3125 48.7344 45.3125 54.3906
Q45.3125 60.0625 41.7188 63.2344
Q38.1406 66.4062 31.7812 66.4062
Q25.3906 66.4062 21.8438 63.2344
Q18.3125 60.0625 18.3125 54.3906" id="BitstreamVeraSans-Roman-38"/>
      </defs>
      <g transform="translate(377.874642688 424.963045764)rotate(-30.0)scale(0.09 -0.09)">
       <use xlink:href="#BitstreamVeraSans-Roman-32"/>
       <use x="63.623046875" xlink:href="#BitstreamVeraSans-Roman-38"/>
       <use x="127.24609375" xlink:href="#BitstreamVeraSans-Roman-20"/>
       <use x="159.033203125" xlink:href="#BitstreamVeraSans-Roman-4a"/>
       <use x="188.525390625" xlink:href="#BitstreamVeraSans-Roman-75"/>
       <use x="251.904296875" xlink:href="#BitstreamVeraSans-Roman-6e"/>
       <use x="315.283203125" xlink:href="#BitstreamVeraSans-Roman-20"/>
       <use x="347.0703125" xlink:href="#BitstreamVeraSans-Roman-32"/>
       <use x="410.693359375" xlink:href="#BitstreamVeraSans-Roman-30"/>
       <use x="474.31640625" xlink:href="#BitstreamVeraSans-Roman-31"/>
       <use x="537.939453125" xlink:href="#BitstreamVeraSans-Roman-32"/>
      </g>
     </g>
    </g>
    <g id="xtick_14">
     <g id="line2d_68">
      <path clip-path="url(#p97f0b5ab72)" d="
M462.103 388.8
L462.103 165.176" style="fill:none;stroke:#000000;stroke-dasharray:1.000000,3.000000;stroke-dashoffset:0.0;stroke-linecap:butt;stroke-width:0.5;"/>
     </g>
     <g id="line2d_69">
      <defs>
       <path d="
M0 0
L0 -4" id="me72ca7849d"/>
      </defs>
      <g>
       <use style="stroke:#000000;stroke-linecap:butt;stroke-width:0.5;" x="462.103395618" xlink:href="#me72ca7849d" y="388.8"/>
      </g>
     </g>
     <g id="line2d_70">
      <defs>
       <path d="
M0 0
L0 4" id="mc306f472c1"/>
      </defs>
      <g>
       <use style="stroke:#000000;stroke-linecap:butt;stroke-width:0.5;" x="462.103395618" xlink:href="#mc306f472c1" y="165.176470588"/>
      </g>
     </g>
     <g id="text_16">
      <!-- 29 Jun 2012 -->
      <defs>
       <path d="
M10.9844 1.51562
L10.9844 10.5
Q14.7031 8.73438 18.5 7.8125
Q22.3125 6.89062 25.9844 6.89062
Q35.75 6.89062 40.8906 13.4531
Q46.0469 20.0156 46.7812 33.4062
Q43.9531 29.2031 39.5938 26.9531
Q35.25 24.7031 29.9844 24.7031
Q19.0469 24.7031 12.6719 31.3125
Q6.29688 37.9375 6.29688 49.4219
Q6.29688 60.6406 12.9375 67.4219
Q19.5781 74.2188 30.6094 74.2188
Q43.2656 74.2188 49.9219 64.5156
Q56.5938 54.8281 56.5938 36.375
Q56.5938 19.1406 48.4062 8.85938
Q40.2344 -1.42188 26.4219 -1.42188
Q22.7031 -1.42188 18.8906 -0.6875
Q15.0938 0.046875 10.9844 1.51562
M30.6094 32.4219
Q37.25 32.4219 41.125 36.9531
Q45.0156 41.5 45.0156 49.4219
Q45.0156 57.2812 41.125 61.8438
Q37.25 66.4062 30.6094 66.4062
Q23.9688 66.4062 20.0938 61.8438
Q16.2188 57.2812 16.2188 49.4219
Q16.2188 41.5 20.0938 36.9531
Q23.9688 32.4219 30.6094 32.4219" id="BitstreamVeraSans-Roman-39"/>
      </defs>
      <g transform="translate(441.170411098 424.963045764)rotate(-30.0)scale(0.09 -0.09)">
       <use xlink:href="#BitstreamVeraSans-Roman-32"/>
       <use x="63.623046875" xlink:href="#BitstreamVeraSans-Roman-39"/>
       <use x="127.24609375" xlink:href="#BitstreamVeraSans-Roman-20"/>
       <use x="159.033203125" xlink:href="#BitstreamVeraSans-Roman-4a"/>
       <use x="188.525390625" xlink:href="#BitstreamVeraSans-Roman-75"/>
       <use x="251.904296875" xlink:href="#BitstreamVeraSans-Roman-6e"/>
       <use x="315.283203125" xlink:href="#BitstreamVeraSans-Roman-20"/>
       <use x="347.0703125" xlink:href="#BitstreamVeraSans-Roman-32"/>
       <use x="410.693359375" xlink:href="#BitstreamVeraSans-Roman-30"/>
       <use x="474.31640625" xlink:href="#BitstreamVeraSans-Roman-31"/>
       <use x="537.939453125" xlink:href="#BitstreamVeraSans-Roman-32"/>
      </g>
     </g>
    </g>
   </g>
   <g id="matplotlib.axis_4">
    <g id="ytick_9">
     <g id="line2d_71">
      <path clip-path="url(#p97f0b5ab72)" d="
M72 388.8
L518.4 388.8" style="fill:none;stroke:#000000;stroke-dasharray:1.000000,3.000000;stroke-dashoffset:0.0;stroke-linecap:butt;stroke-width:0.5;"/>
     </g>
     <g id="line2d_72">
      <defs>
       <path d="
M0 0
L4 0" id="mbe61ed5c84"/>
      </defs>
      <g>
       <use style="stroke:#000000;stroke-linecap:butt;stroke-width:0.5;" x="72.0" xlink:href="#mbe61ed5c84" y="388.8"/>
      </g>
     </g>
     <g id="line2d_73">
      <defs>
       <path d="
M0 0
L-4 0" id="me8bd49bbf9"/>
      </defs>
      <g>
       <use style="stroke:#000000;stroke-linecap:butt;stroke-width:0.5;" x="518.4" xlink:href="#me8bd49bbf9" y="388.8"/>
      </g>
     </g>
     <g id="text_17">
      <!-- 80 -->
      <g transform="translate(54.340625 393.1678125)scale(0.12 -0.12)">
       <use xlink:href="#BitstreamVeraSans-Roman-38"/>
       <use x="63.623046875" xlink:href="#BitstreamVeraSans-Roman-30"/>
      </g>
     </g>
    </g>
    <g id="ytick_10">
     <g id="line2d_74">
      <path clip-path="url(#p97f0b5ab72)" d="
M72 344.075
L518.4 344.075" style="fill:none;stroke:#000000;stroke-dasharray:1.000000,3.000000;stroke-dashoffset:0.0;stroke-linecap:butt;stroke-width:0.5;"/>
     </g>
     <g id="line2d_75">
      <defs>
       <path d="
M0 0
L4 0" id="mbe61ed5c84"/>
      </defs>
      <g>
       <use style="stroke:#000000;stroke-linecap:butt;stroke-width:0.5;" x="72.0" xlink:href="#mbe61ed5c84" y="344.075294118"/>
      </g>
     </g>
     <g id="line2d_76">
      <defs>
       <path d="
M0 0
L-4 0" id="me8bd49bbf9"/>
      </defs>
      <g>
       <use style="stroke:#000000;stroke-linecap:butt;stroke-width:0.5;" x="518.4" xlink:href="#me8bd49bbf9" y="344.075294118"/>
      </g>
     </g>
     <g id="text_18">
      <!-- 85 -->
      <g transform="translate(54.591875 348.443106618)scale(0.12 -0.12)">
       <use xlink:href="#BitstreamVeraSans-Roman-38"/>
       <use x="63.623046875" xlink:href="#BitstreamVeraSans-Roman-35"/>
      </g>
     </g>
    </g>
    <g id="ytick_11">
     <g id="line2d_77">
      <path clip-path="url(#p97f0b5ab72)" d="
M72 299.351
L518.4 299.351" style="fill:none;stroke:#000000;stroke-dasharray:1.000000,3.000000;stroke-dashoffset:0.0;stroke-linecap:butt;stroke-width:0.5;"/>
     </g>
     <g id="line2d_78">
      <defs>
       <path d="
M0 0
L4 0" id="mbe61ed5c84"/>
      </defs>
      <g>
       <use style="stroke:#000000;stroke-linecap:butt;stroke-width:0.5;" x="72.0" xlink:href="#mbe61ed5c84" y="299.350588235"/>
      </g>
     </g>
     <g id="line2d_79">
      <defs>
       <path d="
M0 0
L-4 0" id="me8bd49bbf9"/>
      </defs>
      <g>
       <use style="stroke:#000000;stroke-linecap:butt;stroke-width:0.5;" x="518.4" xlink:href="#me8bd49bbf9" y="299.350588235"/>
      </g>
     </g>
     <g id="text_19">
      <!-- 90 -->
      <g transform="translate(54.2825 303.718400735)scale(0.12 -0.12)">
       <use xlink:href="#BitstreamVeraSans-Roman-39"/>
       <use x="63.623046875" xlink:href="#BitstreamVeraSans-Roman-30"/>
      </g>
     </g>
    </g>
    <g id="ytick_12">
     <g id="line2d_80">
      <path clip-path="url(#p97f0b5ab72)" d="
M72 254.626
L518.4 254.626" style="fill:none;stroke:#000000;stroke-dasharray:1.000000,3.000000;stroke-dashoffset:0.0;stroke-linecap:butt;stroke-width:0.5;"/>
     </g>
     <g id="line2d_81">
      <defs>
       <path d="
M0 0
L4 0" id="mbe61ed5c84"/>
      </defs>
      <g>
       <use style="stroke:#000000;stroke-linecap:butt;stroke-width:0.5;" x="72.0" xlink:href="#mbe61ed5c84" y="254.625882353"/>
      </g>
     </g>
     <g id="line2d_82">
      <defs>
       <path d="
M0 0
L-4 0" id="me8bd49bbf9"/>
      </defs>
      <g>
       <use style="stroke:#000000;stroke-linecap:butt;stroke-width:0.5;" x="518.4" xlink:href="#me8bd49bbf9" y="254.625882353"/>
      </g>
     </g>
     <g id="text_20">
      <!-- 95 -->
      <g transform="translate(54.53375 258.993694853)scale(0.12 -0.12)">
       <use xlink:href="#BitstreamVeraSans-Roman-39"/>
       <use x="63.623046875" xlink:href="#BitstreamVeraSans-Roman-35"/>
      </g>
     </g>
    </g>
    <g id="ytick_13">
     <g id="line2d_83">
      <path clip-path="url(#p97f0b5ab72)" d="
M72 209.901
L518.4 209.901" style="fill:none;stroke:#000000;stroke-dasharray:1.000000,3.000000;stroke-dashoffset:0.0;stroke-linecap:butt;stroke-width:0.5;"/>
     </g>
     <g id="line2d_84">
      <defs>
       <path d="
M0 0
L4 0" id="mbe61ed5c84"/>
      </defs>
      <g>
       <use style="stroke:#000000;stroke-linecap:butt;stroke-width:0.5;" x="72.0" xlink:href="#mbe61ed5c84" y="209.901176471"/>
      </g>
     </g>
     <g id="line2d_85">
      <defs>
       <path d="
M0 0
L-4 0" id="me8bd49bbf9"/>
      </defs>
      <g>
       <use style="stroke:#000000;stroke-linecap:butt;stroke-width:0.5;" x="518.4" xlink:href="#me8bd49bbf9" y="209.901176471"/>
      </g>
     </g>
     <g id="text_21">
      <!-- 100 -->
      <g transform="translate(47.21 214.268988971)scale(0.12 -0.12)">
       <use xlink:href="#BitstreamVeraSans-Roman-31"/>
       <use x="63.623046875" xlink:href="#BitstreamVeraSans-Roman-30"/>
       <use x="127.24609375" xlink:href="#BitstreamVeraSans-Roman-30"/>
      </g>
     </g>
    </g>
    <g id="ytick_14">
     <g id="line2d_86">
      <path clip-path="url(#p97f0b5ab72)" d="
M72 165.176
L518.4 165.176" style="fill:none;stroke:#000000;stroke-dasharray:1.000000,3.000000;stroke-dashoffset:0.0;stroke-linecap:butt;stroke-width:0.5;"/>
     </g>
     <g id="line2d_87">
      <defs>
       <path d="
M0 0
L4 0" id="mbe61ed5c84"/>
      </defs>
      <g>
       <use style="stroke:#000000;stroke-linecap:butt;stroke-width:0.5;" x="72.0" xlink:href="#mbe61ed5c84" y="165.176470588"/>
      </g>
     </g>
     <g id="line2d_88">
      <defs>
       <path d="
M0 0
L-4 0" id="me8bd49bbf9"/>
      </defs>
      <g>
       <use style="stroke:#000000;stroke-linecap:butt;stroke-width:0.5;" x="518.4" xlink:href="#me8bd49bbf9" y="165.176470588"/>
      </g>
     </g>
     <g id="text_22">
      <!-- 105 -->
      <g transform="translate(47.46125 169.544283088)scale(0.12 -0.12)">
       <use xlink:href="#BitstreamVeraSans-Roman-31"/>
       <use x="63.623046875" xlink:href="#BitstreamVeraSans-Roman-30"/>
       <use x="127.24609375" xlink:href="#BitstreamVeraSans-Roman-35"/>
      </g>
     </g>
    </g>
    <g id="text_23">
     <!-- Weight (kg) -->
     <defs>
      <path d="
M45.4062 27.9844
Q45.4062 37.75 41.375 43.1094
Q37.3594 48.4844 30.0781 48.4844
Q22.8594 48.4844 18.8281 43.1094
Q14.7969 37.75 14.7969 27.9844
Q14.7969 18.2656 18.8281 12.8906
Q22.8594 7.51562 30.0781 7.51562
Q37.3594 7.51562 41.375 12.8906
Q45.4062 18.2656 45.4062 27.9844
M54.3906 6.78125
Q54.3906 -7.17188 48.1875 -13.9844
Q42 -20.7969 29.2031 -20.7969
Q24.4688 -20.7969 20.2656 -20.0938
Q16.0625 -19.3906 12.1094 -17.9219
L12.1094 -9.1875
Q16.0625 -11.3281 19.9219 -12.3438
Q23.7812 -13.375 27.7812 -13.375
Q36.625 -13.375 41.0156 -8.76562
Q45.4062 -4.15625 45.4062 5.17188
L45.4062 9.625
Q42.625 4.78125 38.2812 2.39062
Q33.9375 0 27.875 0
Q17.8281 0 11.6719 7.65625
Q5.51562 15.3281 5.51562 27.9844
Q5.51562 40.6719 11.6719 48.3281
Q17.8281 56 27.875 56
Q33.9375 56 38.2812 53.6094
Q42.625 51.2188 45.4062 46.3906
L45.4062 54.6875
L54.3906 54.6875
z
" id="BitstreamVeraSans-Roman-67"/>
      <path d="
M9.07812 75.9844
L18.1094 75.9844
L18.1094 31.1094
L44.9219 54.6875
L56.3906 54.6875
L27.3906 29.1094
L57.625 0
L45.9062 0
L18.1094 26.7031
L18.1094 0
L9.07812 0
z
" id="BitstreamVeraSans-Roman-6b"/>
      <path d="
M9.42188 54.6875
L18.4062 54.6875
L18.4062 0
L9.42188 0
z

M9.42188 75.9844
L18.4062 75.9844
L18.4062 64.5938
L9.42188 64.5938
z
" id="BitstreamVeraSans-Roman-69"/>
      <path d="
M54.8906 33.0156
L54.8906 0
L45.9062 0
L45.9062 32.7188
Q45.9062 40.4844 42.875 44.3281
Q39.8438 48.1875 33.7969 48.1875
Q26.5156 48.1875 22.3125 43.5469
Q18.1094 38.9219 18.1094 30.9062
L18.1094 0
L9.07812 0
L9.07812 75.9844
L18.1094 75.9844
L18.1094 46.1875
Q21.3438 51.125 25.7031 53.5625
Q30.0781 56 35.7969 56
Q45.2188 56 50.0469 50.1719
Q54.8906 44.3438 54.8906 33.0156" id="BitstreamVeraSans-Roman-68"/>
      <path d="
M3.32812 72.9062
L13.2812 72.9062
L28.6094 11.2812
L43.8906 72.9062
L54.9844 72.9062
L70.3125 11.2812
L85.5938 72.9062
L95.6094 72.9062
L77.2969 0
L64.8906 0
L49.5156 63.2812
L33.9844 0
L21.5781 0
z
" id="BitstreamVeraSans-Roman-57"/>
     </defs>
     <g transform="translate(42.21 308.751672794)rotate(-90.0)scale(0.12 -0.12)">
      <use xlink:href="#BitstreamVeraSans-Roman-57"/>
      <use x="93.001953125" xlink:href="#BitstreamVeraSans-Roman-65"/>
      <use x="154.525390625" xlink:href="#BitstreamVeraSans-Roman-69"/>
      <use x="182.30859375" xlink:href="#BitstreamVeraSans-Roman-67"/>
      <use x="245.78515625" xlink:href="#BitstreamVeraSans-Roman-68"/>
      <use x="309.1640625" xlink:href="#BitstreamVeraSans-Roman-74"/>
      <use x="348.373046875" xlink:href="#BitstreamVeraSans-Roman-20"/>
      <use x="380.16015625" xlink:href="#BitstreamVeraSans-Roman-28"/>
      <use x="419.173828125" xlink:href="#BitstreamVeraSans-Roman-6b"/>
      <use x="477.083984375" xlink:href="#BitstreamVeraSans-Roman-67"/>
      <use x="540.560546875" xlink:href="#BitstreamVeraSans-Roman-29"/>
     </g>
    </g>
   </g>
   <g id="patch_8">
    <path d="
M72 165.176
L518.4 165.176" style="fill:none;stroke:#000000;"/>
   </g>
   <g id="patch_9">
    <path d="
M518.4 388.8
L518.4 165.176" style="fill:none;stroke:#000000;"/>
   </g>
   <g id="patch_10">
    <path d="
M72 388.8
L518.4 388.8" style="fill:none;stroke:#000000;"/>
   </g>
   <g id="patch_11">
    <path d="
M72 388.8
L72 165.176" style="fill:none;stroke:#000000;"/>
   </g>
   <g id="legend_1">
    <g id="patch_12">
     <path d="
M79.2 224.196
L135.837 224.196
L135.837 172.376
L79.2 172.376
L79.2 224.196
z
" style="fill:#ffffff;stroke:#000000;"/>
    </g>
    <g id="line2d_89">
     <path d="
M89.28 183.176
L109.44 183.176" style="fill:none;stroke:#008000;stroke-width:0.5;"/>
    </g>
    <g id="line2d_90"/>
    <g id="text_24">
     <!-- 1 -->
     <g transform="translate(125.28 188.216470588)scale(0.09996 -0.09996)">
      <use xlink:href="#BitstreamVeraSans-Roman-31"/>
     </g>
    </g>
    <g id="line2d_91">
     <path d="
M89.28 198.215
L109.44 198.215" style="fill:none;stroke:#0000ff;stroke-width:0.5;"/>
    </g>
    <g id="line2d_92"/>
    <g id="text_25">
     <!-- 2 -->
     <g transform="translate(125.28 203.255326213)scale(0.09996 -0.09996)">
      <use xlink:href="#BitstreamVeraSans-Roman-32"/>
     </g>
    </g>
    <g id="line2d_93">
     <path d="
M89.28 213.254
L109.44 213.254" style="fill:none;stroke:#bf00bf;stroke-width:0.5;"/>
    </g>
    <g id="line2d_94"/>
    <g id="text_26">
     <!-- 3 -->
     <g transform="translate(125.28 218.294181838)scale(0.09996 -0.09996)">
      <use xlink:href="#BitstreamVeraSans-Roman-33"/>
     </g>
    </g>
   </g>
  </g>
 </g>
 <defs>
  <clipPath id="pfd6a83a59a">
   <rect height="101.647058824" width="446.4" x="72.0" y="43.2"/>
  </clipPath>
  <clipPath id="p97f0b5ab72">
   <rect height="223.623529412" width="446.4" x="72.0" y="165.176470588"/>
  </clipPath>
 </defs>
</svg>
