<?xml version="1.0" encoding="UTF-8" standalone="no"?>
<!DOCTYPE svg PUBLIC "-//W3C//DTD SVG 1.1//EN" "http://www.w3.org/Graphics/SVG/1.1/DTD/svg11.dtd">
<!-- Created with matplotlib (http://matplotlib.sourceforge.net/) -->
<svg height="432pt" version="1.1" viewBox="0 0 576 432" width="576pt" xmlns="http://www.w3.org/2000/svg" xmlns:xlink="http://www.w3.org/1999/xlink">
 <defs>
  <style type="text/css">
*{stroke-linecap:square;stroke-linejoin:round;}
  </style>
 </defs>
 <g id="figure_1">
  <g id="patch_1">
   <path d=" M0 432 L576 432 L576 0 L0 0 z " style="fill:#ffffff;"/>
  </g>
  <g id="axes_1">
   <g id="patch_2">
    <path d=" M72 144.847 L518.4 144.847 L518.4 43.2 L72 43.2 z " style="fill:#ffffff;"/>
   </g>
   <g id="line2d_1">
    <path clip-path="url(#pfd6a83a59a)" d=" M72 102.736 L72.8816 102.683 L73.3235 101.284 L73.7647 101.284 L74.2052 101.14 L74.6486 99.4456 L75.5309 99.8319 L75.9706 99.8319 L76.4118 99.9652 L76.8537 99.8319 L77.7354 98.2883 L78.178 96.4748 L79.0574 94.4632 L79.5008 94.8552 L79.9405 96.5947 L80.3832 95.5803 L81.2663 92.5714 L81.706 91.5856 L82.1472 91.1193 L83.47 93.1919 L83.9104 93.0467 L84.3516 94.0235 L86.1112 94.0235 L86.5524 93.0731 L86.9914 92.5191 L87.4333 91.7794 L87.8774 91.885 L88.3171 92.6499 L88.7576 94.0235 L89.1973 94.0235 L89.6385 95.3317 L90.0774 94.8684 L90.5194 94.0235 L91.8392 94.0235 L92.2797 93.4773 L92.7187 92.5714 L93.5996 92.5322 L94.04 91.1193 L94.4812 92.0962 L94.9202 92.5714 L95.3628 93.2843 L95.8033 92.349 L96.2459 92.0962 L96.6856 92.5714 L97.1261 93.424 L97.5651 92.6368 L98.0062 92.8592 L98.4489 93.5706 L98.8879 94.0235 L101.967 94.0235 L102.85 95.4756 L103.291 95.6849 L103.732 96.9277 L104.172 96.9277 L104.613 97.434 L105.052 98.3798 L105.493 98.3798 L105.931 99.3124 L106.373 99.8319 L107.696 99.8319 L109.018 101.878 L109.462 102.736 L113.423 102.736 L113.865 104.044 L114.306 104.188 L116.949 104.188 L117.39 104.809 L117.831 104.888 L118.274 105.094 L118.617 104.188 L120.916 104.188 L121.357 105.507 L121.799 105.64 L128.4 105.64 L128.841 105.92 L129.282 105.627 L129.721 105.64 L130.163 105.094 L130.602 104.927 L131.044 104.188 L131.485 104.07 L131.926 102.736 L132.806 102.736 L133.688 102.123 L134.127 101.284 L134.568 101.284 L135.009 99.9785 L135.451 99.8185 L136.331 99.8319 L137.213 97.2475 L137.654 96.9277 L138.094 96.3949 L138.536 96.648 L138.977 95.4756 L139.417 95.2663 L139.861 93.2183 L140.744 92.8069 L141.184 92.5322 L141.625 92.5714 L142.511 91.9246 L142.95 92.5714 L143.391 92.5714 L143.831 91.7134 L144.278 90.4857 L144.718 89.6672 L145.158 88.2824 L146.038 88.2151 L146.478 88.2286 L146.919 90.3009 L147.36 89.6672 L147.8 88.3496 L148.242 89.1524 L149.122 88.2151 L150.003 88.2151 L152.644 88.2151 L153.086 89.3271 L153.528 89.628 L153.969 88.7214 L154.409 89.3925 L155.295 88.2555 L155.737 89.3794 L156.178 89.6672 L157.942 89.6672 L158.384 90.0897 L158.823 89.798 L159.264 91.1193 L159.705 91.1193 L160.145 90.5332 L160.585 91.1193 L161.026 91.9642 L161.467 91.1193 L161.909 91.3458 L162.35 92.2414 L162.79 91.6256 L163.229 92.2018 L163.67 92.4799 L164.109 92.2018 L164.551 91.1193 L165.431 91.1193 L165.872 92.5191 L166.754 92.7284 L167.635 95.4756 L168.076 96.1357 L168.52 95.6326 L168.96 95.4495 L170.724 95.4756 L171.164 96.0565 L171.607 98.1967 L172.048 98.3798 L172.487 98.8683 L172.93 98.7099 L173.37 99.6188 L173.812 99.8319 L174.254 100.312 L174.693 101.284 L175.135 101.546 L175.576 102.723 L178.219 102.857 L178.659 104.188 L180.423 104.084 L180.864 102.736 L182.185 102.736 L182.626 101.918 L183.068 101.402 L183.51 102.563 L183.953 102.736 L184.393 102.736 L184.835 103.096 L185.276 104.188 L186.157 104.188 L186.597 104.637 L187.039 105.64 L187.92 105.64 L188.361 106.08 L188.802 107.053 L189.243 105.907 L189.685 105.708 L190.566 105.64 L191.887 105.64 L192.329 104.384 L192.77 104.188 L193.652 104.084 L194.094 103.256 L194.534 102.79 L195.855 102.736 L197.616 102.736 L197.937 103.047 L198.497 103.858 L198.939 103.966 L199.38 104.795 L199.822 107.092 L201.146 107.092 L201.587 107.171 L202.028 107.066 L202.91 107.092 L203.351 108.305 L203.795 107.7 L204.235 107.792 L204.678 108.545 L205.118 108.504 L205.558 108.025 L205.999 107.092 L207.322 107.092 L207.763 105.64 L209.085 105.64 L209.527 105.187 L209.967 104.188 L210.407 104.677 L210.849 104.188 L211.29 104.188 L211.731 102.83 L212.171 102.723 L212.611 102.736 L213.053 101.415 L213.494 101.284 L213.935 101.284 L214.376 102.629 L215.256 102.736 L217.019 102.736 L217.459 102.043 L217.898 102.736 L219.22 102.736 L219.662 102.456 L220.104 101.284 L222.309 101.284 L223.115 100.039 L226.453 98.3798 L227.337 99.8319 L229.099 99.8319 L229.982 101.284 L230.438 101.284 L230.866 101.128 L231.749 101.454 L232.191 101.467 L232.633 101.284 L233.956 101.284 L235.281 104.188 L236.165 103.176 L236.605 104.188 L238.811 104.188 L239.253 105.427 L239.696 104.306 L240.136 105.134 L240.578 105.64 L241.018 105.64 L241.46 104.293 L242.342 104.188 L243.225 104.188 L243.664 105.201 L244.108 104.306 L244.549 104.188 L244.99 104.188 L245.431 104.031 L245.873 102.736 L247.194 102.736 L247.635 102.857 L248.075 104.188 L249.397 104.188 L249.838 103.792 L250.279 104.188 L255.573 104.188 L256.014 104.018 L256.456 102.736 L256.897 103.162 L257.336 102.83 L258.217 102.736 L259.1 101.284 L259.539 100.888 L259.981 99.8319 L260.421 99.8319 L260.862 99.2324 L261.301 98.3798 L262.625 98.3798 L263.064 97.8122 L263.508 96.3949 L263.948 95.4756 L264.389 95.4756 L264.829 94.3566 L265.271 94.0235 L265.713 93.1259 L266.153 92.5714 L267.918 92.5453 L268.359 93.6772 L268.801 94.0235 L269.243 93.8503 L270.126 91.1731 L270.47 91.0003 L272.815 89.6672 L273.256 89.6149 L273.698 88.6814 L274.137 88.2151 L274.579 87.9487 L275.019 87.9487 L275.461 88.2151 L278.105 88.2151 L278.988 89.6672 L280.752 89.6672 L281.193 89.8111 L281.634 91.0521 L282.516 89.6672 L282.957 89.6672 L283.398 89.9419 L283.842 91.0128 L284.723 91.1193 L286.482 91.1193 L286.926 91.8322 L287.365 92.0434 L287.807 91.1193 L289.568 91.1193 L290.452 92.5714 L290.893 92.5714 L291.333 93.9563 L291.773 94.0235 L292.214 94.5298 L292.653 95.4756 L293.094 95.4756 L294.418 99.0003 L294.861 100.928 L295.301 101.206 L295.743 100.466 L296.185 101.284 L296.625 101.68 L297.068 102.336 L297.507 101.284 L299.713 101.284 L300.154 101.035 L300.596 101.284 L302.36 101.284 L303.688 103.357 L304.132 103.304 L304.575 102.736 L306.341 102.736 L306.785 103.317 L307.224 103.216 L307.668 102.736 L309.432 102.736 L309.874 103.016 L310.313 104.188 L311.194 104.162 L312.079 105.627 L312.962 105.64 L313.405 105.92 L313.845 107.092 L315.167 107.092 L315.608 106.818 L316.049 105.64 L316.489 105.64 L316.93 105.174 L317.369 104.188 L317.809 104.188 L318.691 102.736 L319.13 102.736 L319.574 102.221 L320.014 101.284 L320.895 101.284 L321.336 101.062 L321.779 99.8319 L322.218 99.8319 L322.678 98.9475 L323.117 98.3798 L323.558 98.3798 L323.998 97.1675 L324.439 96.9277 L324.881 96.9277 L325.324 95.5803 L326.206 94.0235 L326.646 92.6238 L327.086 91.9642 L327.529 90.9728 L327.97 89.3402 L328.414 88.2151 L328.857 87.7222 L329.296 86.763 L329.737 86.606 L330.618 83.8588 L331.5 82.4067 L331.942 82.4067 L332.822 80.5322 L333.264 80.2946 L333.704 80.3474 L334.146 79.5025 L334.586 79.4891 L335.468 78.0504 L335.908 78.2859 L336.35 78.0504 L337.229 78.0504 L337.67 77.8149 L338.113 76.5983 L339.442 76.5983 L339.884 76.8648 L340.296 76.5983 L340.781 76.8887 L341.231 76.5983 L341.682 76.5983 L342.583 79.5025 L343.034 79.5025 L343.485 78.4861 L343.935 78.0504 L344.834 78.0504 L345.284 78.6313 L345.735 79.5025 L346.185 78.4861 L346.635 78.1956 L347.086 79.5025 L348.89 79.5025 L349.34 80.2286 L349.79 80.3738 L350.241 79.7929 L350.691 80.9546 L351.591 80.9546 L352.041 81.245 L352.492 82.4067 L353.411 82.4067 L353.934 83.8588 L355.733 83.8588 L356.184 85.1657 L356.634 85.3109 L357.086 85.3109 L357.536 86.4726 L357.986 86.763 L358.886 86.763 L359.336 87.7795 L359.787 88.2151 L362.042 88.2151 L362.492 88.5055 L362.942 89.6672 L364.292 89.6672 L364.742 90.1029 L365.193 91.1193 L367.447 91.1193 L367.898 92.281 L368.348 92.5714 L375.095 92.5714 L375.546 93.8783 L375.997 94.0235 L377.799 94.0235 L378.701 92.7166 L379.15 92.5714 L380.05 92.5714 L380.5 93.5879 L380.951 92.7166 L381.401 92.5714 L383.65 92.5714 L384.1 91.9906 L385.001 90.2481 L385.451 89.6672 L386.35 89.6672 L386.8 89.2316 L387.251 88.2151 L387.702 88.2151 L388.153 88.5055 L388.603 88.2151 L390.858 88.2151 L391.308 86.763 L391.758 86.3274 L392.208 85.3109 L392.659 85.3109 L393.11 84.2945 L393.56 83.8588 L394.01 82.8424 L394.46 82.4067 L395.362 82.4067 L395.812 81.3903 L396.263 79.9382 L396.714 79.5025 L398.517 79.5025 L399.418 77.9052 L399.868 76.5983 L403.024 76.5983 L403.475 76.4531 L403.925 75.1462 L404.375 76.1627 L404.826 76.0175 L405.277 76.5983 L405.727 75.4366 L406.177 75.1462 L407.526 75.1462 L407.976 75.2914 L408.426 76.0175 L408.877 75.1462 L409.776 75.1462 L410.226 76.0175 L410.677 76.5983 L412.931 76.5983 L413.383 76.7435 L413.833 78.0504 L415.632 78.0504 L416.082 78.9217 L416.533 78.1956 L416.982 78.3408 L417.433 79.5025 L418.785 79.5025 L419.236 79.6477 L419.686 81.5355 L420.137 81.8259 L420.587 81.245 L421.037 82.2615 L421.488 82.4067 L421.94 82.4067 L422.39 83.4232 L422.84 84.004 L423.29 85.3109 L423.741 85.3109 L424.192 84.1492 L424.642 85.1657 L425.092 85.7466 L425.542 86.763 L425.992 86.763 L426.442 87.6343 L426.892 86.9082 L427.342 86.763 L429.591 86.763 L430.041 87.0534 L430.492 88.0699 L430.943 88.2151 L431.393 88.6508 L431.844 88.6508 L432.294 89.6672 L434.094 89.6672 L434.544 90.9741 L434.995 89.6672 L439.493 89.6672 L439.943 89.3768 L440.393 89.6672 L441.293 89.6672 L441.742 89.522 L442.193 88.6508 L442.643 89.6672 L443.094 88.2151 L445.348 88.2151 L445.799 87.3439 L446.249 86.763 L446.698 86.4726 L447.148 86.763 L447.598 86.763 L448.048 85.4561 L448.499 85.3109 L449.401 85.3109 L449.851 84.4397 L450.301 83.8588 L450.751 82.8424 L451.18 82.4067 L451.742 80.9546 L452.192 80.6642 L453.093 78.4861 L453.543 78.0504 L453.993 76.5983 L454.444 75.5818 L454.894 75.1462 L455.345 73.9845 L455.795 73.6941 L457.146 71.516 L457.596 69.7734 L458.046 69.3378 L458.497 67.8857 L459.397 66.4336 L459.847 67.5953 L460.299 67.8857 L460.75 67.5953 L461.2 66.4336 L462.1 66.4336 L462.549 65.8528 L463.45 64.1103 L464.35 62.9486 L464.801 62.0773 L467.506 62.0773 L467.957 61.7869 L468.407 60.9156 L468.857 60.6252 L469.307 61.6417 L469.758 62.0773 L472.914 62.0773 L473.365 62.3677 L473.815 63.5294 L475.164 63.5294 L475.614 63.6746 L476.065 64.9815 L476.516 64.9815 L476.966 66.2884 L477.416 66.4336 L477.866 67.0145 L478.316 67.8857 L478.76 67.8857 L479.218 69.0474 L479.668 69.3378 L480.118 69.3378 L480.568 70.2091 L481.018 69.3378 L483.267 69.3378 L483.725 70.6286 L484.168 70.7899 L484.619 70.7899 L485.07 72.0968 L485.52 72.3872 L486.42 75.1462 L486.87 75.1462 L487.32 76.5983 L488.673 76.5983 L489.123 77.9052 L489.573 78.0504 L490.023 78.0504 L490.474 76.5983 L490.924 77.9052 L491.374 78.0504 L491.824 78.0504 L492.724 79.5025 L493.175 79.5025 L493.626 79.3573 L494.076 78.9217 L494.527 79.5025 L497.232 79.5025 L498.133 80.9546 L500.382 80.9546 L501.283 82.4067 L501.733 83.7136 L502.183 83.8588 L503.982 83.8588 L504.432 84.1492 L504.883 85.3109 L506.686 85.3109 L507.137 86.6178 L507.587 86.763 L508.037 87.9247 L508.487 88.2151 L508.939 88.2151 L509.389 86.763 L510.738 86.763 L511.189 85.6013 L511.639 85.3109 L517.049 85.3109 L517.5 86.1822 L517.95 86.763 L518.4 88.0699 L518.4 88.0699" style="fill:none;stroke:#ff0000;stroke-width:0.5;"/>
   </g>
   <g id="matplotlib.axis_1">
    <g id="xtick_1">
     <g id="line2d_2">
      <path clip-path="url(#pfd6a83a59a)" d=" M113.994 144.847 L113.994 43.2" style="fill:none;stroke:#000000;stroke-dasharray:1.000000,3.000000;stroke-dashoffset:0.0;stroke-linecap:butt;stroke-width:0.5;"/>
     </g>
     <g id="line2d_3">
      <defs>
       <path d=" M0 0 L0 -4" id="mb3608525f6"/>
      </defs>
      <g>
       <use style="stroke:#000000;stroke-linecap:butt;stroke-width:0.5;" x="113.993571721" xlink:href="#mb3608525f6" y="144.847058824"/>
      </g>
     </g>
     <g id="line2d_4">
      <defs>
       <path d=" M0 0 L0 4" id="m2b70b2d34c"/>
      </defs>
      <g>
       <use style="stroke:#000000;stroke-linecap:butt;stroke-width:0.5;" x="113.993571721" xlink:href="#m2b70b2d34c" y="43.2"/>
      </g>
     </g>
    </g>
    <g id="xtick_2">
     <g id="line2d_5">
      <path clip-path="url(#pfd6a83a59a)" d=" M177.313 144.847 L177.313 43.2" style="fill:none;stroke:#000000;stroke-dasharray:1.000000,3.000000;stroke-dashoffset:0.0;stroke-linecap:butt;stroke-width:0.5;"/>
     </g>
     <g id="line2d_6">
      <defs>
       <path d=" M0 0 L0 -4" id="mb3608525f6"/>
      </defs>
      <g>
       <use style="stroke:#000000;stroke-linecap:butt;stroke-width:0.5;" x="177.312616698" xlink:href="#mb3608525f6" y="144.847058824"/>
      </g>
     </g>
     <g id="line2d_7">
      <defs>
       <path d=" M0 0 L0 4" id="m2b70b2d34c"/>
      </defs>
      <g>
       <use style="stroke:#000000;stroke-linecap:butt;stroke-width:0.5;" x="177.312616698" xlink:href="#m2b70b2d34c" y="43.2"/>
      </g>
     </g>
    </g>
    <g id="xtick_3">
     <g id="line2d_8">
      <path clip-path="url(#pfd6a83a59a)" d=" M240.632 144.847 L240.632 43.2" style="fill:none;stroke:#000000;stroke-dasharray:1.000000,3.000000;stroke-dashoffset:0.0;stroke-linecap:butt;stroke-width:0.5;"/>
     </g>
     <g id="line2d_9">
      <defs>
       <path d=" M0 0 L0 -4" id="mb3608525f6"/>
      </defs>
      <g>
       <use style="stroke:#000000;stroke-linecap:butt;stroke-width:0.5;" x="240.631661683" xlink:href="#mb3608525f6" y="144.847058824"/>
      </g>
     </g>
     <g id="line2d_10">
      <defs>
       <path d=" M0 0 L0 4" id="m2b70b2d34c"/>
      </defs>
      <g>
       <use style="stroke:#000000;stroke-linecap:butt;stroke-width:0.5;" x="240.631661683" xlink:href="#m2b70b2d34c" y="43.2"/>
      </g>
     </g>
    </g>
    <g id="xtick_4">
     <g id="line2d_11">
      <path clip-path="url(#pfd6a83a59a)" d=" M303.951 144.847 L303.951 43.2" style="fill:none;stroke:#000000;stroke-dasharray:1.000000,3.000000;stroke-dashoffset:0.0;stroke-linecap:butt;stroke-width:0.5;"/>
     </g>
     <g id="line2d_12">
      <defs>
       <path d=" M0 0 L0 -4" id="mb3608525f6"/>
      </defs>
      <g>
       <use style="stroke:#000000;stroke-linecap:butt;stroke-width:0.5;" x="303.950706668" xlink:href="#mb3608525f6" y="144.847058824"/>
      </g>
     </g>
     <g id="line2d_13">
      <defs>
       <path d=" M0 0 L0 4" id="m2b70b2d34c"/>
      </defs>
      <g>
       <use style="stroke:#000000;stroke-linecap:butt;stroke-width:0.5;" x="303.950706668" xlink:href="#m2b70b2d34c" y="43.2"/>
      </g>
     </g>
    </g>
    <g id="xtick_5">
     <g id="line2d_14">
      <path clip-path="url(#pfd6a83a59a)" d=" M367.27 144.847 L367.27 43.2" style="fill:none;stroke:#000000;stroke-dasharray:1.000000,3.000000;stroke-dashoffset:0.0;stroke-linecap:butt;stroke-width:0.5;"/>
     </g>
     <g id="line2d_15">
      <defs>
       <path d=" M0 0 L0 -4" id="mb3608525f6"/>
      </defs>
      <g>
       <use style="stroke:#000000;stroke-linecap:butt;stroke-width:0.5;" x="367.269751653" xlink:href="#mb3608525f6" y="144.847058824"/>
      </g>
     </g>
     <g id="line2d_16">
      <defs>
       <path d=" M0 0 L0 4" id="m2b70b2d34c"/>
      </defs>
      <g>
       <use style="stroke:#000000;stroke-linecap:butt;stroke-width:0.5;" x="367.269751653" xlink:href="#m2b70b2d34c" y="43.2"/>
      </g>
     </g>
    </g>
    <g id="xtick_6">
     <g id="line2d_17">
      <path clip-path="url(#pfd6a83a59a)" d=" M430.589 144.847 L430.589 43.2" style="fill:none;stroke:#000000;stroke-dasharray:1.000000,3.000000;stroke-dashoffset:0.0;stroke-linecap:butt;stroke-width:0.5;"/>
     </g>
     <g id="line2d_18">
      <defs>
       <path d=" M0 0 L0 -4" id="mb3608525f6"/>
      </defs>
      <g>
       <use style="stroke:#000000;stroke-linecap:butt;stroke-width:0.5;" x="430.588796638" xlink:href="#mb3608525f6" y="144.847058824"/>
      </g>
     </g>
     <g id="line2d_19">
      <defs>
       <path d=" M0 0 L0 4" id="m2b70b2d34c"/>
      </defs>
      <g>
       <use style="stroke:#000000;stroke-linecap:butt;stroke-width:0.5;" x="430.588796638" xlink:href="#m2b70b2d34c" y="43.2"/>
      </g>
     </g>
    </g>
    <g id="xtick_7">
     <g id="line2d_20">
      <path clip-path="url(#pfd6a83a59a)" d=" M493.908 144.847 L493.908 43.2" style="fill:none;stroke:#000000;stroke-dasharray:1.000000,3.000000;stroke-dashoffset:0.0;stroke-linecap:butt;stroke-width:0.5;"/>
     </g>
     <g id="line2d_21">
      <defs>
       <path d=" M0 0 L0 -4" id="mb3608525f6"/>
      </defs>
      <g>
       <use style="stroke:#000000;stroke-linecap:butt;stroke-width:0.5;" x="493.907841623" xlink:href="#mb3608525f6" y="144.847058824"/>
      </g>
     </g>
     <g id="line2d_22">
      <defs>
       <path d=" M0 0 L0 4" id="m2b70b2d34c"/>
      </defs>
      <g>
       <use style="stroke:#000000;stroke-linecap:butt;stroke-width:0.5;" x="493.907841623" xlink:href="#m2b70b2d34c" y="43.2"/>
      </g>
     </g>
    </g>
   </g>
   <g id="matplotlib.axis_2">
    <g id="ytick_1">
     <g id="line2d_23">
      <path clip-path="url(#pfd6a83a59a)" d=" M72 144.847 L518.4 144.847" style="fill:none;stroke:#000000;stroke-dasharray:1.000000,3.000000;stroke-dashoffset:0.0;stroke-linecap:butt;stroke-width:0.5;"/>
     </g>
     <g id="line2d_24">
      <defs>
       <path d=" M0 0 L4 0" id="mf6f51d933e"/>
      </defs>
      <g>
       <use style="stroke:#000000;stroke-linecap:butt;stroke-width:0.5;" x="72.0" xlink:href="#mf6f51d933e" y="144.847058824"/>
      </g>
     </g>
     <g id="line2d_25">
      <defs>
       <path d=" M0 0 L-4 0" id="md2dc188fb6"/>
      </defs>
      <g>
       <use style="stroke:#000000;stroke-linecap:butt;stroke-width:0.5;" x="518.4" xlink:href="#md2dc188fb6" y="144.847058824"/>
      </g>
     </g>
     <g id="text_1">
      <!-- 0 -->
      <defs>
       <path d=" M31.7812 66.4062 Q24.1719 66.4062 20.3281 58.9062 Q16.5 51.4219 16.5 36.375 Q16.5 21.3906 20.3281 13.8906 Q24.1719 6.39062 31.7812 6.39062 Q39.4531 6.39062 43.2812 13.8906 Q47.125 21.3906 47.125 36.375 Q47.125 51.4219 43.2812 58.9062 Q39.4531 66.4062 31.7812 66.4062 M31.7812 74.2188 Q44.0469 74.2188 50.5156 64.5156 Q56.9844 54.8281 56.9844 36.375 Q56.9844 17.9688 50.5156 8.26562 Q44.0469 -1.42188 31.7812 -1.42188 Q19.5312 -1.42188 13.0625 8.26562 Q6.59375 17.9688 6.59375 36.375 Q6.59375 54.8281 13.0625 64.5156 Q19.5312 74.2188 31.7812 74.2188" id="BitstreamVeraSans-Roman-30"/>
      </defs>
      <g transform="translate(61.953125 149.214871324)scale(0.12 -0.12)">
       <use xlink:href="#BitstreamVeraSans-Roman-30"/>
      </g>
     </g>
    </g>
    <g id="ytick_2">
     <g id="line2d_26">
      <path clip-path="url(#pfd6a83a59a)" d=" M72 130.326 L518.4 130.326" style="fill:none;stroke:#000000;stroke-dasharray:1.000000,3.000000;stroke-dashoffset:0.0;stroke-linecap:butt;stroke-width:0.5;"/>
     </g>
     <g id="line2d_27">
      <defs>
       <path d=" M0 0 L4 0" id="mf6f51d933e"/>
      </defs>
      <g>
       <use style="stroke:#000000;stroke-linecap:butt;stroke-width:0.5;" x="72.0" xlink:href="#mf6f51d933e" y="130.32605042"/>
      </g>
     </g>
     <g id="line2d_28">
      <defs>
       <path d=" M0 0 L-4 0" id="md2dc188fb6"/>
      </defs>
      <g>
       <use style="stroke:#000000;stroke-linecap:butt;stroke-width:0.5;" x="518.4" xlink:href="#md2dc188fb6" y="130.32605042"/>
      </g>
     </g>
     <g id="text_2">
      <!-- 5 -->
      <defs>
       <path d=" M10.7969 72.9062 L49.5156 72.9062 L49.5156 64.5938 L19.8281 64.5938 L19.8281 46.7344 Q21.9688 47.4688 24.1094 47.8281 Q26.2656 48.1875 28.4219 48.1875 Q40.625 48.1875 47.75 41.5 Q54.8906 34.8125 54.8906 23.3906 Q54.8906 11.625 47.5625 5.09375 Q40.2344 -1.42188 26.9062 -1.42188 Q22.3125 -1.42188 17.5469 -0.640625 Q12.7969 0.140625 7.71875 1.70312 L7.71875 11.625 Q12.1094 9.23438 16.7969 8.0625 Q21.4844 6.89062 26.7031 6.89062 Q35.1562 6.89062 40.0781 11.3281 Q45.0156 15.7656 45.0156 23.3906 Q45.0156 31 40.0781 35.4375 Q35.1562 39.8906 26.7031 39.8906 Q22.75 39.8906 18.8125 39.0156 Q14.8906 38.1406 10.7969 36.2812 z " id="BitstreamVeraSans-Roman-35"/>
      </defs>
      <g transform="translate(62.339375 134.61511292)scale(0.12 -0.12)">
       <use xlink:href="#BitstreamVeraSans-Roman-35"/>
      </g>
     </g>
    </g>
    <g id="ytick_3">
     <g id="line2d_29">
      <path clip-path="url(#pfd6a83a59a)" d=" M72 115.805 L518.4 115.805" style="fill:none;stroke:#000000;stroke-dasharray:1.000000,3.000000;stroke-dashoffset:0.0;stroke-linecap:butt;stroke-width:0.5;"/>
     </g>
     <g id="line2d_30">
      <defs>
       <path d=" M0 0 L4 0" id="mf6f51d933e"/>
      </defs>
      <g>
       <use style="stroke:#000000;stroke-linecap:butt;stroke-width:0.5;" x="72.0" xlink:href="#mf6f51d933e" y="115.805042017"/>
      </g>
     </g>
     <g id="line2d_31">
      <defs>
       <path d=" M0 0 L-4 0" id="md2dc188fb6"/>
      </defs>
      <g>
       <use style="stroke:#000000;stroke-linecap:butt;stroke-width:0.5;" x="518.4" xlink:href="#md2dc188fb6" y="115.805042017"/>
      </g>
     </g>
     <g id="text_3">
      <!-- 10 -->
      <defs>
       <path d=" M12.4062 8.29688 L28.5156 8.29688 L28.5156 63.9219 L10.9844 60.4062 L10.9844 69.3906 L28.4219 72.9062 L38.2812 72.9062 L38.2812 8.29688 L54.3906 8.29688 L54.3906 0 L12.4062 0 z " id="BitstreamVeraSans-Roman-31"/>
      </defs>
      <g transform="translate(54.845 120.172854517)scale(0.12 -0.12)">
       <use xlink:href="#BitstreamVeraSans-Roman-31"/>
       <use x="63.623046875" xlink:href="#BitstreamVeraSans-Roman-30"/>
      </g>
     </g>
    </g>
    <g id="ytick_4">
     <g id="line2d_32">
      <path clip-path="url(#pfd6a83a59a)" d=" M72 101.284 L518.4 101.284" style="fill:none;stroke:#000000;stroke-dasharray:1.000000,3.000000;stroke-dashoffset:0.0;stroke-linecap:butt;stroke-width:0.5;"/>
     </g>
     <g id="line2d_33">
      <defs>
       <path d=" M0 0 L4 0" id="mf6f51d933e"/>
      </defs>
      <g>
       <use style="stroke:#000000;stroke-linecap:butt;stroke-width:0.5;" x="72.0" xlink:href="#mf6f51d933e" y="101.284033613"/>
      </g>
     </g>
     <g id="line2d_34">
      <defs>
       <path d=" M0 0 L-4 0" id="md2dc188fb6"/>
      </defs>
      <g>
       <use style="stroke:#000000;stroke-linecap:butt;stroke-width:0.5;" x="518.4" xlink:href="#md2dc188fb6" y="101.284033613"/>
      </g>
     </g>
     <g id="text_4">
      <!-- 15 -->
      <g transform="translate(55.09625 105.573096113)scale(0.12 -0.12)">
       <use xlink:href="#BitstreamVeraSans-Roman-31"/>
       <use x="63.623046875" xlink:href="#BitstreamVeraSans-Roman-35"/>
      </g>
     </g>
    </g>
    <g id="ytick_5">
     <g id="line2d_35">
      <path clip-path="url(#pfd6a83a59a)" d=" M72 86.763 L518.4 86.763" style="fill:none;stroke:#000000;stroke-dasharray:1.000000,3.000000;stroke-dashoffset:0.0;stroke-linecap:butt;stroke-width:0.5;"/>
     </g>
     <g id="line2d_36">
      <defs>
       <path d=" M0 0 L4 0" id="mf6f51d933e"/>
      </defs>
      <g>
       <use style="stroke:#000000;stroke-linecap:butt;stroke-width:0.5;" x="72.0" xlink:href="#mf6f51d933e" y="86.7630252101"/>
      </g>
     </g>
     <g id="line2d_37">
      <defs>
       <path d=" M0 0 L-4 0" id="md2dc188fb6"/>
      </defs>
      <g>
       <use style="stroke:#000000;stroke-linecap:butt;stroke-width:0.5;" x="518.4" xlink:href="#md2dc188fb6" y="86.7630252101"/>
      </g>
     </g>
     <g id="text_5">
      <!-- 20 -->
      <defs>
       <path d=" M19.1875 8.29688 L53.6094 8.29688 L53.6094 0 L7.32812 0 L7.32812 8.29688 Q12.9375 14.1094 22.625 23.8906 Q32.3281 33.6875 34.8125 36.5312 Q39.5469 41.8438 41.4219 45.5312 Q43.3125 49.2188 43.3125 52.7812 Q43.3125 58.5938 39.2344 62.25 Q35.1562 65.9219 28.6094 65.9219 Q23.9688 65.9219 18.8125 64.3125 Q13.6719 62.7031 7.8125 59.4219 L7.8125 69.3906 Q13.7656 71.7812 18.9375 73 Q24.125 74.2188 28.4219 74.2188 Q39.75 74.2188 46.4844 68.5469 Q53.2188 62.8906 53.2188 53.4219 Q53.2188 48.9219 51.5312 44.8906 Q49.8594 40.875 45.4062 35.4062 Q44.1875 33.9844 37.6406 27.2188 Q31.1094 20.4531 19.1875 8.29688" id="BitstreamVeraSans-Roman-32"/>
      </defs>
      <g transform="translate(54.40625 91.1308377101)scale(0.12 -0.12)">
       <use xlink:href="#BitstreamVeraSans-Roman-32"/>
       <use x="63.623046875" xlink:href="#BitstreamVeraSans-Roman-30"/>
      </g>
     </g>
    </g>
    <g id="ytick_6">
     <g id="line2d_38">
      <path clip-path="url(#pfd6a83a59a)" d=" M72 72.242 L518.4 72.242" style="fill:none;stroke:#000000;stroke-dasharray:1.000000,3.000000;stroke-dashoffset:0.0;stroke-linecap:butt;stroke-width:0.5;"/>
     </g>
     <g id="line2d_39">
      <defs>
       <path d=" M0 0 L4 0" id="mf6f51d933e"/>
      </defs>
      <g>
       <use style="stroke:#000000;stroke-linecap:butt;stroke-width:0.5;" x="72.0" xlink:href="#mf6f51d933e" y="72.2420168067"/>
      </g>
     </g>
     <g id="line2d_40">
      <defs>
       <path d=" M0 0 L-4 0" id="md2dc188fb6"/>
      </defs>
      <g>
       <use style="stroke:#000000;stroke-linecap:butt;stroke-width:0.5;" x="518.4" xlink:href="#md2dc188fb6" y="72.2420168067"/>
      </g>
     </g>
     <g id="text_6">
      <!-- 25 -->
      <g transform="translate(54.6575 76.6098293067)scale(0.12 -0.12)">
       <use xlink:href="#BitstreamVeraSans-Roman-32"/>
       <use x="63.623046875" xlink:href="#BitstreamVeraSans-Roman-35"/>
      </g>
     </g>
    </g>
    <g id="ytick_7">
     <g id="line2d_41">
      <path clip-path="url(#pfd6a83a59a)" d=" M72 57.721 L518.4 57.721" style="fill:none;stroke:#000000;stroke-dasharray:1.000000,3.000000;stroke-dashoffset:0.0;stroke-linecap:butt;stroke-width:0.5;"/>
     </g>
     <g id="line2d_42">
      <defs>
       <path d=" M0 0 L4 0" id="mf6f51d933e"/>
      </defs>
      <g>
       <use style="stroke:#000000;stroke-linecap:butt;stroke-width:0.5;" x="72.0" xlink:href="#mf6f51d933e" y="57.7210084034"/>
      </g>
     </g>
     <g id="line2d_43">
      <defs>
       <path d=" M0 0 L-4 0" id="md2dc188fb6"/>
      </defs>
      <g>
       <use style="stroke:#000000;stroke-linecap:butt;stroke-width:0.5;" x="518.4" xlink:href="#md2dc188fb6" y="57.7210084034"/>
      </g>
     </g>
     <g id="text_7">
      <!-- 30 -->
      <defs>
       <path d=" M40.5781 39.3125 Q47.6562 37.7969 51.625 33 Q55.6094 28.2188 55.6094 21.1875 Q55.6094 10.4062 48.1875 4.48438 Q40.7656 -1.42188 27.0938 -1.42188 Q22.5156 -1.42188 17.6562 -0.515625 Q12.7969 0.390625 7.625 2.20312 L7.625 11.7188 Q11.7188 9.32812 16.5938 8.10938 Q21.4844 6.89062 26.8125 6.89062 Q36.0781 6.89062 40.9375 10.5469 Q45.7969 14.2031 45.7969 21.1875 Q45.7969 27.6406 41.2812 31.2656 Q36.7656 34.9062 28.7188 34.9062 L20.2188 34.9062 L20.2188 43.0156 L29.1094 43.0156 Q36.375 43.0156 40.2344 45.9219 Q44.0938 48.8281 44.0938 54.2969 Q44.0938 59.9062 40.1094 62.9062 Q36.1406 65.9219 28.7188 65.9219 Q24.6562 65.9219 20.0156 65.0312 Q15.375 64.1562 9.8125 62.3125 L9.8125 71.0938 Q15.4375 72.6562 20.3438 73.4375 Q25.25 74.2188 29.5938 74.2188 Q40.8281 74.2188 47.3594 69.1094 Q53.9062 64.0156 53.9062 55.3281 Q53.9062 49.2656 50.4375 45.0938 Q46.9688 40.9219 40.5781 39.3125" id="BitstreamVeraSans-Roman-33"/>
      </defs>
      <g transform="translate(54.441875 62.0888209034)scale(0.12 -0.12)">
       <use xlink:href="#BitstreamVeraSans-Roman-33"/>
       <use x="63.623046875" xlink:href="#BitstreamVeraSans-Roman-30"/>
      </g>
     </g>
    </g>
    <g id="ytick_8">
     <g id="line2d_44">
      <path clip-path="url(#pfd6a83a59a)" d=" M72 43.2 L518.4 43.2" style="fill:none;stroke:#000000;stroke-dasharray:1.000000,3.000000;stroke-dashoffset:0.0;stroke-linecap:butt;stroke-width:0.5;"/>
     </g>
     <g id="line2d_45">
      <defs>
       <path d=" M0 0 L4 0" id="mf6f51d933e"/>
      </defs>
      <g>
       <use style="stroke:#000000;stroke-linecap:butt;stroke-width:0.5;" x="72.0" xlink:href="#mf6f51d933e" y="43.2"/>
      </g>
     </g>
     <g id="line2d_46">
      <defs>
       <path d=" M0 0 L-4 0" id="md2dc188fb6"/>
      </defs>
      <g>
       <use style="stroke:#000000;stroke-linecap:butt;stroke-width:0.5;" x="518.4" xlink:href="#md2dc188fb6" y="43.2"/>
      </g>
     </g>
     <g id="text_8">
      <!-- 35 -->
      <g transform="translate(54.693125 47.5678125)scale(0.12 -0.12)">
       <use xlink:href="#BitstreamVeraSans-Roman-33"/>
       <use x="63.623046875" xlink:href="#BitstreamVeraSans-Roman-35"/>
      </g>
     </g>
    </g>
    <g id="text_9">
     <!-- Temperature (C) -->
     <defs>
      <path id="BitstreamVeraSans-Roman-20"/>
      <path d=" M41.1094 46.2969 Q39.5938 47.1719 37.8125 47.5781 Q36.0312 48 33.8906 48 Q26.2656 48 22.1875 43.0469 Q18.1094 38.0938 18.1094 28.8125 L18.1094 0 L9.07812 0 L9.07812 54.6875 L18.1094 54.6875 L18.1094 46.1875 Q20.9531 51.1719 25.4844 53.5781 Q30.0312 56 36.5312 56 Q37.4531 56 38.5781 55.875 Q39.7031 55.7656 41.0625 55.5156 z " id="BitstreamVeraSans-Roman-72"/>
      <path d=" M52 44.1875 Q55.375 50.25 60.0625 53.125 Q64.75 56 71.0938 56 Q79.6406 56 84.2812 50.0156 Q88.9219 44.0469 88.9219 33.0156 L88.9219 0 L79.8906 0 L79.8906 32.7188 Q79.8906 40.5781 77.0938 44.375 Q74.3125 48.1875 68.6094 48.1875 Q61.625 48.1875 57.5625 43.5469 Q53.5156 38.9219 53.5156 30.9062 L53.5156 0 L44.4844 0 L44.4844 32.7188 Q44.4844 40.625 41.7031 44.4062 Q38.9219 48.1875 33.1094 48.1875 Q26.2188 48.1875 22.1562 43.5312 Q18.1094 38.875 18.1094 30.9062 L18.1094 0 L9.07812 0 L9.07812 54.6875 L18.1094 54.6875 L18.1094 46.1875 Q21.1875 51.2188 25.4844 53.6094 Q29.7812 56 35.6875 56 Q41.6562 56 45.8281 52.9688 Q50 49.9531 52 44.1875" id="BitstreamVeraSans-Roman-6d"/>
      <path d=" M8.01562 75.875 L15.8281 75.875 Q23.1406 64.3594 26.7812 53.3125 Q30.4219 42.2812 30.4219 31.3906 Q30.4219 20.4531 26.7812 9.375 Q23.1406 -1.70312 15.8281 -13.1875 L8.01562 -13.1875 Q14.5 -2 17.7031 9.0625 Q20.9062 20.125 20.9062 31.3906 Q20.9062 42.6719 17.7031 53.6562 Q14.5 64.6562 8.01562 75.875" id="BitstreamVeraSans-Roman-29"/>
      <path d=" M-0.296875 72.9062 L61.375 72.9062 L61.375 64.5938 L35.5 64.5938 L35.5 0 L25.5938 0 L25.5938 64.5938 L-0.296875 64.5938 z " id="BitstreamVeraSans-Roman-54"/>
      <path d=" M31 75.875 Q24.4688 64.6562 21.2812 53.6562 Q18.1094 42.6719 18.1094 31.3906 Q18.1094 20.125 21.3125 9.0625 Q24.5156 -2 31 -13.1875 L23.1875 -13.1875 Q15.875 -1.70312 12.2344 9.375 Q8.59375 20.4531 8.59375 31.3906 Q8.59375 42.2812 12.2031 53.3125 Q15.8281 64.3594 23.1875 75.875 z " id="BitstreamVeraSans-Roman-28"/>
      <path d=" M56.2031 29.5938 L56.2031 25.2031 L14.8906 25.2031 Q15.4844 15.9219 20.4844 11.0625 Q25.4844 6.20312 34.4219 6.20312 Q39.5938 6.20312 44.4531 7.46875 Q49.3125 8.73438 54.1094 11.2812 L54.1094 2.78125 Q49.2656 0.734375 44.1875 -0.34375 Q39.1094 -1.42188 33.8906 -1.42188 Q20.7969 -1.42188 13.1562 6.1875 Q5.51562 13.8125 5.51562 26.8125 Q5.51562 40.2344 12.7656 48.1094 Q20.0156 56 32.3281 56 Q43.3594 56 49.7812 48.8906 Q56.2031 41.7969 56.2031 29.5938 M47.2188 32.2344 Q47.125 39.5938 43.0938 43.9844 Q39.0625 48.3906 32.4219 48.3906 Q24.9062 48.3906 20.3906 44.1406 Q15.875 39.8906 15.1875 32.1719 z " id="BitstreamVeraSans-Roman-65"/>
      <path d=" M64.4062 67.2812 L64.4062 56.8906 Q59.4219 61.5312 53.7812 63.8125 Q48.1406 66.1094 41.7969 66.1094 Q29.2969 66.1094 22.6562 58.4688 Q16.0156 50.8281 16.0156 36.375 Q16.0156 21.9688 22.6562 14.3281 Q29.2969 6.6875 41.7969 6.6875 Q48.1406 6.6875 53.7812 8.98438 Q59.4219 11.2812 64.4062 15.9219 L64.4062 5.60938 Q59.2344 2.09375 53.4375 0.328125 Q47.6562 -1.42188 41.2188 -1.42188 Q24.6562 -1.42188 15.125 8.70312 Q5.60938 18.8438 5.60938 36.375 Q5.60938 53.9531 15.125 64.0781 Q24.6562 74.2188 41.2188 74.2188 Q47.75 74.2188 53.5312 72.4844 Q59.3281 70.75 64.4062 67.2812" id="BitstreamVeraSans-Roman-43"/>
      <path d=" M18.3125 70.2188 L18.3125 54.6875 L36.8125 54.6875 L36.8125 47.7031 L18.3125 47.7031 L18.3125 18.0156 Q18.3125 11.3281 20.1406 9.42188 Q21.9688 7.51562 27.5938 7.51562 L36.8125 7.51562 L36.8125 0 L27.5938 0 Q17.1875 0 13.2344 3.875 Q9.28125 7.76562 9.28125 18.0156 L9.28125 47.7031 L2.6875 47.7031 L2.6875 54.6875 L9.28125 54.6875 L9.28125 70.2188 z " id="BitstreamVeraSans-Roman-74"/>
      <path d=" M8.5 21.5781 L8.5 54.6875 L17.4844 54.6875 L17.4844 21.9219 Q17.4844 14.1562 20.5 10.2656 Q23.5312 6.39062 29.5938 6.39062 Q36.8594 6.39062 41.0781 11.0312 Q45.3125 15.6719 45.3125 23.6875 L45.3125 54.6875 L54.2969 54.6875 L54.2969 0 L45.3125 0 L45.3125 8.40625 Q42.0469 3.42188 37.7188 1 Q33.4062 -1.42188 27.6875 -1.42188 Q18.2656 -1.42188 13.375 4.4375 Q8.5 10.2969 8.5 21.5781" id="BitstreamVeraSans-Roman-75"/>
      <path d=" M34.2812 27.4844 Q23.3906 27.4844 19.1875 25 Q14.9844 22.5156 14.9844 16.5 Q14.9844 11.7188 18.1406 8.90625 Q21.2969 6.10938 26.7031 6.10938 Q34.1875 6.10938 38.7031 11.4062 Q43.2188 16.7031 43.2188 25.4844 L43.2188 27.4844 z  M52.2031 31.2031 L52.2031 0 L43.2188 0 L43.2188 8.29688 Q40.1406 3.32812 35.5469 0.953125 Q30.9531 -1.42188 24.3125 -1.42188 Q15.9219 -1.42188 10.9531 3.29688 Q6 8.01562 6 15.9219 Q6 25.1406 12.1719 29.8281 Q18.3594 34.5156 30.6094 34.5156 L43.2188 34.5156 L43.2188 35.4062 Q43.2188 41.6094 39.1406 45 Q35.0625 48.3906 27.6875 48.3906 Q23 48.3906 18.5469 47.2656 Q14.1094 46.1406 10.0156 43.8906 L10.0156 52.2031 Q14.9375 54.1094 19.5781 55.0469 Q24.2188 56 28.6094 56 Q40.4844 56 46.3438 49.8438 Q52.2031 43.7031 52.2031 31.2031" id="BitstreamVeraSans-Roman-61"/>
      <path d=" M18.1094 8.20312 L18.1094 -20.7969 L9.07812 -20.7969 L9.07812 54.6875 L18.1094 54.6875 L18.1094 46.3906 Q20.9531 51.2656 25.2656 53.625 Q29.5938 56 35.5938 56 Q45.5625 56 51.7812 48.0938 Q58.0156 40.1875 58.0156 27.2969 Q58.0156 14.4062 51.7812 6.48438 Q45.5625 -1.42188 35.5938 -1.42188 Q29.5938 -1.42188 25.2656 0.953125 Q20.9531 3.32812 18.1094 8.20312 M48.6875 27.2969 Q48.6875 37.2031 44.6094 42.8438 Q40.5312 48.4844 33.4062 48.4844 Q26.2656 48.4844 22.1875 42.8438 Q18.1094 37.2031 18.1094 27.2969 Q18.1094 17.3906 22.1875 11.75 Q26.2656 6.10938 33.4062 6.10938 Q40.5312 6.10938 44.6094 11.75 Q48.6875 17.3906 48.6875 27.2969" id="BitstreamVeraSans-Roman-70"/>
     </defs>
     <g transform="translate(49.40625 139.811966912)rotate(-90.0)scale(0.12 -0.12)">
      <use xlink:href="#BitstreamVeraSans-Roman-54"/>
      <use x="44.083984375" xlink:href="#BitstreamVeraSans-Roman-65"/>
      <use x="105.607421875" xlink:href="#BitstreamVeraSans-Roman-6d"/>
      <use x="203.01953125" xlink:href="#BitstreamVeraSans-Roman-70"/>
      <use x="266.49609375" xlink:href="#BitstreamVeraSans-Roman-65"/>
      <use x="328.01953125" xlink:href="#BitstreamVeraSans-Roman-72"/>
      <use x="369.1328125" xlink:href="#BitstreamVeraSans-Roman-61"/>
      <use x="430.412109375" xlink:href="#BitstreamVeraSans-Roman-74"/>
      <use x="469.62109375" xlink:href="#BitstreamVeraSans-Roman-75"/>
      <use x="533.0" xlink:href="#BitstreamVeraSans-Roman-72"/>
      <use x="571.86328125" xlink:href="#BitstreamVeraSans-Roman-65"/>
      <use x="633.38671875" xlink:href="#BitstreamVeraSans-Roman-20"/>
      <use x="665.173828125" xlink:href="#BitstreamVeraSans-Roman-28"/>
      <use x="704.1875" xlink:href="#BitstreamVeraSans-Roman-43"/>
      <use x="774.01171875" xlink:href="#BitstreamVeraSans-Roman-29"/>
     </g>
    </g>
   </g>
   <g id="patch_3">
    <path d=" M72 43.2 L518.4 43.2" style="fill:none;stroke:#000000;"/>
   </g>
   <g id="patch_4">
    <path d=" M518.4 144.847 L518.4 43.2" style="fill:none;stroke:#000000;"/>
   </g>
   <g id="patch_5">
    <path d=" M72 144.847 L518.4 144.847" style="fill:none;stroke:#000000;"/>
   </g>
   <g id="patch_6">
    <path d=" M72 144.847 L72 43.2" style="fill:none;stroke:#000000;"/>
   </g>
  </g>
  <g id="axes_2">
   <g id="patch_7">
    <path d=" M72 388.8 L518.4 388.8 L518.4 165.176 L72 165.176 z " style="fill:#ffffff;"/>
   </g>
   <g id="line2d_47">
    <path clip-path="url(#p97f0b5ab72)" d=" M72 365.156 L72.4395 365.191 L72.8811 365.523 L73.3228 365.669 L74.2039 365.669 L74.6471 365.907 L75.0873 365.846 L75.529 365.64 L75.9684 365.575 L76.4094 365.734 L76.851 365.753 L77.2927 366.029 L77.7322 366.568 L78.614 368.56 L79.0535 368.346 L79.4966 367.396 L79.9361 366.797 L80.3785 366.847 L81.7006 369.306 L82.1415 369.817 L82.5839 369.239 L83.0241 367.683 L83.4636 366.753 L83.9038 366.467 L84.3447 365.892 L84.7842 366.179 L85.2237 366.935 L86.1034 367.979 L86.983 370.157 L87.4247 370.232 L88.308 367.259 L88.7482 367.136 L89.1877 367.226 L90.0674 366.8 L90.5091 366.276 L90.9485 366.244 L91.388 365.827 L92.2684 366.889 L93.1473 365.647 L93.5875 366.376 L94.0278 366.47 L94.4687 365.525 L94.9074 364.93 L95.79 365.732 L96.2324 365.757 L96.6719 365.411 L97.5508 364.311 L98.8729 363.163 L100.192 362.562 L101.072 362.045 L101.951 362 L102.392 361.913 L102.833 362.073 L103.714 362.087 L104.154 362.232 L108.119 362.072 L108.559 362.133 L109.441 362.038 L110.762 362.2 L111.642 362.161 L112.961 362.345 L113.841 362.334 L115.163 362.447 L116.044 362.473 L116.484 362.545 L116.924 362.485 L119.127 362.727 L121.33 362.796 L121.772 362.946 L125.29 363.175 L126.17 363.285 L129.25 363.427 L131.893 363.831 L132.772 363.918 L133.654 364.278 L134.533 364.619 L134.974 365.001 L135.416 365.172 L135.855 365.075 L136.295 365.511 L136.736 365.713 L137.176 365.782 L138.057 365.34 L138.499 364.87 L138.939 364.861 L140.262 364.301 L140.705 363.657 L141.146 364.163 L142.027 364.283 L142.471 364.618 L142.911 364.374 L143.351 363.145 L143.791 363.058 L144.237 363.553 L145.117 364.206 L146.437 363.938 L146.877 363.505 L147.318 363.415 L147.757 363.708 L148.199 363.251 L148.637 362.284 L149.519 362.336 L150.399 362.578 L150.839 362.562 L151.279 362.397 L151.719 362 L152.159 361.163 L152.599 361.212 L153.041 361.093 L153.482 360.719 L154.363 360.427 L155.249 359.383 L155.691 359.245 L157.013 357.447 L157.454 357.12 L158.336 355.976 L159.216 354.961 L159.656 354.528 L160.536 354.257 L160.976 353.655 L161.859 353.246 L162.739 353.14 L164.058 352.982 L164.939 353.043 L165.82 353.179 L167.143 353.278 L167.582 353.484 L168.022 353.385 L170.228 353.516 L171.552 353.421 L172.874 353.509 L173.313 353.425 L173.755 353.524 L174.197 353.374 L175.077 353.484 L176.399 353.375 L177.279 353.446 L178.16 353.482 L183.007 353.78 L185.213 354 L186.094 354.012 L186.975 354.118 L187.856 354.151 L188.737 354.314 L189.619 354.357 L190.059 354.315 L191.38 354.558 L191.82 354.503 L193.585 354.814 L194.026 354.769 L194.466 354.884 L194.906 354.819 L195.786 354.965 L197.106 355.007 L198.869 355.118 L199.31 355.244 L200.192 355.216 L200.633 355.351 L201.074 355.294 L201.515 355.408 L202.397 355.351 L203.278 355.461 L205.484 355.288 L207.247 355.417 L211.213 355.725 L212.093 355.879 L212.974 355.892 L215.617 356.144 L216.057 356.089 L216.938 356.26 L217.378 356.181 L218.257 356.211 L220.021 356.388 L220.462 356.464 L223.031 356.152 L226.367 355.716 L226.807 355.805 L227.25 355.643 L228.572 355.536 L229.894 355.215 L232.101 355.386 L232.984 355.423 L237.837 355.47 L238.718 355.577 L239.603 355.54 L240.043 355.614 L240.484 355.497 L243.569 355.707 L244.894 355.719 L247.537 355.869 L247.977 355.992 L248.859 355.876 L251.062 356.055 L251.944 356.093 L253.266 356.165 L253.707 356.064 L254.589 356.149 L255.471 356.049 L256.354 356.195 L256.795 356.081 L257.233 356.253 L258.996 356.181 L259.435 356.347 L259.876 356.263 L261.637 356.583 L262.519 356.165 L263.401 356.923 L264.722 357.493 L265.164 357.377 L265.605 357.432 L266.486 356.97 L267.809 356.294 L268.249 355.349 L268.692 354.971 L269.134 355.726 L270.015 358.13 L270.36 358.627 L272.703 356.922 L273.585 357.55 L274.466 357.134 L274.906 356.664 L275.348 355.591 L275.788 355.029 L276.227 353.653 L276.669 352.647 L277.111 353.74 L277.55 353.201 L277.99 353.062 L278.433 352.789 L278.873 352.016 L279.314 351.73 L279.755 350.241 L280.195 349.304 L280.636 349.025 L281.077 349.153 L281.959 349.154 L282.399 349.681 L282.84 350.03 L283.724 348.97 L284.165 348.895 L284.604 348.533 L285.923 346.075 L286.806 345.111 L287.245 344.274 L287.687 343.824 L288.126 343.007 L288.565 342.732 L289.005 342.755 L289.447 342.534 L290.771 341.23 L292.971 341.196 L294.737 341.194 L295.619 341.251 L296.5 341.226 L296.943 341.266 L297.382 341.164 L298.264 341.205 L299.145 341.152 L300.469 341.325 L301.35 341.334 L301.791 341.472 L302.232 341.403 L302.672 341.521 L304.446 341.558 L308.859 341.961 L309.3 341.873 L310.621 342.041 L311.061 342.003 L312.828 342.239 L318.554 342.648 L318.993 342.868 L319.876 342.902 L322.079 343.655 L323.418 343.82 L323.858 343.926 L324.299 343.859 L326.065 342.952 L326.504 342.491 L326.944 342.266 L327.387 341.714 L328.272 340.94 L328.714 340.498 L329.594 340.278 L330.474 339.602 L330.914 339.564 L331.356 339.838 L332.677 341.264 L333.118 341.232 L333.558 341.343 L334.44 340.82 L335.322 340.718 L335.761 340.322 L336.203 340.124 L336.642 339.756 L337.965 339.551 L339.294 339.013 L340.147 338.161 L340.631 337.519 L341.082 337.274 L341.532 337.309 L341.982 336.367 L342.433 335.809 L342.883 335.007 L343.334 334.449 L343.784 334.1 L344.233 333.577 L344.682 332.495 L345.132 330.995 L346.033 329.181 L346.933 327.193 L348.285 325.344 L348.736 324.297 L350.086 322.239 L350.536 322.169 L351.435 321.157 L351.885 321.053 L352.336 320.669 L352.763 320.502 L353.254 320.037 L354.227 319.902 L354.712 319.528 L355.126 319.657 L356.026 319.623 L356.476 319.657 L356.927 319.413 L357.377 319.692 L357.827 320.111 L358.277 320.32 L358.726 320.041 L359.176 320.285 L359.627 320.355 L360.078 320.111 L360.528 320.53 L360.979 320.25 L361.43 320.355 L361.88 320.599 L362.78 320.495 L363.23 320.704 L363.68 320.599 L364.13 320.669 L364.579 321.018 L365.48 320.878 L365.931 321.157 L366.382 321.227 L366.832 321.157 L367.283 321.402 L367.733 321.053 L368.183 321.367 L369.082 321.716 L369.531 321.437 L370.881 322.134 L371.33 321.89 L372.229 322.378 L372.679 322.169 L374.028 322.658 L374.477 322.378 L374.927 322.797 L375.377 322.588 L375.828 322.902 L376.728 322.727 L377.179 323.041 L377.629 323.181 L378.53 323.285 L378.979 323.425 L379.429 323.285 L379.879 323.565 L380.779 323.39 L381.229 323.634 L382.577 323.669 L383.027 323.844 L383.477 324.227 L383.926 323.948 L384.827 323.913 L387.526 324.541 L387.977 325.03 L388.427 324.786 L389.328 324.96 L389.779 325.518 L390.23 325.483 L390.68 325.658 L391.13 325.588 L391.58 325.379 L392.03 325.902 L392.481 326.634 L392.931 326.983 L393.381 326.844 L394.281 327.262 L395.183 327.751 L395.632 327.716 L396.083 327.89 L396.533 327.751 L396.984 327.89 L397.434 327.018 L397.885 326.565 L398.336 326.565 L399.236 327.611 L399.686 327.855 L400.136 327.262 L400.587 327.053 L401.488 325.832 L401.939 325.483 L402.39 324.96 L402.84 324.646 L403.291 324.123 L403.741 323.844 L404.19 323.739 L404.641 324.262 L405.091 323.111 L405.542 322.448 L405.991 322.971 L406.44 322.448 L406.89 321.471 L407.79 321.262 L408.239 320.843 L408.69 321.681 L409.139 321.227 L409.588 320.076 L410.038 317.983 L410.94 315.227 L411.39 314.739 L413.643 311.006 L414.092 310.552 L414.541 310.483 L414.991 309.959 L415.441 309.227 L415.89 309.052 L416.341 308.355 L416.79 308.006 L417.24 308.11 L417.691 307.343 L418.142 307.238 L418.592 306.715 L419.043 306.61 L419.493 306.122 L419.943 306.052 L421.294 306.541 L421.745 306.017 L422.195 306.436 L423.545 306.575 L423.996 306.924 L424.896 306.994 L425.346 306.854 L425.795 307.064 L426.695 306.959 L427.145 307.099 L427.594 307.064 L428.044 307.343 L428.943 307.029 L429.392 307.273 L429.842 307.238 L430.293 307.692 L430.743 307.413 L431.194 307.552 L431.644 307.517 L432.094 307.762 L432.543 307.727 L432.993 307.866 L433.443 307.692 L434.793 308.215 L435.242 308.041 L436.591 308.145 L437.041 308.529 L437.939 308.25 L438.389 308.634 L438.839 308.738 L439.289 308.564 L439.738 308.738 L440.188 309.052 L440.638 308.913 L441.088 309.436 L441.537 309.017 L443.338 309.68 L444.239 309.471 L444.69 309.82 L445.591 309.785 L446.04 309.959 L446.489 309.855 L449.191 310.622 L449.641 310.971 L450.091 311.041 L450.541 311.39 L450.969 311.975 L451.531 312.401 L451.981 312.192 L452.881 312.785 L453.331 312.785 L453.781 313.204 L454.231 312.471 L454.681 312.541 L455.132 312.959 L455.582 312.925 L456.032 313.169 L456.482 313.273 L456.932 312.611 L457.382 312.925 L457.831 311.773 L458.282 312.576 L459.632 312.297 L460.083 311.424 L460.983 310.587 L461.883 309.017 L462.332 309.192 L463.232 308.738 L463.682 309.087 L464.582 311.285 L465.033 310.308 L465.484 309.645 L465.934 309.436 L466.385 308.599 L466.835 308.459 L467.286 308.041 L467.737 306.924 L468.187 306.401 L469.987 303.575 L470.438 302.982 L470.889 301.343 L471.339 300.645 L472.24 297.505 L473.592 293.354 L474.49 291.331 L474.94 289.83 L475.39 289.551 L476.291 287.737 L476.74 287.284 L477.64 285.574 L478.09 284.842 L478.991 284.702 L479.441 284.074 L479.891 282.923 L480.34 282.47 L480.79 282.295 L481.24 282.784 L481.69 281.807 L482.139 281.772 L482.588 282.156 L483.038 281.946 L483.496 281.896 L483.939 282.26 L484.389 282.121 L484.84 282.156 L485.29 282.714 L485.74 282.33 L486.19 282.644 L486.639 282.295 L487.089 282.888 L487.54 282.749 L487.991 282.749 L488.891 282.4 L489.341 282.644 L489.79 282.4 L490.241 282.47 L490.691 282.4 L491.14 282.121 L492.49 282.051 L493.391 281.842 L493.842 281.772 L494.292 282.225 L495.644 282.121 L496.545 282.226 L496.996 282.156 L497.446 282.26 L497.896 281.981 L498.345 281.912 L498.795 282.156 L499.245 282.086 L499.694 281.772 L500.144 281.946 L500.593 281.912 L501.494 282.156 L501.944 281.632 L502.393 281.563 L502.843 281.702 L503.292 281.493 L503.742 281.563 L504.192 281.807 L505.543 281.598 L505.994 281.353 L506.444 281.458 L506.895 281.877 L507.344 281.632 L507.794 282.26 L508.696 282.191 L509.595 282.295 L510.045 282.191 L510.494 282.26 L511.395 282.819 L511.845 282.958 L512.296 283.237 L513.197 283.516 L513.648 283.412 L514.549 283.76 L515.45 283.656 L515.901 283.97 L516.802 284.144 L517.252 283.621 L517.702 283.586 L518.152 283.9 L518.4 284.493 L518.4 284.493" style="fill:none;stroke:#008000;stroke-width:0.5;"/>
   </g>
   <g id="line2d_48">
    <path clip-path="url(#p97f0b5ab72)" d=" M72 309.069 L72.4395 308.985 L72.8811 308.706 L73.3228 309.445 L73.7637 309.259 L74.2039 309.517 L74.6471 310.489 L75.0873 310.255 L75.9684 308.22 L76.4094 308.476 L76.851 308.543 L77.2927 309.215 L77.7322 310.897 L78.1746 312.15 L78.614 312.861 L79.0535 312.828 L79.4966 311.143 L79.9361 310.444 L80.3785 311.013 L81.2611 313.254 L81.7006 313.728 L82.1415 313.863 L82.5839 312.796 L83.0241 310.419 L83.4636 308.822 L83.9038 309.038 L84.3447 307.574 L84.7842 307.78 L85.2237 309.838 L86.1034 311.55 L86.983 312.739 L87.4247 312.913 L87.8686 310.645 L88.308 307.669 L88.7482 307.361 L89.1877 306.85 L89.6286 306.726 L90.0674 306.171 L90.5091 305.804 L90.9485 305.888 L91.388 305.435 L91.8282 306.624 L92.2684 306.959 L92.7071 305.62 L93.1473 305.007 L93.5875 306.161 L94.0278 306.437 L94.9074 304.41 L95.3498 304.988 L95.79 306.016 L96.2324 306.332 L96.6719 306.154 L97.5508 304.696 L98.8729 303.016 L99.3124 302.761 L101.072 300.542 L101.511 300.299 L101.951 300.267 L102.392 300.364 L102.833 300.243 L103.714 300.445 L104.595 300.577 L105.913 300.753 L107.237 300.81 L107.676 300.9 L108.559 300.896 L109.441 301.063 L109.883 301.123 L110.762 301.091 L111.202 301.288 L111.642 301.249 L112.081 301.456 L112.521 301.427 L113.4 301.627 L113.841 301.713 L114.282 301.648 L115.163 301.94 L115.603 301.874 L117.364 302.317 L117.805 302.257 L118.248 302.446 L118.591 302.352 L120.009 302.59 L120.449 302.653 L120.889 302.839 L122.651 303.077 L123.091 303.297 L123.97 303.168 L124.411 303.404 L124.85 303.316 L126.609 303.665 L127.05 303.643 L129.25 304.473 L129.689 304.902 L130.57 305.168 L131.893 305.723 L132.332 305.419 L132.772 305.552 L133.654 306.248 L134.093 306.406 L134.974 306.997 L135.855 307.403 L136.295 308.061 L137.176 307.743 L137.617 307.726 L138.499 306.77 L138.939 306.698 L140.262 305.39 L140.705 304.592 L141.146 305.215 L142.027 305.164 L142.471 305.498 L142.911 305.12 L143.351 304.507 L144.237 304.258 L145.117 304.922 L145.997 304.712 L146.437 304.285 L146.877 303.694 L147.757 303.685 L148.199 302.641 L149.519 302.706 L149.959 302.525 L150.399 302.638 L150.839 302.615 L154.363 299.253 L155.249 298.003 L155.691 297.716 L156.573 296.49 L157.454 295.805 L159.216 292.47 L160.536 290.654 L160.976 289.121 L161.859 287.57 L163.179 286.429 L164.499 286.093 L167.582 286.628 L168.022 286.803 L168.906 286.82 L169.347 287.068 L169.788 287.021 L171.109 287.406 L171.993 287.505 L172.432 287.716 L172.874 287.615 L173.313 287.788 L175.519 287.828 L175.959 287.854 L176.399 288.025 L176.839 287.967 L178.16 288.296 L178.6 288.247 L180.803 288.797 L181.244 288.816 L182.124 289.117 L183.007 289.284 L183.448 289.244 L184.33 289.537 L186.533 289.895 L186.975 290.05 L187.415 290.079 L187.856 290.286 L188.737 290.384 L189.619 290.561 L190.059 290.826 L190.94 290.939 L191.82 291.068 L192.262 291.342 L194.906 292.108 L195.346 291.649 L195.786 291.475 L196.226 291.998 L196.666 292.089 L197.547 291.675 L198.869 292.106 L199.751 292.084 L200.633 292.272 L204.605 292.36 L205.484 292.179 L211.213 293.118 L212.093 293.41 L212.533 293.397 L213.415 293.721 L213.856 293.768 L214.296 293.962 L215.177 294.023 L216.938 294.324 L217.378 294.477 L218.257 294.537 L219.58 295.069 L220.462 295.692 L220.903 296.122 L221.344 295.516 L222.226 295.422 L223.031 295.28 L226.367 294.281 L229.012 292.392 L229.894 292.156 L231.217 292.037 L232.101 292.228 L233.866 292.386 L241.806 292.998 L243.569 293.196 L245.335 293.354 L245.776 293.49 L246.657 293.494 L247.097 293.729 L247.537 293.61 L248.859 293.844 L249.299 293.768 L250.621 293.97 L252.825 294.3 L254.148 294.234 L256.795 294.291 L257.233 294.24 L257.674 294.505 L258.555 294.3 L259.435 294.18 L260.316 293.739 L261.196 294.762 L261.637 294.711 L262.078 293.963 L262.958 294.865 L263.401 295.715 L264.282 296.242 L264.722 296.119 L266.045 295.17 L267.368 293.567 L267.809 292.505 L268.249 290.892 L268.692 290.658 L269.134 292.063 L269.575 293.96 L270.015 295.167 L270.36 295.41 L272.703 293.426 L273.144 293.734 L273.585 293.421 L274.025 293.381 L274.466 292.688 L274.906 291.324 L275.348 290.722 L275.788 290.503 L276.227 288.862 L276.669 287.746 L277.111 289.046 L277.99 288.316 L278.873 285.773 L279.314 285.952 L279.755 284.117 L280.195 283.724 L280.636 282.721 L281.077 282.866 L281.959 282.706 L282.399 283.617 L282.84 284.129 L283.281 283.724 L285.484 280.625 L286.363 279.223 L286.806 278.595 L287.245 277.457 L287.687 276.797 L288.126 275.751 L288.565 275.208 L289.005 275.105 L289.447 274.576 L290.331 272.913 L290.771 272.407 L291.211 272.159 L291.651 272.301 L292.091 272.211 L292.971 272.407 L293.855 272.598 L297.823 272.976 L298.704 272.998 L299.145 273.139 L300.028 273.221 L300.909 273.412 L309.741 275.127 L311.061 275.562 L311.501 275.538 L311.945 275.728 L312.387 275.628 L314.151 276.068 L317.672 276.769 L318.554 277.266 L318.993 277.579 L319.876 277.929 L320.757 278.337 L322.539 278.874 L324.299 279.187 L324.741 279.194 L326.065 278.732 L327.387 277.767 L327.828 277.099 L328.272 277.05 L330.035 275.143 L330.914 274.533 L332.239 273.283 L332.677 273.22 L334 272.688 L334.882 271.764 L336.203 270.376 L337.522 269.474 L337.965 268.815 L338.408 268.617 L339.294 267.41 L339.735 267.071 L340.631 266.056 L341.082 264.87 L341.982 264.032 L342.883 262.323 L343.334 262.009 L344.233 260.404 L345.132 258.276 L345.583 257.16 L346.033 256.916 L346.483 255.765 L347.384 254.509 L347.834 253.462 L348.285 252.102 L349.186 251.055 L349.636 250.671 L351.435 247.078 L351.885 245.787 L352.336 245.125 L352.763 243.659 L353.254 242.652 L354.712 240.819 L355.126 240.694 L355.575 240.415 L356.026 240.555 L356.927 240.624 L357.377 240.345 L357.827 240.694 L358.277 240.624 L358.726 240.973 L359.176 240.764 L359.627 241.392 L360.078 241.636 L360.528 241.287 L360.979 241.845 L361.43 241.985 L361.88 241.81 L362.331 242.194 L362.78 242.334 L363.23 242.124 L363.68 242.229 L364.13 242.648 L364.579 242.578 L365.03 242.683 L365.48 243.031 L365.931 243.066 L366.382 242.927 L366.832 243.311 L367.733 243.38 L368.183 243.799 L368.633 243.799 L369.082 243.59 L369.531 244.392 L369.981 243.869 L370.431 244.427 L370.881 244.357 L371.33 244.741 L371.779 244.532 L372.229 244.636 L373.128 245.369 L373.578 245.299 L378.53 246.799 L378.979 246.799 L379.429 247.113 L379.879 247.287 L380.328 247.287 L380.779 247.776 L381.229 247.671 L382.127 248.125 L382.577 248.055 L383.027 247.636 L383.477 248.09 L383.926 247.88 L384.827 248.16 L385.277 248.055 L385.726 248.16 L386.176 247.881 L387.076 248.194 L387.977 247.88 L388.427 248.229 L388.878 248.788 L389.328 248.613 L389.779 248.997 L390.23 249.101 L390.68 249.415 L391.13 249.59 L391.58 249.904 L392.03 250.392 L392.481 250.288 L392.931 251.369 L393.381 251.299 L393.83 250.846 L395.183 250.322 L395.632 251.055 L396.083 251.195 L396.533 250.392 L396.984 250.776 L397.434 250.288 L398.336 248.404 L398.786 249.904 L399.236 250.183 L400.136 249.799 L401.038 248.543 L401.488 248.822 L401.939 247.462 L402.39 247.148 L403.291 245.752 L403.741 245.718 L404.641 243.869 L405.091 243.171 L405.542 242.787 L405.991 241.776 L406.44 241.113 L406.89 240.031 L407.34 239.752 L407.79 238.566 L408.69 237.206 L409.139 237.136 L410.038 234.554 L410.489 233.822 L411.39 231.345 L412.291 230.438 L413.193 227.996 L413.643 226.74 L414.092 226.88 L414.541 226.252 L414.991 225.205 L415.441 225.066 L415.89 223.984 L418.142 220.461 L418.592 220.077 L419.043 219.03 L419.493 219.205 L419.943 218.751 L420.394 218.682 L422.195 219.03 L422.644 219.205 L423.095 219.135 L423.545 219.205 L423.996 218.996 L424.445 219.379 L424.896 219.519 L425.346 219.414 L426.695 219.833 L427.594 219.658 L428.044 220.077 L428.494 220.042 L428.943 220.461 L429.392 220.356 L429.842 220.565 L430.293 220.53 L431.194 220.775 L431.644 220.984 L432.094 220.74 L432.543 220.914 L433.443 221.472 L433.893 221.403 L434.793 221.612 L435.242 221.961 L435.692 221.961 L436.141 222.554 L437.041 222.31 L437.939 222.693 L438.389 222.589 L439.738 223.286 L440.188 223.042 L440.638 223.565 L441.088 223.426 L441.537 223.74 L441.987 223.67 L442.437 224.159 L442.887 224.124 L443.788 224.647 L444.239 224.926 L445.14 224.961 L445.591 225.554 L446.04 225.798 L446.939 225.938 L447.389 226.252 L447.839 226.705 L448.29 226.81 L448.74 227.403 L449.191 227.787 L449.641 227.996 L450.091 228.589 L450.541 228.345 L450.969 228.542 L451.531 229.356 L452.431 229.67 L452.881 229.74 L453.331 229.461 L453.781 229.322 L454.231 229.74 L454.681 229.74 L455.132 229.566 L455.582 229.88 L456.482 228.903 L456.932 228.624 L457.382 227.333 L457.831 227.368 L458.282 227.089 L458.732 226.182 L459.182 225.868 L459.632 225.205 L460.983 222.1 L461.433 221.821 L462.332 219.798 L462.783 219.065 L463.232 219.205 L463.682 218.751 L464.132 217.321 L464.582 217.565 L465.033 217.112 L465.934 214.774 L466.385 214.565 L466.835 213.553 L467.286 213.065 L467.737 212.367 L468.187 211.216 L469.086 210.1 L469.537 208.879 L470.438 207.518 L470.889 207.134 L471.339 205.914 L471.79 205.39 L472.24 204.309 L472.691 202.809 L473.142 202.146 L474.041 200.332 L474.49 199.39 L474.94 198.832 L475.39 197.402 L475.84 196.704 L476.291 195.657 L477.19 194.82 L478.533 192.572 L478.991 190.738 L479.891 189.064 L480.34 188.192 L480.79 187.773 L481.24 187.11 L481.69 187.703 L482.139 187.285 L482.588 187.18 L483.038 186.866 L483.496 186.835 L483.939 186.378 L484.84 187.006 L485.29 186.413 L485.74 186.517 L486.19 186.796 L486.639 186.936 L487.089 186.622 L487.54 186.971 L487.991 186.866 L488.441 187.11 L488.891 187.529 L489.341 187.041 L490.241 187.355 L491.14 187.738 L491.59 187.459 L492.49 188.087 L492.941 188.017 L493.391 188.401 L493.842 188.401 L494.292 188.052 L495.194 188.89 L495.644 188.924 L496.095 189.134 L496.545 188.924 L496.996 189.169 L497.446 188.924 L497.896 189.134 L498.345 189.552 L500.593 189.901 L501.044 190.11 L501.944 190.215 L503.742 191.227 L504.642 191.122 L505.543 191.541 L505.994 192.029 L506.444 192.238 L506.895 192.204 L507.344 192.692 L507.794 192.483 L508.245 192.762 L509.145 193.808 L509.595 193.704 L510.045 194.192 L510.494 194.122 L510.944 193.739 L511.395 194.053 L511.845 194.192 L512.296 194.471 L512.747 194.611 L513.197 194.436 L514.098 194.68 L514.549 194.82 L514.999 195.099 L515.45 194.82 L515.901 194.401 L516.351 194.785 L516.802 194.646 L517.252 194.227 L517.702 194.576 L518.152 194.436 L518.4 194.122 L518.4 194.122" style="fill:none;stroke:#0000ff;stroke-width:0.5;"/>
   </g>
   <g id="line2d_49">
    <path clip-path="url(#p97f0b5ab72)" d=" M72 341.948 L72.4395 342.074 L72.8811 342.545 L73.3228 343.604 L73.7637 343.509 L74.2039 344.07 L74.6471 345.827 L75.0873 345.782 L75.9684 344.359 L76.4094 344.725 L76.851 344.704 L77.2927 345.992 L77.7322 347.774 L78.1746 350.065 L78.614 351.494 L79.0535 351.87 L79.4966 349.865 L79.9361 348.967 L80.3785 350.68 L80.8202 352.847 L81.2611 354.143 L82.1415 355.142 L82.5839 353.527 L83.0241 350.629 L83.4636 348.586 L83.9038 348.77 L84.3447 347.086 L84.7842 347.638 L85.2237 349.586 L86.5443 352.499 L86.983 354.119 L87.4247 354.794 L87.8686 351.822 L88.308 347.885 L88.7482 347.159 L89.6286 347.055 L90.0674 346.526 L90.5091 346.392 L90.9485 346.003 L91.388 345.313 L91.8282 346.579 L92.2684 346.924 L92.7071 345.701 L93.1473 345.255 L93.5875 346.522 L94.0278 346.364 L94.4687 345.291 L94.9074 344.69 L95.79 345.78 L96.2324 346.008 L96.6719 345.887 L97.1121 345.067 L97.5508 344.722 L97.9918 344.556 L98.4342 343.804 L98.8729 343.702 L99.3124 343.308 L99.7526 343.064 L101.072 341.433 L101.511 341.319 L101.951 341.323 L102.392 341.195 L103.273 341.219 L104.154 341.425 L105.034 341.342 L105.475 341.448 L105.913 341.234 L107.237 341.234 L107.676 341.116 L108.119 341.263 L109.883 341.145 L110.323 341.38 L111.202 341.441 L112.521 341.612 L112.961 341.559 L113.4 341.689 L113.841 341.59 L114.282 341.772 L118.248 342.095 L119.568 342.404 L121.33 342.634 L122.212 342.768 L122.651 342.695 L124.411 343.06 L125.29 343.109 L129.25 343.653 L131.011 344.461 L131.893 344.643 L132.332 344.769 L132.772 345.118 L133.214 345.3 L134.974 346.973 L135.855 348.243 L136.736 348.73 L137.176 349.068 L138.057 349.088 L138.499 348.549 L138.939 349.334 L139.38 348.982 L139.824 349.08 L140.262 348.953 L140.705 348.153 L141.146 349.302 L141.586 349.492 L142.027 349.938 L142.471 350.594 L142.911 350.534 L143.351 349.709 L143.791 349.774 L144.237 350.013 L144.678 350.467 L145.117 350.613 L145.556 351.124 L146.437 350.946 L146.877 350.1 L147.757 350.39 L148.199 348.746 L148.637 349.369 L149.079 349.314 L149.519 349.623 L149.959 349.521 L150.399 349.988 L151.279 349.148 L152.159 347.679 L152.599 347.646 L153.041 346.732 L153.482 346.187 L153.923 345.995 L154.807 344.482 L155.249 344.274 L156.573 342.096 L157.895 340.189 L158.775 338.589 L159.656 336.924 L160.096 336.445 L160.536 335.768 L160.976 334.477 L161.859 333.168 L162.3 332.955 L162.739 332.87 L163.179 332.405 L164.939 331.924 L166.701 331.964 L167.143 332.107 L167.582 331.857 L168.906 332.295 L170.228 332.394 L170.669 332.433 L171.552 332.639 L173.313 332.585 L174.636 332.501 L175.077 332.714 L176.399 332.245 L177.279 332.018 L178.16 331.798 L179.04 331.813 L180.363 331.142 L180.803 331.08 L181.684 331.247 L182.124 331.194 L183.891 331.591 L184.773 331.584 L185.653 331.778 L186.533 331.859 L187.415 332.147 L188.737 332.196 L190.5 332.533 L190.94 332.614 L191.82 333.04 L192.262 333.065 L194.466 333.982 L194.906 333.982 L195.346 334.173 L195.786 334.055 L196.666 334.749 L197.547 334.4 L197.867 334.629 L198.426 334.776 L198.869 334.759 L199.751 334.854 L200.633 334.645 L201.074 334.708 L201.956 334.672 L202.397 334.779 L205.924 334.629 L206.365 334.826 L209.45 335.287 L210.33 335.521 L210.772 335.505 L211.653 335.93 L212.093 335.991 L212.533 336.413 L214.296 337.115 L217.817 337.561 L219.58 338.022 L220.462 338.53 L220.903 338.597 L221.344 338.424 L223.031 338.543 L226.807 338.529 L227.691 338.239 L228.572 337.691 L229.012 337.752 L229.894 337.521 L230.777 337.425 L231.66 337.582 L233.866 337.705 L234.305 337.825 L236.514 337.819 L237.837 337.831 L238.278 337.701 L239.16 337.656 L243.129 337.839 L244.453 338.033 L246.217 338.142 L246.657 338.284 L247.097 338.215 L247.537 338.373 L247.977 338.321 L248.418 338.506 L248.859 338.392 L249.739 338.517 L251.062 338.613 L251.944 338.803 L252.385 338.751 L254.148 338.98 L254.589 338.913 L255.471 339.103 L255.912 339.091 L257.233 339.347 L257.674 339.294 L258.555 339.501 L258.996 339.411 L259.876 339.465 L260.316 339.371 L261.196 340.11 L261.637 340.027 L262.078 339.81 L262.519 340.035 L263.401 340.941 L263.841 341.673 L265.605 343.366 L266.045 342.972 L266.486 342.83 L267.368 342.732 L267.809 342.554 L268.249 340.792 L268.692 340.325 L269.134 342.075 L269.575 344.662 L270.015 346.453 L270.36 347.374 L272.703 346.522 L273.144 347.541 L274.025 347.431 L274.466 347.99 L274.906 347.198 L275.348 346.835 L275.788 346.624 L276.227 344.757 L276.669 343.776 L277.111 345.455 L277.55 344.907 L277.99 344.866 L278.433 342.661 L278.873 341.373 L279.314 342.005 L279.755 339.738 L280.195 339.138 L280.636 338.333 L281.077 338.581 L281.518 337.959 L281.959 338.222 L282.399 339.727 L282.84 340.433 L283.281 340.232 L283.724 339.666 L284.165 339.432 L284.604 338.767 L285.484 336.689 L285.923 336.263 L286.363 335.573 L288.126 331.587 L288.565 331.035 L289.005 331.007 L289.89 329.934 L290.771 328.741 L291.651 328.256 L292.53 328.208 L293.411 328.226 L293.855 328.09 L294.737 328.03 L297.823 327.375 L298.264 327.249 L298.704 327.363 L299.145 327.241 L302.672 327.667 L303.559 327.548 L305.331 327.472 L305.77 327.61 L306.211 327.542 L306.655 327.647 L307.537 327.575 L308.418 327.728 L309.3 327.773 L309.741 327.868 L311.061 327.553 L311.501 327.643 L311.945 327.406 L312.387 327.598 L313.271 327.458 L313.711 327.632 L315.914 327.241 L316.793 327.41 L317.233 327.426 L318.993 328.097 L321.64 329.863 L322.539 330.421 L322.977 330.889 L323.418 330.905 L323.858 331.077 L324.299 331.401 L324.741 331.564 L325.183 331.944 L325.622 332.473 L326.065 332.797 L326.944 333.616 L327.828 334.333 L328.272 334.29 L328.714 334.817 L329.153 335.687 L330.914 337.262 L331.356 337.675 L331.797 337.636 L332.677 337.896 L333.118 337.832 L334 336.522 L334.44 336.713 L335.761 335.533 L336.203 335.351 L336.642 334.933 L337.082 334.289 L337.522 334.273 L337.965 334.547 L338.408 334.624 L338.851 333.976 L340.147 331.274 L340.631 329.608 L341.082 328.906 L341.532 327.723 L342.433 324.567 L343.334 322.42 L344.233 320.842 L346.033 314.968 L346.933 313.478 L349.636 306.071 L350.086 305.545 L350.536 303.836 L350.986 303.397 L352.336 299.233 L352.763 298.508 L353.254 297.193 L353.777 296.516 L354.227 296.209 L354.712 296.497 L355.575 295.727 L356.026 295.289 L356.476 295.464 L356.927 295.289 L357.377 295.902 L357.827 295.464 L359.176 295.99 L359.627 295.464 L360.078 295.595 L360.528 295.552 L360.979 295.771 L361.88 295.99 L362.331 295.902 L362.78 296.209 L363.23 296.165 L363.68 296.384 L364.13 296.078 L364.579 295.99 L365.03 296.078 L365.48 295.508 L365.931 295.376 L366.382 295.595 L367.283 295.508 L367.733 295.902 L368.183 295.552 L368.633 295.639 L369.082 296.034 L369.531 296.034 L369.981 296.384 L370.431 296.253 L371.33 296.516 L372.229 296.998 L372.679 297.042 L373.578 297.436 L374.028 297.48 L374.477 297.919 L374.927 297.962 L375.377 298.225 L376.728 298.444 L377.179 298.62 L377.629 298.444 L378.08 298.839 L379.879 299.277 L380.328 299.891 L380.779 299.716 L381.229 299.935 L381.678 299.979 L382.127 300.154 L382.577 300.592 L383.027 300.636 L383.477 300.373 L384.377 301.118 L384.827 301.118 L385.277 301.25 L385.726 301.206 L386.176 301.556 L386.625 301.688 L387.076 301.425 L387.526 301.688 L388.427 302.433 L392.03 305.457 L392.481 306.509 L392.931 306.948 L393.381 307.167 L393.83 307.211 L394.281 307.473 L394.731 308.832 L395.183 309.139 L395.632 309.796 L396.083 309.84 L396.533 310.805 L396.984 310.498 L397.434 310.892 L397.885 309.577 L398.336 309.621 L399.686 311.988 L400.136 311.55 L400.587 310.059 L401.038 310.235 L401.488 309.577 L401.939 310.498 L402.39 310.103 L402.84 308.745 L403.291 308.657 L403.741 308.306 L404.19 308.175 L404.641 307.254 L405.091 307.912 L405.991 305.852 L406.89 303.047 L407.79 300.592 L408.69 298.795 L409.139 297.831 L409.588 296.56 L410.489 293.448 L411.39 291.344 L413.193 285.734 L413.643 285.339 L415.441 280.956 L416.79 278.458 L417.24 277.713 L417.691 276.617 L418.142 276.266 L418.592 275.258 L419.493 273.768 L419.943 273.637 L420.394 273.768 L420.843 273.68 L421.745 274.075 L422.195 274.075 L422.644 274.294 L423.095 274.163 L423.545 274.206 L423.996 274.645 L424.445 274.382 L424.896 274.382 L425.346 274.601 L425.795 274.338 L427.145 274.426 L427.594 274.557 L428.044 274.426 L428.494 274.689 L428.943 274.557 L429.392 274.557 L429.842 274.688 L430.293 274.469 L430.743 274.951 L431.194 274.82 L431.644 274.513 L432.094 275.083 L432.543 275.258 L432.993 274.688 L433.443 274.995 L434.793 275.171 L435.242 275.214 L435.692 275.477 L436.141 275.346 L436.591 275.346 L437.041 275.872 L438.839 276.091 L439.738 276.529 L440.188 276.529 L440.638 276.705 L441.088 276.661 L441.537 277.187 L441.987 277.318 L442.437 277.143 L442.887 277.8 L443.338 277.713 L443.788 277.932 L444.239 277.976 L444.69 278.239 L445.14 278.809 L445.591 279.159 L446.04 279.334 L446.939 280.43 L447.389 280.562 L447.839 281.219 L448.29 281.395 L449.641 283.586 L450.541 285.383 L450.969 286.333 L451.531 286.61 L451.981 287.662 L452.431 288.32 L452.881 288.758 L453.331 289.591 L453.781 289.985 L454.231 290.774 L454.681 291.169 L455.132 292.44 L456.482 289.898 L456.932 290.424 L457.382 291.695 L458.282 288.276 L458.732 288.495 L459.182 288.144 L459.632 286.873 L460.083 286.216 L460.533 284.857 L460.983 284.2 L461.433 282.797 L461.883 282.622 L463.682 276.442 L464.582 273.154 L465.033 272.409 L465.484 272.365 L465.934 271.883 L466.835 268.684 L467.286 267.895 L467.737 266.229 L468.187 265.046 L469.086 262.241 L469.987 259.918 L472.691 250.67 L473.592 246.725 L476.291 236.732 L476.74 234.102 L477.19 233.006 L477.64 231.516 L478.09 230.595 L478.533 228.818 L478.991 227.571 L480.79 220.821 L481.24 220.339 L481.69 219.682 L482.139 219.857 L482.588 219.199 L483.038 218.936 L483.496 218.396 L483.939 218.235 L484.84 217.534 L485.29 217.271 L485.74 217.315 L486.19 217.096 L486.639 217.052 L487.54 215.956 L488.441 214.729 L488.891 213.94 L489.341 213.852 L489.79 213.94 L490.241 214.203 L490.691 213.764 L491.14 213.721 L492.04 213.896 L492.49 215.167 L492.941 216.833 L493.391 216 L493.842 216.833 L494.292 216.57 L494.743 217.052 L495.194 216.876 L495.644 216.526 L496.095 216.482 L496.996 216.964 L497.896 217.622 L498.345 217.315 L498.795 217.359 L499.245 217.753 L499.694 217.402 L500.593 217.534 L501.044 217.139 L501.944 216.745 L502.393 216.131 L502.843 214.773 L503.292 214.816 L503.742 214.247 L504.192 214.86 L505.543 214.553 L505.994 215.386 L506.444 215.649 L506.895 215.518 L507.344 215.868 L508.696 216.219 L509.145 215.868 L509.595 216.394 L510.045 216.087 L510.494 216.92 L510.944 216.92 L511.395 217.096 L511.845 217.446 L512.296 217.402 L512.747 217.841 L513.197 217.709 L513.648 217.928 L514.549 218.805 L514.999 218.893 L515.901 219.462 L516.351 219.375 L516.802 219.024 L517.252 219.506 L517.702 218.936 L518.152 219.55 L518.4 219.419 L518.4 219.419" style="fill:none;stroke:#bf00bf;stroke-width:0.5;"/>
   </g>
   <g id="matplotlib.axis_3">
    <g id="xtick_8">
     <g id="line2d_50">
      <path clip-path="url(#p97f0b5ab72)" d=" M113.97 388.8 L113.97 165.176" style="fill:none;stroke:#000000;stroke-dasharray:1.000000,3.000000;stroke-dashoffset:0.0;stroke-linecap:butt;stroke-width:0.5;"/>
     </g>
     <g id="line2d_51">
      <defs>
       <path d=" M0 0 L0 -4" id="mb3608525f6"/>
      </defs>
      <g>
       <use style="stroke:#000000;stroke-linecap:butt;stroke-width:0.5;" x="113.970213629" xlink:href="#mb3608525f6" y="388.8"/>
      </g>
     </g>
     <g id="line2d_52">
      <defs>
       <path d=" M0 0 L0 4" id="m2b70b2d34c"/>
      </defs>
      <g>
       <use style="stroke:#000000;stroke-linecap:butt;stroke-width:0.5;" x="113.970213629" xlink:href="#m2b70b2d34c" y="165.176470588"/>
      </g>
     </g>
     <g id="text_10">
      <!-- 23 Jun 2012 -->
      <defs>
       <path d=" M54.8906 33.0156 L54.8906 0 L45.9062 0 L45.9062 32.7188 Q45.9062 40.4844 42.875 44.3281 Q39.8438 48.1875 33.7969 48.1875 Q26.5156 48.1875 22.3125 43.5469 Q18.1094 38.9219 18.1094 30.9062 L18.1094 0 L9.07812 0 L9.07812 54.6875 L18.1094 54.6875 L18.1094 46.1875 Q21.3438 51.125 25.7031 53.5625 Q30.0781 56 35.7969 56 Q45.2188 56 50.0469 50.1719 Q54.8906 44.3438 54.8906 33.0156" id="BitstreamVeraSans-Roman-6e"/>
       <path d=" M9.8125 72.9062 L19.6719 72.9062 L19.6719 5.07812 Q19.6719 -8.10938 14.6719 -14.0625 Q9.67188 -20.0156 -1.42188 -20.0156 L-5.17188 -20.0156 L-5.17188 -11.7188 L-2.09375 -11.7188 Q4.4375 -11.7188 7.125 -8.04688 Q9.8125 -4.39062 9.8125 5.07812 z " id="BitstreamVeraSans-Roman-4a"/>
      </defs>
      <g transform="translate(93.0372291092 424.963045764)rotate(-30.0)scale(0.09 -0.09)">
       <use xlink:href="#BitstreamVeraSans-Roman-32"/>
       <use x="63.623046875" xlink:href="#BitstreamVeraSans-Roman-33"/>
       <use x="127.24609375" xlink:href="#BitstreamVeraSans-Roman-20"/>
       <use x="159.033203125" xlink:href="#BitstreamVeraSans-Roman-4a"/>
       <use x="188.525390625" xlink:href="#BitstreamVeraSans-Roman-75"/>
       <use x="251.904296875" xlink:href="#BitstreamVeraSans-Roman-6e"/>
       <use x="315.283203125" xlink:href="#BitstreamVeraSans-Roman-20"/>
       <use x="347.0703125" xlink:href="#BitstreamVeraSans-Roman-32"/>
       <use x="410.693359375" xlink:href="#BitstreamVeraSans-Roman-30"/>
       <use x="474.31640625" xlink:href="#BitstreamVeraSans-Roman-31"/>
       <use x="537.939453125" xlink:href="#BitstreamVeraSans-Roman-32"/>
      </g>
     </g>
    </g>
    <g id="xtick_9">
     <g id="line2d_53">
      <path clip-path="url(#p97f0b5ab72)" d=" M177.254 388.8 L177.254 165.176" style="fill:none;stroke:#000000;stroke-dasharray:1.000000,3.000000;stroke-dashoffset:0.0;stroke-linecap:butt;stroke-width:0.5;"/>
     </g>
     <g id="line2d_54">
      <defs>
       <path d=" M0 0 L0 -4" id="mb3608525f6"/>
      </defs>
      <g>
       <use style="stroke:#000000;stroke-linecap:butt;stroke-width:0.5;" x="177.254038654" xlink:href="#mb3608525f6" y="388.8"/>
      </g>
     </g>
     <g id="line2d_55">
      <defs>
       <path d=" M0 0 L0 4" id="m2b70b2d34c"/>
      </defs>
      <g>
       <use style="stroke:#000000;stroke-linecap:butt;stroke-width:0.5;" x="177.254038654" xlink:href="#m2b70b2d34c" y="165.176470588"/>
      </g>
     </g>
     <g id="text_11">
      <!-- 24 Jun 2012 -->
      <defs>
       <path d=" M37.7969 64.3125 L12.8906 25.3906 L37.7969 25.3906 z  M35.2031 72.9062 L47.6094 72.9062 L47.6094 25.3906 L58.0156 25.3906 L58.0156 17.1875 L47.6094 17.1875 L47.6094 0 L37.7969 0 L37.7969 17.1875 L4.89062 17.1875 L4.89062 26.7031 z " id="BitstreamVeraSans-Roman-34"/>
      </defs>
      <g transform="translate(156.321054134 424.963045764)rotate(-30.0)scale(0.09 -0.09)">
       <use xlink:href="#BitstreamVeraSans-Roman-32"/>
       <use x="63.623046875" xlink:href="#BitstreamVeraSans-Roman-34"/>
       <use x="127.24609375" xlink:href="#BitstreamVeraSans-Roman-20"/>
       <use x="159.033203125" xlink:href="#BitstreamVeraSans-Roman-4a"/>
       <use x="188.525390625" xlink:href="#BitstreamVeraSans-Roman-75"/>
       <use x="251.904296875" xlink:href="#BitstreamVeraSans-Roman-6e"/>
       <use x="315.283203125" xlink:href="#BitstreamVeraSans-Roman-20"/>
       <use x="347.0703125" xlink:href="#BitstreamVeraSans-Roman-32"/>
       <use x="410.693359375" xlink:href="#BitstreamVeraSans-Roman-30"/>
       <use x="474.31640625" xlink:href="#BitstreamVeraSans-Roman-31"/>
       <use x="537.939453125" xlink:href="#BitstreamVeraSans-Roman-32"/>
      </g>
     </g>
    </g>
    <g id="xtick_10">
     <g id="line2d_56">
      <path clip-path="url(#p97f0b5ab72)" d=" M240.538 388.8 L240.538 165.176" style="fill:none;stroke:#000000;stroke-dasharray:1.000000,3.000000;stroke-dashoffset:0.0;stroke-linecap:butt;stroke-width:0.5;"/>
     </g>
     <g id="line2d_57">
      <defs>
       <path d=" M0 0 L0 -4" id="mb3608525f6"/>
      </defs>
      <g>
       <use style="stroke:#000000;stroke-linecap:butt;stroke-width:0.5;" x="240.537863687" xlink:href="#mb3608525f6" y="388.8"/>
      </g>
     </g>
     <g id="line2d_58">
      <defs>
       <path d=" M0 0 L0 4" id="m2b70b2d34c"/>
      </defs>
      <g>
       <use style="stroke:#000000;stroke-linecap:butt;stroke-width:0.5;" x="240.537863687" xlink:href="#m2b70b2d34c" y="165.176470588"/>
      </g>
     </g>
     <g id="text_12">
      <!-- 25 Jun 2012 -->
      <g transform="translate(219.604879167 424.963045764)rotate(-30.0)scale(0.09 -0.09)">
       <use xlink:href="#BitstreamVeraSans-Roman-32"/>
       <use x="63.623046875" xlink:href="#BitstreamVeraSans-Roman-35"/>
       <use x="127.24609375" xlink:href="#BitstreamVeraSans-Roman-20"/>
       <use x="159.033203125" xlink:href="#BitstreamVeraSans-Roman-4a"/>
       <use x="188.525390625" xlink:href="#BitstreamVeraSans-Roman-75"/>
       <use x="251.904296875" xlink:href="#BitstreamVeraSans-Roman-6e"/>
       <use x="315.283203125" xlink:href="#BitstreamVeraSans-Roman-20"/>
       <use x="347.0703125" xlink:href="#BitstreamVeraSans-Roman-32"/>
       <use x="410.693359375" xlink:href="#BitstreamVeraSans-Roman-30"/>
       <use x="474.31640625" xlink:href="#BitstreamVeraSans-Roman-31"/>
       <use x="537.939453125" xlink:href="#BitstreamVeraSans-Roman-32"/>
      </g>
     </g>
    </g>
    <g id="xtick_11">
     <g id="line2d_59">
      <path clip-path="url(#p97f0b5ab72)" d=" M303.822 388.8 L303.822 165.176" style="fill:none;stroke:#000000;stroke-dasharray:1.000000,3.000000;stroke-dashoffset:0.0;stroke-linecap:butt;stroke-width:0.5;"/>
     </g>
     <g id="line2d_60">
      <defs>
       <path d=" M0 0 L0 -4" id="mb3608525f6"/>
      </defs>
      <g>
       <use style="stroke:#000000;stroke-linecap:butt;stroke-width:0.5;" x="303.821688712" xlink:href="#mb3608525f6" y="388.8"/>
      </g>
     </g>
     <g id="line2d_61">
      <defs>
       <path d=" M0 0 L0 4" id="m2b70b2d34c"/>
      </defs>
      <g>
       <use style="stroke:#000000;stroke-linecap:butt;stroke-width:0.5;" x="303.821688712" xlink:href="#m2b70b2d34c" y="165.176470588"/>
      </g>
     </g>
     <g id="text_13">
      <!-- 26 Jun 2012 -->
      <defs>
       <path d=" M33.0156 40.375 Q26.375 40.375 22.4844 35.8281 Q18.6094 31.2969 18.6094 23.3906 Q18.6094 15.5312 22.4844 10.9531 Q26.375 6.39062 33.0156 6.39062 Q39.6562 6.39062 43.5312 10.9531 Q47.4062 15.5312 47.4062 23.3906 Q47.4062 31.2969 43.5312 35.8281 Q39.6562 40.375 33.0156 40.375 M52.5938 71.2969 L52.5938 62.3125 Q48.875 64.0625 45.0938 64.9844 Q41.3125 65.9219 37.5938 65.9219 Q27.8281 65.9219 22.6719 59.3281 Q17.5312 52.7344 16.7969 39.4062 Q19.6719 43.6562 24.0156 45.9219 Q28.375 48.1875 33.5938 48.1875 Q44.5781 48.1875 50.9531 41.5156 Q57.3281 34.8594 57.3281 23.3906 Q57.3281 12.1562 50.6875 5.35938 Q44.0469 -1.42188 33.0156 -1.42188 Q20.3594 -1.42188 13.6719 8.26562 Q6.98438 17.9688 6.98438 36.375 Q6.98438 53.6562 15.1875 63.9375 Q23.3906 74.2188 37.2031 74.2188 Q40.9219 74.2188 44.7031 73.4844 Q48.4844 72.75 52.5938 71.2969" id="BitstreamVeraSans-Roman-36"/>
      </defs>
      <g transform="translate(282.888704192 424.963045764)rotate(-30.0)scale(0.09 -0.09)">
       <use xlink:href="#BitstreamVeraSans-Roman-32"/>
       <use x="63.623046875" xlink:href="#BitstreamVeraSans-Roman-36"/>
       <use x="127.24609375" xlink:href="#BitstreamVeraSans-Roman-20"/>
       <use x="159.033203125" xlink:href="#BitstreamVeraSans-Roman-4a"/>
       <use x="188.525390625" xlink:href="#BitstreamVeraSans-Roman-75"/>
       <use x="251.904296875" xlink:href="#BitstreamVeraSans-Roman-6e"/>
       <use x="315.283203125" xlink:href="#BitstreamVeraSans-Roman-20"/>
       <use x="347.0703125" xlink:href="#BitstreamVeraSans-Roman-32"/>
       <use x="410.693359375" xlink:href="#BitstreamVeraSans-Roman-30"/>
       <use x="474.31640625" xlink:href="#BitstreamVeraSans-Roman-31"/>
       <use x="537.939453125" xlink:href="#BitstreamVeraSans-Roman-32"/>
      </g>
     </g>
    </g>
    <g id="xtick_12">
     <g id="line2d_62">
      <path clip-path="url(#p97f0b5ab72)" d=" M367.106 388.8 L367.106 165.176" style="fill:none;stroke:#000000;stroke-dasharray:1.000000,3.000000;stroke-dashoffset:0.0;stroke-linecap:butt;stroke-width:0.5;"/>
     </g>
     <g id="line2d_63">
      <defs>
       <path d=" M0 0 L0 -4" id="mb3608525f6"/>
      </defs>
      <g>
       <use style="stroke:#000000;stroke-linecap:butt;stroke-width:0.5;" x="367.105513737" xlink:href="#mb3608525f6" y="388.8"/>
      </g>
     </g>
     <g id="line2d_64">
      <defs>
       <path d=" M0 0 L0 4" id="m2b70b2d34c"/>
      </defs>
      <g>
       <use style="stroke:#000000;stroke-linecap:butt;stroke-width:0.5;" x="367.105513737" xlink:href="#m2b70b2d34c" y="165.176470588"/>
      </g>
     </g>
     <g id="text_14">
      <!-- 27 Jun 2012 -->
      <defs>
       <path d=" M8.20312 72.9062 L55.0781 72.9062 L55.0781 68.7031 L28.6094 0 L18.3125 0 L43.2188 64.5938 L8.20312 64.5938 z " id="BitstreamVeraSans-Roman-37"/>
      </defs>
      <g transform="translate(346.172529217 424.963045764)rotate(-30.0)scale(0.09 -0.09)">
       <use xlink:href="#BitstreamVeraSans-Roman-32"/>
       <use x="63.623046875" xlink:href="#BitstreamVeraSans-Roman-37"/>
       <use x="127.24609375" xlink:href="#BitstreamVeraSans-Roman-20"/>
       <use x="159.033203125" xlink:href="#BitstreamVeraSans-Roman-4a"/>
       <use x="188.525390625" xlink:href="#BitstreamVeraSans-Roman-75"/>
       <use x="251.904296875" xlink:href="#BitstreamVeraSans-Roman-6e"/>
       <use x="315.283203125" xlink:href="#BitstreamVeraSans-Roman-20"/>
       <use x="347.0703125" xlink:href="#BitstreamVeraSans-Roman-32"/>
       <use x="410.693359375" xlink:href="#BitstreamVeraSans-Roman-30"/>
       <use x="474.31640625" xlink:href="#BitstreamVeraSans-Roman-31"/>
       <use x="537.939453125" xlink:href="#BitstreamVeraSans-Roman-32"/>
      </g>
     </g>
    </g>
    <g id="xtick_13">
     <g id="line2d_65">
      <path clip-path="url(#p97f0b5ab72)" d=" M430.389 388.8 L430.389 165.176" style="fill:none;stroke:#000000;stroke-dasharray:1.000000,3.000000;stroke-dashoffset:0.0;stroke-linecap:butt;stroke-width:0.5;"/>
     </g>
     <g id="line2d_66">
      <defs>
       <path d=" M0 0 L0 -4" id="mb3608525f6"/>
      </defs>
      <g>
       <use style="stroke:#000000;stroke-linecap:butt;stroke-width:0.5;" x="430.389338762" xlink:href="#mb3608525f6" y="388.8"/>
      </g>
     </g>
     <g id="line2d_67">
      <defs>
       <path d=" M0 0 L0 4" id="m2b70b2d34c"/>
      </defs>
      <g>
       <use style="stroke:#000000;stroke-linecap:butt;stroke-width:0.5;" x="430.389338762" xlink:href="#m2b70b2d34c" y="165.176470588"/>
      </g>
     </g>
     <g id="text_15">
      <!-- 28 Jun 2012 -->
      <defs>
       <path d=" M31.7812 34.625 Q24.75 34.625 20.7188 30.8594 Q16.7031 27.0938 16.7031 20.5156 Q16.7031 13.9219 20.7188 10.1562 Q24.75 6.39062 31.7812 6.39062 Q38.8125 6.39062 42.8594 10.1719 Q46.9219 13.9688 46.9219 20.5156 Q46.9219 27.0938 42.8906 30.8594 Q38.875 34.625 31.7812 34.625 M21.9219 38.8125 Q15.5781 40.375 12.0312 44.7188 Q8.5 49.0781 8.5 55.3281 Q8.5 64.0625 14.7188 69.1406 Q20.9531 74.2188 31.7812 74.2188 Q42.6719 74.2188 48.875 69.1406 Q55.0781 64.0625 55.0781 55.3281 Q55.0781 49.0781 51.5312 44.7188 Q48 40.375 41.7031 38.8125 Q48.8281 37.1562 52.7969 32.3125 Q56.7812 27.4844 56.7812 20.5156 Q56.7812 9.90625 50.3125 4.23438 Q43.8438 -1.42188 31.7812 -1.42188 Q19.7344 -1.42188 13.25 4.23438 Q6.78125 9.90625 6.78125 20.5156 Q6.78125 27.4844 10.7812 32.3125 Q14.7969 37.1562 21.9219 38.8125 M18.3125 54.3906 Q18.3125 48.7344 21.8438 45.5625 Q25.3906 42.3906 31.7812 42.3906 Q38.1406 42.3906 41.7188 45.5625 Q45.3125 48.7344 45.3125 54.3906 Q45.3125 60.0625 41.7188 63.2344 Q38.1406 66.4062 31.7812 66.4062 Q25.3906 66.4062 21.8438 63.2344 Q18.3125 60.0625 18.3125 54.3906" id="BitstreamVeraSans-Roman-38"/>
      </defs>
      <g transform="translate(409.456354241 424.963045764)rotate(-30.0)scale(0.09 -0.09)">
       <use xlink:href="#BitstreamVeraSans-Roman-32"/>
       <use x="63.623046875" xlink:href="#BitstreamVeraSans-Roman-38"/>
       <use x="127.24609375" xlink:href="#BitstreamVeraSans-Roman-20"/>
       <use x="159.033203125" xlink:href="#BitstreamVeraSans-Roman-4a"/>
       <use x="188.525390625" xlink:href="#BitstreamVeraSans-Roman-75"/>
       <use x="251.904296875" xlink:href="#BitstreamVeraSans-Roman-6e"/>
       <use x="315.283203125" xlink:href="#BitstreamVeraSans-Roman-20"/>
       <use x="347.0703125" xlink:href="#BitstreamVeraSans-Roman-32"/>
       <use x="410.693359375" xlink:href="#BitstreamVeraSans-Roman-30"/>
       <use x="474.31640625" xlink:href="#BitstreamVeraSans-Roman-31"/>
       <use x="537.939453125" xlink:href="#BitstreamVeraSans-Roman-32"/>
      </g>
     </g>
    </g>
    <g id="xtick_14">
     <g id="line2d_68">
      <path clip-path="url(#p97f0b5ab72)" d=" M493.673 388.8 L493.673 165.176" style="fill:none;stroke:#000000;stroke-dasharray:1.000000,3.000000;stroke-dashoffset:0.0;stroke-linecap:butt;stroke-width:0.5;"/>
     </g>
     <g id="line2d_69">
      <defs>
       <path d=" M0 0 L0 -4" id="mb3608525f6"/>
      </defs>
      <g>
       <use style="stroke:#000000;stroke-linecap:butt;stroke-width:0.5;" x="493.673163787" xlink:href="#mb3608525f6" y="388.8"/>
      </g>
     </g>
     <g id="line2d_70">
      <defs>
       <path d=" M0 0 L0 4" id="m2b70b2d34c"/>
      </defs>
      <g>
       <use style="stroke:#000000;stroke-linecap:butt;stroke-width:0.5;" x="493.673163787" xlink:href="#m2b70b2d34c" y="165.176470588"/>
      </g>
     </g>
     <g id="text_16">
      <!-- 29 Jun 2012 -->
      <defs>
       <path d=" M10.9844 1.51562 L10.9844 10.5 Q14.7031 8.73438 18.5 7.8125 Q22.3125 6.89062 25.9844 6.89062 Q35.75 6.89062 40.8906 13.4531 Q46.0469 20.0156 46.7812 33.4062 Q43.9531 29.2031 39.5938 26.9531 Q35.25 24.7031 29.9844 24.7031 Q19.0469 24.7031 12.6719 31.3125 Q6.29688 37.9375 6.29688 49.4219 Q6.29688 60.6406 12.9375 67.4219 Q19.5781 74.2188 30.6094 74.2188 Q43.2656 74.2188 49.9219 64.5156 Q56.5938 54.8281 56.5938 36.375 Q56.5938 19.1406 48.4062 8.85938 Q40.2344 -1.42188 26.4219 -1.42188 Q22.7031 -1.42188 18.8906 -0.6875 Q15.0938 0.046875 10.9844 1.51562 M30.6094 32.4219 Q37.25 32.4219 41.125 36.9531 Q45.0156 41.5 45.0156 49.4219 Q45.0156 57.2812 41.125 61.8438 Q37.25 66.4062 30.6094 66.4062 Q23.9688 66.4062 20.0938 61.8438 Q16.2188 57.2812 16.2188 49.4219 Q16.2188 41.5 20.0938 36.9531 Q23.9688 32.4219 30.6094 32.4219" id="BitstreamVeraSans-Roman-39"/>
      </defs>
      <g transform="translate(472.740179266 424.963045764)rotate(-30.0)scale(0.09 -0.09)">
       <use xlink:href="#BitstreamVeraSans-Roman-32"/>
       <use x="63.623046875" xlink:href="#BitstreamVeraSans-Roman-39"/>
       <use x="127.24609375" xlink:href="#BitstreamVeraSans-Roman-20"/>
       <use x="159.033203125" xlink:href="#BitstreamVeraSans-Roman-4a"/>
       <use x="188.525390625" xlink:href="#BitstreamVeraSans-Roman-75"/>
       <use x="251.904296875" xlink:href="#BitstreamVeraSans-Roman-6e"/>
       <use x="315.283203125" xlink:href="#BitstreamVeraSans-Roman-20"/>
       <use x="347.0703125" xlink:href="#BitstreamVeraSans-Roman-32"/>
       <use x="410.693359375" xlink:href="#BitstreamVeraSans-Roman-30"/>
       <use x="474.31640625" xlink:href="#BitstreamVeraSans-Roman-31"/>
       <use x="537.939453125" xlink:href="#BitstreamVeraSans-Roman-32"/>
      </g>
     </g>
    </g>
   </g>
   <g id="matplotlib.axis_4">
    <g id="ytick_9">
     <g id="line2d_71">
      <path clip-path="url(#p97f0b5ab72)" d=" M72 388.8 L518.4 388.8" style="fill:none;stroke:#000000;stroke-dasharray:1.000000,3.000000;stroke-dashoffset:0.0;stroke-linecap:butt;stroke-width:0.5;"/>
     </g>
     <g id="line2d_72">
      <defs>
       <path d=" M0 0 L4 0" id="mf6f51d933e"/>
      </defs>
      <g>
       <use style="stroke:#000000;stroke-linecap:butt;stroke-width:0.5;" x="72.0" xlink:href="#mf6f51d933e" y="388.8"/>
      </g>
     </g>
     <g id="line2d_73">
      <defs>
       <path d=" M0 0 L-4 0" id="md2dc188fb6"/>
      </defs>
      <g>
       <use style="stroke:#000000;stroke-linecap:butt;stroke-width:0.5;" x="518.4" xlink:href="#md2dc188fb6" y="388.8"/>
      </g>
     </g>
     <g id="text_17">
      <!-- 80 -->
      <g transform="translate(54.340625 393.1678125)scale(0.12 -0.12)">
       <use xlink:href="#BitstreamVeraSans-Roman-38"/>
       <use x="63.623046875" xlink:href="#BitstreamVeraSans-Roman-30"/>
      </g>
     </g>
    </g>
    <g id="ytick_10">
     <g id="line2d_74">
      <path clip-path="url(#p97f0b5ab72)" d=" M72 344.075 L518.4 344.075" style="fill:none;stroke:#000000;stroke-dasharray:1.000000,3.000000;stroke-dashoffset:0.0;stroke-linecap:butt;stroke-width:0.5;"/>
     </g>
     <g id="line2d_75">
      <defs>
       <path d=" M0 0 L4 0" id="mf6f51d933e"/>
      </defs>
      <g>
       <use style="stroke:#000000;stroke-linecap:butt;stroke-width:0.5;" x="72.0" xlink:href="#mf6f51d933e" y="344.075294118"/>
      </g>
     </g>
     <g id="line2d_76">
      <defs>
       <path d=" M0 0 L-4 0" id="md2dc188fb6"/>
      </defs>
      <g>
       <use style="stroke:#000000;stroke-linecap:butt;stroke-width:0.5;" x="518.4" xlink:href="#md2dc188fb6" y="344.075294118"/>
      </g>
     </g>
     <g id="text_18">
      <!-- 85 -->
      <g transform="translate(54.591875 348.443106618)scale(0.12 -0.12)">
       <use xlink:href="#BitstreamVeraSans-Roman-38"/>
       <use x="63.623046875" xlink:href="#BitstreamVeraSans-Roman-35"/>
      </g>
     </g>
    </g>
    <g id="ytick_11">
     <g id="line2d_77">
      <path clip-path="url(#p97f0b5ab72)" d=" M72 299.351 L518.4 299.351" style="fill:none;stroke:#000000;stroke-dasharray:1.000000,3.000000;stroke-dashoffset:0.0;stroke-linecap:butt;stroke-width:0.5;"/>
     </g>
     <g id="line2d_78">
      <defs>
       <path d=" M0 0 L4 0" id="mf6f51d933e"/>
      </defs>
      <g>
       <use style="stroke:#000000;stroke-linecap:butt;stroke-width:0.5;" x="72.0" xlink:href="#mf6f51d933e" y="299.350588235"/>
      </g>
     </g>
     <g id="line2d_79">
      <defs>
       <path d=" M0 0 L-4 0" id="md2dc188fb6"/>
      </defs>
      <g>
       <use style="stroke:#000000;stroke-linecap:butt;stroke-width:0.5;" x="518.4" xlink:href="#md2dc188fb6" y="299.350588235"/>
      </g>
     </g>
     <g id="text_19">
      <!-- 90 -->
      <g transform="translate(54.2825 303.718400735)scale(0.12 -0.12)">
       <use xlink:href="#BitstreamVeraSans-Roman-39"/>
       <use x="63.623046875" xlink:href="#BitstreamVeraSans-Roman-30"/>
      </g>
     </g>
    </g>
    <g id="ytick_12">
     <g id="line2d_80">
      <path clip-path="url(#p97f0b5ab72)" d=" M72 254.626 L518.4 254.626" style="fill:none;stroke:#000000;stroke-dasharray:1.000000,3.000000;stroke-dashoffset:0.0;stroke-linecap:butt;stroke-width:0.5;"/>
     </g>
     <g id="line2d_81">
      <defs>
       <path d=" M0 0 L4 0" id="mf6f51d933e"/>
      </defs>
      <g>
       <use style="stroke:#000000;stroke-linecap:butt;stroke-width:0.5;" x="72.0" xlink:href="#mf6f51d933e" y="254.625882353"/>
      </g>
     </g>
     <g id="line2d_82">
      <defs>
       <path d=" M0 0 L-4 0" id="md2dc188fb6"/>
      </defs>
      <g>
       <use style="stroke:#000000;stroke-linecap:butt;stroke-width:0.5;" x="518.4" xlink:href="#md2dc188fb6" y="254.625882353"/>
      </g>
     </g>
     <g id="text_20">
      <!-- 95 -->
      <g transform="translate(54.53375 258.993694853)scale(0.12 -0.12)">
       <use xlink:href="#BitstreamVeraSans-Roman-39"/>
       <use x="63.623046875" xlink:href="#BitstreamVeraSans-Roman-35"/>
      </g>
     </g>
    </g>
    <g id="ytick_13">
     <g id="line2d_83">
      <path clip-path="url(#p97f0b5ab72)" d=" M72 209.901 L518.4 209.901" style="fill:none;stroke:#000000;stroke-dasharray:1.000000,3.000000;stroke-dashoffset:0.0;stroke-linecap:butt;stroke-width:0.5;"/>
     </g>
     <g id="line2d_84">
      <defs>
       <path d=" M0 0 L4 0" id="mf6f51d933e"/>
      </defs>
      <g>
       <use style="stroke:#000000;stroke-linecap:butt;stroke-width:0.5;" x="72.0" xlink:href="#mf6f51d933e" y="209.901176471"/>
      </g>
     </g>
     <g id="line2d_85">
      <defs>
       <path d=" M0 0 L-4 0" id="md2dc188fb6"/>
      </defs>
      <g>
       <use style="stroke:#000000;stroke-linecap:butt;stroke-width:0.5;" x="518.4" xlink:href="#md2dc188fb6" y="209.901176471"/>
      </g>
     </g>
     <g id="text_21">
      <!-- 100 -->
      <g transform="translate(47.21 214.268988971)scale(0.12 -0.12)">
       <use xlink:href="#BitstreamVeraSans-Roman-31"/>
       <use x="63.623046875" xlink:href="#BitstreamVeraSans-Roman-30"/>
       <use x="127.24609375" xlink:href="#BitstreamVeraSans-Roman-30"/>
      </g>
     </g>
    </g>
    <g id="ytick_14">
     <g id="line2d_86">
      <path clip-path="url(#p97f0b5ab72)" d=" M72 165.176 L518.4 165.176" style="fill:none;stroke:#000000;stroke-dasharray:1.000000,3.000000;stroke-dashoffset:0.0;stroke-linecap:butt;stroke-width:0.5;"/>
     </g>
     <g id="line2d_87">
      <defs>
       <path d=" M0 0 L4 0" id="mf6f51d933e"/>
      </defs>
      <g>
       <use style="stroke:#000000;stroke-linecap:butt;stroke-width:0.5;" x="72.0" xlink:href="#mf6f51d933e" y="165.176470588"/>
      </g>
     </g>
     <g id="line2d_88">
      <defs>
       <path d=" M0 0 L-4 0" id="md2dc188fb6"/>
      </defs>
      <g>
       <use style="stroke:#000000;stroke-linecap:butt;stroke-width:0.5;" x="518.4" xlink:href="#md2dc188fb6" y="165.176470588"/>
      </g>
     </g>
     <g id="text_22">
      <!-- 105 -->
      <g transform="translate(47.46125 169.544283088)scale(0.12 -0.12)">
       <use xlink:href="#BitstreamVeraSans-Roman-31"/>
       <use x="63.623046875" xlink:href="#BitstreamVeraSans-Roman-30"/>
       <use x="127.24609375" xlink:href="#BitstreamVeraSans-Roman-35"/>
      </g>
     </g>
    </g>
    <g id="text_23">
     <!-- Weight (kg) -->
     <defs>
      <path d=" M45.4062 27.9844 Q45.4062 37.75 41.375 43.1094 Q37.3594 48.4844 30.0781 48.4844 Q22.8594 48.4844 18.8281 43.1094 Q14.7969 37.75 14.7969 27.9844 Q14.7969 18.2656 18.8281 12.8906 Q22.8594 7.51562 30.0781 7.51562 Q37.3594 7.51562 41.375 12.8906 Q45.4062 18.2656 45.4062 27.9844 M54.3906 6.78125 Q54.3906 -7.17188 48.1875 -13.9844 Q42 -20.7969 29.2031 -20.7969 Q24.4688 -20.7969 20.2656 -20.0938 Q16.0625 -19.3906 12.1094 -17.9219 L12.1094 -9.1875 Q16.0625 -11.3281 19.9219 -12.3438 Q23.7812 -13.375 27.7812 -13.375 Q36.625 -13.375 41.0156 -8.76562 Q45.4062 -4.15625 45.4062 5.17188 L45.4062 9.625 Q42.625 4.78125 38.2812 2.39062 Q33.9375 0 27.875 0 Q17.8281 0 11.6719 7.65625 Q5.51562 15.3281 5.51562 27.9844 Q5.51562 40.6719 11.6719 48.3281 Q17.8281 56 27.875 56 Q33.9375 56 38.2812 53.6094 Q42.625 51.2188 45.4062 46.3906 L45.4062 54.6875 L54.3906 54.6875 z " id="BitstreamVeraSans-Roman-67"/>
      <path d=" M9.07812 75.9844 L18.1094 75.9844 L18.1094 31.1094 L44.9219 54.6875 L56.3906 54.6875 L27.3906 29.1094 L57.625 0 L45.9062 0 L18.1094 26.7031 L18.1094 0 L9.07812 0 z " id="BitstreamVeraSans-Roman-6b"/>
      <path d=" M9.42188 54.6875 L18.4062 54.6875 L18.4062 0 L9.42188 0 z  M9.42188 75.9844 L18.4062 75.9844 L18.4062 64.5938 L9.42188 64.5938 z " id="BitstreamVeraSans-Roman-69"/>
      <path d=" M54.8906 33.0156 L54.8906 0 L45.9062 0 L45.9062 32.7188 Q45.9062 40.4844 42.875 44.3281 Q39.8438 48.1875 33.7969 48.1875 Q26.5156 48.1875 22.3125 43.5469 Q18.1094 38.9219 18.1094 30.9062 L18.1094 0 L9.07812 0 L9.07812 75.9844 L18.1094 75.9844 L18.1094 46.1875 Q21.3438 51.125 25.7031 53.5625 Q30.0781 56 35.7969 56 Q45.2188 56 50.0469 50.1719 Q54.8906 44.3438 54.8906 33.0156" id="BitstreamVeraSans-Roman-68"/>
      <path d=" M3.32812 72.9062 L13.2812 72.9062 L28.6094 11.2812 L43.8906 72.9062 L54.9844 72.9062 L70.3125 11.2812 L85.5938 72.9062 L95.6094 72.9062 L77.2969 0 L64.8906 0 L49.5156 63.2812 L33.9844 0 L21.5781 0 z " id="BitstreamVeraSans-Roman-57"/>
     </defs>
     <g transform="translate(42.21 308.751672794)rotate(-90.0)scale(0.12 -0.12)">
      <use xlink:href="#BitstreamVeraSans-Roman-57"/>
      <use x="93.001953125" xlink:href="#BitstreamVeraSans-Roman-65"/>
      <use x="154.525390625" xlink:href="#BitstreamVeraSans-Roman-69"/>
      <use x="182.30859375" xlink:href="#BitstreamVeraSans-Roman-67"/>
      <use x="245.78515625" xlink:href="#BitstreamVeraSans-Roman-68"/>
      <use x="309.1640625" xlink:href="#BitstreamVeraSans-Roman-74"/>
      <use x="348.373046875" xlink:href="#BitstreamVeraSans-Roman-20"/>
      <use x="380.16015625" xlink:href="#BitstreamVeraSans-Roman-28"/>
      <use x="419.173828125" xlink:href="#BitstreamVeraSans-Roman-6b"/>
      <use x="477.083984375" xlink:href="#BitstreamVeraSans-Roman-67"/>
      <use x="540.560546875" xlink:href="#BitstreamVeraSans-Roman-29"/>
     </g>
    </g>
   </g>
   <g id="patch_8">
    <path d=" M72 165.176 L518.4 165.176" style="fill:none;stroke:#000000;"/>
   </g>
   <g id="patch_9">
    <path d=" M518.4 388.8 L518.4 165.176" style="fill:none;stroke:#000000;"/>
   </g>
   <g id="patch_10">
    <path d=" M72 388.8 L518.4 388.8" style="fill:none;stroke:#000000;"/>
   </g>
   <g id="patch_11">
    <path d=" M72 388.8 L72 165.176" style="fill:none;stroke:#000000;"/>
   </g>
   <g id="legend_1">
    <g id="patch_12">
     <path d=" M79.2 224.196 L135.837 224.196 L135.837 172.376 L79.2 172.376 L79.2 224.196 z " style="fill:#ffffff;stroke:#000000;"/>
    </g>
    <g id="line2d_89">
     <path d=" M89.28 183.176 L109.44 183.176" style="fill:none;stroke:#008000;stroke-width:0.5;"/>
    </g>
    <g id="line2d_90"/>
    <g id="text_24">
     <!-- 1 -->
     <g transform="translate(125.28 188.216470588)scale(0.09996 -0.09996)">
      <use xlink:href="#BitstreamVeraSans-Roman-31"/>
     </g>
    </g>
    <g id="line2d_91">
     <path d=" M89.28 198.215 L109.44 198.215" style="fill:none;stroke:#0000ff;stroke-width:0.5;"/>
    </g>
    <g id="line2d_92"/>
    <g id="text_25">
     <!-- 2 -->
     <g transform="translate(125.28 203.255326213)scale(0.09996 -0.09996)">
      <use xlink:href="#BitstreamVeraSans-Roman-32"/>
     </g>
    </g>
    <g id="line2d_93">
     <path d=" M89.28 213.254 L109.44 213.254" style="fill:none;stroke:#bf00bf;stroke-width:0.5;"/>
    </g>
    <g id="line2d_94"/>
    <g id="text_26">
     <!-- 3 -->
     <g transform="translate(125.28 218.294181838)scale(0.09996 -0.09996)">
      <use xlink:href="#BitstreamVeraSans-Roman-33"/>
     </g>
    </g>
   </g>
  </g>
 </g>
 <defs>
  <clipPath id="pfd6a83a59a">
   <rect height="101.647058824" width="446.4" x="72.0" y="43.2"/>
  </clipPath>
  <clipPath id="p97f0b5ab72">
   <rect height="223.623529412" width="446.4" x="72.0" y="165.176470588"/>
  </clipPath>
 </defs>
</svg>